<?xml version="1.0" standalone="no"?>
<!DOCTYPE svg PUBLIC "-//W3C//DTD SVG 1.1//EN" "http://www.w3.org/Graphics/SVG/1.1/DTD/svg11.dtd" >
<svg>
<metadata>
Created by FontForge 20090914 at Wed Apr 12 13:40:14 2017
 By www-data
Copyright 2011 The Francois One Project Authors (contact@sansoxygen.com)
</metadata>
<defs>
<font id="FrancoisOne-Regular" horiz-adv-x="0" >
  <font-face 
    font-family="Francois One"
    font-weight="400"
    font-stretch="normal"
    units-per-em="1000"
    panose-1="2 0 5 3 4 0 0 2 0 4"
    ascent="800"
    descent="-200"
    x-height="563"
    cap-height="750"
    bbox="-550.002 -332.001 1322 1351"
    underline-thickness="50"
    underline-position="-50"
    unicode-range="U+000D-U+FB02"
  />
<missing-glyph horiz-adv-x="695" 
d="M570 1063v-1390h-441v1390h441zM463 970h-229v-46h90v-51h-92v-46h231v46h-92v51h92v46zM371 791h-139v-145h231v47h-92v98zM324 743v-50h-46v50h46zM463 608h-231v-45h92v-52h-92v-46h139v98h92v45zM463 525h-46v-92h-185v-47h231v139zM463 355h-139v-77h47v32h46v-66
h-139v111h-46v-157h231v157zM463 115h-231v-157h231v157zM417 69v-65h-139v65h139zM463 -74h-231v-46h97l-97 -65v-46h231v46h-142l97 65h45v46z" />
    <glyph glyph-name="fi" unicode="fi" horiz-adv-x="628" 
d="M427 629v152h141v-146zM86 448l-68.999 0.000976562l12 115h57v10c0 39.333 2.5 71.166 7.5 95.499s17.667 44.833 38 61.5s51.833 25 94.5 25c25.333 0 49.666 -2.33301 72.999 -7c12 -4 19.333 -6.66699 22 -8v-84h-30c-26.667 0 -44 -7.33301 -52 -22s-12 -35 -12 -61
v-10h341v-557l-141 -12v453h-200v-441l-141 -12v454z" />
    <glyph glyph-name="fl" unicode="fl" horiz-adv-x="628" 
d="M86 448l-69 -0.000976562l12 115h57v10c0 39.333 3.33301 70.833 10 94.5s23.667 43.334 51 59.001s70 23.5 128 23.5h293v-744l-141 -12v662h-156c-18.667 0 -30.667 -7.16699 -36 -21.5s-8 -34.833 -8 -61.5v-10h93l-11 -116h-82v-441l-141 -12v454z" />
    <glyph glyph-name="f_f" unicode="ff" horiz-adv-x="706" 
d="M86 457l-68.998 0.000976562l5 106h64v10c0 39.333 2.5 71.166 7.5 95.499s17.667 44.833 38 61.5s51.833 25 94.5 25c25.333 0 49.666 -2.33301 72.999 -7c12 -4 19.333 -6.66699 22 -8v-84h-31c-26.667 0 -43.834 -7.33301 -51.501 -22s-11.5 -35 -11.5 -61v-10h99
l-6 -106h-93v-451l-141 -12v463zM454.002 457.001l-68.999 0.000976562l6 106h63v10c0 39.333 2.5 71.166 7.5 95.499s17.667 44.833 38 61.5s51.833 25 94.5 25c25.333 0 49.666 -2.33301 72.999 -7c12 -4 19.333 -6.66699 22 -8v-84h-31c-26 0 -43 -7.33301 -51 -22
s-12 -35 -12 -61v-10h99l-6 -106h-93v-451l-141 -12v463z" />
    <glyph glyph-name="f_f_i" unicode="ffi" horiz-adv-x="1023" 
d="M822 635v145l140 1v-140zM86 457l-68.998 0.000976562l5 106h64v10c0 39.333 2.5 71.166 7.5 95.499s17.667 44.833 38 61.5s51.833 25 94.5 25c25.333 0 49.666 -2.33301 72.999 -7c12 -4 19.333 -6.66699 22 -8v-84h-31c-26.667 0 -43.834 -7.33301 -51.501 -22
s-11.5 -35 -11.5 -61v-10h99l-6 -106h-93v-451l-141 -12v463zM454.002 457.001l-68.999 0.000976562l6 106h63v10c0 39.333 2.5 71.166 7.5 95.499s17.667 44.833 38 61.5s51.833 25 94.5 25c25.333 0 49.666 -2.33301 72.999 -7c12 -4 19.333 -6.66699 22 -8v-84h-31
c-26 0 -43 -7.33301 -51 -22s-12 -35 -12 -61v-10h99l-6 -106h-93v-451l-141 -12v463zM822.003 -5.99805v557l140 12v-557z" />
    <glyph glyph-name="f_f_l" unicode="ffl" horiz-adv-x="1022" 
d="M86 457l-68.998 0.000976562l5 106h64v10c0 39.333 2.5 71.166 7.5 95.499s17.667 44.833 38 61.5s51.833 25 94.5 25c25.333 0 49.666 -2.33301 72.999 -7c12 -4 19.333 -6.66699 22 -8v-84h-31c-26.667 0 -43.834 -7.33301 -51.501 -22s-11.5 -35 -11.5 -61v-10h99
l-6 -106h-93v-451l-141 -12v463zM454.002 457.001l-68.999 0.000976562l6 106h63v10c0 39.333 2.5 71.166 7.5 95.499s17.667 44.833 38 61.5s51.833 25 94.5 25c25.333 0 49.666 -2.33301 72.999 -7c12 -4 19.333 -6.66699 22 -8v-84h-31c-26 0 -43 -7.33301 -51 -22
s-12 -35 -12 -61v-10h99l-6 -106h-93v-451l-141 -12v463zM821.003 -5.99805v738l141 18v-744z" />
    <glyph glyph-name=".notdef" horiz-adv-x="695" 
d="M570 1063v-1390h-441v1390h441zM463 970h-229v-46h90v-51h-92v-46h231v46h-92v51h92v46zM371 791h-139v-145h231v47h-92v98zM324 743v-50h-46v50h46zM463 608h-231v-45h92v-52h-92v-46h139v98h92v45zM463 525h-46v-92h-185v-47h231v139zM463 355h-139v-77h47v32h46v-66
h-139v111h-46v-157h231v157zM463 115h-231v-157h231v157zM417 69v-65h-139v65h139zM463 -74h-231v-46h97l-97 -65v-46h231v46h-142l97 65h45v46z" />
    <glyph glyph-name="NULL" 
 />
    <glyph glyph-name="NULL" 
 />
    <glyph glyph-name="nonmarkingreturn" unicode="&#xd;" horiz-adv-x="244" 
 />
    <glyph glyph-name="space" unicode=" " horiz-adv-x="244" 
 />
    <glyph glyph-name="exclam" unicode="!" horiz-adv-x="265" 
d="M86 219l-24 531h141l-23 -531h-94zM62 -6v152h141v-146z" />
    <glyph glyph-name="quotedbl" unicode="&#x22;" horiz-adv-x="408" 
d="M63 463l-23 287h141l-24 -281zM251 463l-23 287h140l-23 -281z" />
    <glyph glyph-name="numbersign" unicode="#" horiz-adv-x="626" 
d="M80 0l24 188h-73v116h88l22 165h-86v116h101l22 165h146l-22 -165h91l22 165h147l-22 -165h55v-116h-71l-21 -165h69v-116h-84l-25 -188h-146l24 188h-91l-24 -188h-146zM266 304h90l22 165h-91z" />
    <glyph glyph-name="dollar" unicode="$" horiz-adv-x="544" 
d="M485.5 119.5c-18.333 -30.333 -43.667 -55 -76 -74s-68.833 -30.167 -109.5 -33.5v-59h-70v61c-49.333 8 -91.333 28 -126 60s-61 72.667 -79 122l124 58l11 -18c18.667 -31.333 37.5 -57.166 56.5 -77.499s41.5 -30.5 67.5 -30.5c18 0 34.167 5.5 48.5 16.5
s21.5 25.5 21.5 43.5c0 17.333 -6.33301 34.5 -19 51.5s-28 30.5 -46 40.5l-116 69c-83.333 50 -125 113 -125 189c0 50.667 16.833 93.667 50.5 129s77.5 56.666 131.5 63.999v66h70v-64c44 -4.66699 81.333 -19.5 112 -44.5s53.667 -59.833 69 -104.5l-124 -56
c-2 4 -7.33301 15.5 -16 34.5s-19.167 32.833 -31.5 41.5s-27.166 13 -44.499 13c-20 0 -35 -4.66699 -45 -14s-15 -21.666 -15 -36.999c0 -14.667 4.33301 -27.834 13 -39.501s19.667 -21.5 33 -29.5l121 -70c53.333 -30.667 90.166 -64.167 110.499 -100.5
s30.5 -71.833 30.5 -106.5c0 -36.667 -9.16699 -70.167 -27.5 -100.5z" />
    <glyph glyph-name="percent" unicode="%" horiz-adv-x="940" 
d="M227 13l388 742l81 -47l-384 -735zM91.5 376c-31 39.333 -46.499 92.002 -46.499 158.002c0 65.333 15.333 117.666 46 156.999s75.334 59 134.001 59c59.333 0 104.666 -19.833 135.999 -59.5s47 -91.834 47 -156.501c0 -65.333 -15.833 -117.833 -47.5 -157.5
s-76.834 -59.5 -135.501 -59.5c-58 0 -102.5 19.667 -133.5 59zM273.001 447.502c10 23.667 15 53.167 15 88.5s-4.83301 65 -14.5 89s-25.5 36 -47.5 36s-37.833 -11.833 -47.5 -35.5s-14.5 -52.834 -14.5 -87.501c0 -35.333 4.83301 -65.166 14.5 -89.499
s25.5 -36.5 47.5 -36.5c21.333 0 37 11.833 47 35.5zM578.501 39.002c-31 39.333 -46.499 92.002 -46.499 158.002c0 65.333 15.333 117.666 46 156.999s75.334 59 134.001 59c59.333 0 104.666 -19.833 135.999 -59.5s47 -91.834 47 -156.501
c0 -65.333 -15.833 -117.833 -47.5 -157.5s-76.834 -59.5 -135.501 -59.5c-58 0 -102.5 19.667 -133.5 59zM760.002 110.504c10 23.667 15 53.167 15 88.5s-4.83301 65 -14.5 89s-25.5 36 -47.5 36s-37.833 -11.833 -47.5 -35.5s-14.5 -52.834 -14.5 -87.501
c0 -35.333 4.83301 -65.166 14.5 -89.499s25.5 -36.5 47.5 -36.5c21.333 0 37 11.833 47 35.5z" />
    <glyph glyph-name="ampersand" unicode="&#x26;" horiz-adv-x="623" 
d="M108.5 12c-28.333 17.333 -50.335 40.833 -66.002 70.5s-23.5 62.167 -23.5 97.5c0 48 13.333 89.333 40 124s61 66 103 94c-18.667 26 -34.667 55.333 -48 88s-20 65.334 -20 98.001c0 34.667 8.16699 64.834 24.5 90.501s38.5 45.5 66.5 59.5s59 21 93 21
c32.667 0 62.334 -6.33301 89.001 -19s47.667 -31 63 -55s23 -51.667 23 -83c0 -70.667 -43 -136.667 -129 -198l91 -141c8.66699 20 17.5 43.167 26.5 69.5s16.167 51.166 21.5 74.499l111 -35c-13.333 -62.667 -41.333 -128 -84 -196
c15.333 -15.333 31.5 -27.333 48.5 -36s37.167 -14.334 60.5 -17.001v-126c-36.667 0 -65.5 3 -86.5 9s-37.5 13.833 -49.5 23.5s-29.667 26.167 -53 49.5c-28.667 -26.667 -60.5 -48.167 -95.5 -64.5s-70.833 -24.5 -107.5 -24.5c-37.333 0 -70.166 8.66699 -98.499 26z
M302.498 517c20.333 26.667 30.5 54.3359 30.5 83.0029c0 17.333 -5.83301 31.166 -17.5 41.499s-24.5 15.5 -38.5 15.5s-26.667 -5.16699 -38 -15.5s-17 -24.5 -17 -42.5c0 -12.667 3.16699 -26.834 9.5 -42.501s15.833 -35.834 28.5 -60.501l11 -22
c0.666992 2 11.167 16.333 31.5 43zM295.498 126.002c17.667 7.33301 32.832 15.667 45.499 25l-125 164c-20 -12.667 -35.5 -29.5 -46.5 -50.5s-16.5 -42.167 -16.5 -63.5c0 -24.667 7.66699 -45.167 23 -61.5s37 -24.5 65 -24.5c18.667 0 36.834 3.66699 54.501 11z" />
    <glyph glyph-name="quotesingle" unicode="'" horiz-adv-x="220" 
d="M63 463l-23 287h141l-24 -281z" />
    <glyph glyph-name="parenleft" unicode="(" horiz-adv-x="333" 
d="M154.5 28.5c-41.667 38.333 -72.8311 87 -93.498 146s-31 122.167 -31 189.5c0 68 10.667 132 32 192s52.833 109 94.5 147s91.5 58 149.5 60v-89c-42.667 -8 -75.834 -42 -99.501 -102s-35.5 -129.333 -35.5 -208c0 -52 5.16699 -101.167 15.5 -147.5
s25.666 -84.166 45.999 -113.499s44.833 -45.333 73.5 -48v-92c-59.333 5.33301 -109.833 27.166 -151.5 65.499z" />
    <glyph glyph-name="parenright" unicode=")" horiz-adv-x="333" 
d="M27 55c28.667 2.66699 53.334 18.667 74.001 48s36.167 67.166 46.5 113.499s15.5 95.5 15.5 147.5c0 78 -12 147.167 -36 207.5s-57.333 94.5 -100 102.5v89c58 -2 107.833 -22 149.5 -60s73.167 -87 94.5 -147s32 -124 32 -192c0 -67.333 -10.333 -130.5 -31 -189.5
s-51.834 -107.667 -93.501 -146s-92.167 -60.166 -151.5 -65.499v92z" />
    <glyph glyph-name="asterisk" unicode="*" horiz-adv-x="513" 
d="M178 209l-111 82l128 126l-171 27l39 133l155 -74l-25 177h128l-25 -177l154 74l39 -133l-171 -27l128 -126l-111 -82l-78 156z" />
    <glyph glyph-name="plus" unicode="+" horiz-adv-x="417" 
d="M150 10v117h-117v116h117v117h117v-117h117v-116h-117v-117h-117z" />
    <glyph glyph-name="comma" unicode="," horiz-adv-x="238" 
d="M72 -47c19.333 0 32.999 8 40.999 24c2.66699 6 4.66699 13.667 6 23h-71v141h141v-141c0 -32 -5.5 -58 -16.5 -78s-25.167 -35 -42.5 -45s-36.666 -16 -57.999 -18v94z" />
    <glyph glyph-name="hyphen" unicode="-" horiz-adv-x="393" 
d="M56 234v117h281v-117h-281z" />
    <glyph glyph-name="period" unicode="." horiz-adv-x="239" 
d="M50 -6v147h140v-135z" />
    <glyph glyph-name="slash" unicode="/" horiz-adv-x="307" 
d="M31 0l98 750h147l-98 -750h-147z" />
    <glyph glyph-name="zero" unicode="0" horiz-adv-x="556" 
d="M97 100.5c-33.333 76.333 -50 168.501 -50 276.501c0 107.333 16.5 198.666 49.5 273.999s93.167 113 180.5 113s147.833 -37.667 181.5 -113s50.5 -166.333 50.5 -273c0 -108 -16.833 -200.333 -50.5 -277s-94.167 -115 -181.5 -115
c-86.667 0 -146.667 38.167 -180 114.5zM328.5 127.001c13 15.333 22.833 44.665 29.5 87.998s10 106 10 188c0 78.667 -5.83301 138.834 -17.5 180.501s-36.167 62.5 -73.5 62.5s-61.5 -20.167 -72.5 -60.5s-16.5 -97.166 -16.5 -170.499c0 -85.333 3 -150.333 9 -195
s15.333 -75.167 28 -91.5s30 -24.5 52 -24.5c21.333 0 38.5 7.66699 51.5 23z" />
    <glyph glyph-name="one" unicode="1" horiz-adv-x="454" 
d="M77 0v123h96v444l-103 -22v105l171 100h72v-627h98l-6 -123h-328z" />
    <glyph glyph-name="two" unicode="2" horiz-adv-x="521" 
d="M58 109c17.333 22.667 46 57.332 86 103.999c43.333 49.333 78.166 91.5 104.499 126.5s48.666 71.667 66.999 110s27.5 75.833 27.5 112.5c0 20.667 -6.5 39.834 -19.5 57.501s-32.167 26.5 -57.5 26.5s-47.666 -12.167 -66.999 -36.5s-31.666 -53.5 -36.999 -87.5
l-120 39c6.66699 36 20 69.5 40 100.5s46 55.833 78 74.5s68.333 28 109 28c42 0 79.333 -8.66699 112 -26s58.167 -41.5 76.5 -72.5s27.5 -66.167 27.5 -105.5c0 -72 -24.667 -144 -74 -216s-113 -145.667 -191 -221h259l-12 -123h-409v109z" />
    <glyph glyph-name="three" unicode="3" horiz-adv-x="521" 
d="M105 26.5c-41.333 27 -68.667 66.832 -82 119.499l107 47c11.333 -32 26.5 -54.833 45.5 -68.5s41.5 -20.5 67.5 -20.5c25.333 0 46.333 9.33301 63 28s25 46.334 25 83.001c0 47.333 -13.833 79.166 -41.5 95.499s-66.834 24.5 -117.501 24.5v98
c42.667 0 77.834 10.667 105.501 32s41.834 53 42.501 95v1c0 26.667 -8.33301 47.667 -25 63s-36.334 23 -59.001 23c-20 0 -38.667 -6.16699 -56 -18.5s-30.333 -30.166 -39 -53.499l-100 57c22 46 51 79.5 87 100.5s78.667 31.5 128 31.5
c35.333 0 68.666 -7.5 99.999 -22.5s56.833 -37 76.5 -66s29.5 -63.5 29.5 -103.5c0 -43.333 -10.667 -80.166 -32 -110.499s-52.666 -52.5 -93.999 -66.5c42 -13.333 75.167 -36.833 99.5 -70.5s36.5 -74.834 36.5 -123.501c0 -44.667 -10.333 -83.167 -31 -115.5
s-47.834 -57 -81.501 -74s-70.167 -25.5 -109.5 -25.5c-55.333 0 -103.666 13.5 -144.999 40.5z" />
    <glyph glyph-name="four" unicode="4" horiz-adv-x="521" 
d="M275 -6v194h-251v112l245 450h147v-450h94l-12 -112h-82v-182zM141 300h134v263z" />
    <glyph glyph-name="five" unicode="5" horiz-adv-x="521" 
d="M129.5 32.5c-42.333 31 -69.5039 74.834 -81.5039 131.501l113 42c4.66699 -26.667 16.834 -50.334 36.501 -71.001s43.5 -31 71.5 -31c28.667 0 51.334 13 68.001 39s25 56.333 25 91c0 35.333 -9 65.5 -27 90.5s-44.333 37.5 -79 37.5c-16 0 -31.333 -4 -46 -12
s-27.667 -20.333 -39 -37l-100 33l42 404h349l-12 -117h-227l-23 -175c35.333 13.333 69.333 20 102 20c36.667 0 69.834 -10.667 99.501 -32s53 -50 70 -86s25.5 -75 25.5 -117c0 -48.667 -9.66699 -92.5 -29 -131.5s-46.166 -69.667 -80.499 -92
s-72.833 -33.5 -115.5 -33.5c-52.667 0 -100.167 15.5 -142.5 46.5z" />
    <glyph glyph-name="six" unicode="6" horiz-adv-x="521" 
d="M100.5 99c-31 75.333 -46.498 160.333 -46.498 255c0 74.667 9 143.167 27 205.5s44.667 112 80 149s78 55.5 128 55.5c45.333 0 83.166 -16 113.499 -48s49.5 -76.667 57.5 -134l-109 -25c-0.666992 2.66699 -2.83398 12.5 -6.50098 29.5s-10.667 31.167 -21 42.5
s-23.166 17 -38.499 17c-58.667 0 -88 -76.333 -88 -229c16 12 34.167 21.5 54.5 28.5s40.5 10.5 60.5 10.5c33.333 0 62.833 -9.5 88.5 -28.5s45.334 -44.667 59.001 -77s20.5 -67.5 20.5 -105.5c0 -43.333 -8.83301 -84.833 -26.5 -124.5s-42.834 -72 -75.501 -97
s-70.334 -37.5 -113.001 -37.5c-78.667 0 -133.5 37.667 -164.5 113zM324.502 142c11.667 25.333 17.5 53.667 17.5 85s-6.33301 57.5 -19 78.5s-32.334 31.5 -59.001 31.5c-10 0 -20 -1.66699 -30 -5s-22 -9 -36 -17c-1.33301 -25.333 -2 -43.333 -2 -54
c0 -53.333 5.66699 -92.833 17 -118.5s29.333 -38.5 54 -38.5c26.667 0 45.834 12.667 57.501 38z" />
    <glyph glyph-name="seven" unicode="7" horiz-adv-x="521" 
d="M185 298c29.333 103.333 68.333 213.667 117 331h-244l11 121h405v-104c-58 -113.333 -103 -226.166 -135 -338.499s-48 -214.833 -48 -307.5h-162c8 95.333 26.667 194.666 56 297.999z" />
    <glyph glyph-name="eight" unicode="8" horiz-adv-x="521" 
d="M451 325c22.667 -30 34 -68.3359 34 -115.003c0 -44.667 -10.333 -84 -31 -118s-48.5 -60.167 -83.5 -78.5s-73.5 -27.5 -115.5 -27.5c-38 0 -73.667 7.5 -107 22.5s-60.333 37.333 -81 67s-31 65.834 -31 108.501c0 44.667 11.333 83.834 34 117.501s53 61.167 91 82.5
c-34.667 20.667 -60.5 45 -77.5 73s-25.5 61 -25.5 99c0 40.667 9.16699 76.834 27.5 108.501s43.166 56.167 74.499 73.5s66.333 26 105 26c34.667 0 66.834 -7.33301 96.501 -22s53.167 -35.5 70.5 -62.5s26 -58.167 26 -93.5c0 -37.333 -9.83301 -70.833 -29.5 -100.5
s-45.5 -54.5 -77.5 -74.5c44 -27.333 77.333 -56 100 -86zM210.5 626.997c-14.333 -12.667 -21.5 -30.334 -21.5 -53.001c0 -24 7.66699 -45.5 23 -64.5s33.333 -34.833 54 -47.5c48.667 30.667 73 67.334 73 110.001c0 22.667 -6.5 40.667 -19.5 54s-31.167 20 -54.5 20
c-22 0 -40.167 -6.33301 -54.5 -19zM321.5 123.997c15.667 13.333 23.5 35 23.5 65c0 61.333 -34.667 108 -104 140c-42.667 -32 -64 -75.333 -64 -130c0 -63.333 27.667 -95 83 -95c25.333 0 45.833 6.66699 61.5 20z" />
    <glyph glyph-name="nine" unicode="9" horiz-adv-x="521" 
d="M125.5 33.5c-30.333 31.667 -49.834 76.501 -58.501 134.501l110 26c4 -19.333 7.66699 -34.5 11 -45.5s9.5 -21.167 18.5 -30.5s21.5 -14 37.5 -14c33.333 0 55.833 20.167 67.5 60.5s18.167 93.5 19.5 159.5c-15.333 -11.333 -33.5 -20.5 -54.5 -27.5
s-40.833 -10.5 -59.5 -10.5c-34 0 -63.667 10.667 -89 32s-44.833 49.5 -58.5 84.5s-20.5 72.167 -20.5 111.5c0 45.333 8.83301 87 26.5 125s42.5 68.333 74.5 91s68.667 34 110 34c79.333 0 134.666 -38.333 165.999 -115s47 -163.667 47 -261
c0 -78.667 -9.5 -148.334 -28.5 -209.001s-46.167 -108 -81.5 -142s-76.666 -51 -123.999 -51c-45.333 0 -83.166 15.833 -113.499 47.5zM330.999 426.001c1.33301 12.667 2.00098 29.333 2.00098 50c0 49.333 -4.83301 90 -14.5 122s-28.5 48 -56.5 48
c-25.333 0 -43.833 -13.333 -55.5 -40s-17.5 -56 -17.5 -88s6.16699 -59 18.5 -81s32.166 -33 59.499 -33c20 0 41.333 7.33301 64 22z" />
    <glyph glyph-name="colon" unicode=":" horiz-adv-x="252" 
d="M56 281v141h140v-141h-140zM56 -6v147h140v-141z" />
    <glyph glyph-name="semicolon" unicode=";" horiz-adv-x="252" 
d="M56 281v141h141v-141h-141zM80 -47c19.333 0 32.999 7.99902 40.999 23.999c3.33301 6.66699 5 14.334 5 23.001l-70 -6v147h141v-141c0 -32 -5.66699 -58 -17 -78s-25.333 -35 -42 -45c-17.333 -10 -36.666 -16 -57.999 -18v94z" />
    <glyph glyph-name="less" unicode="&#x3c;" horiz-adv-x="477" 
d="M422 43l-395 171v130l396 176l-7 -128l-220 -96l233 -85z" />
    <glyph glyph-name="equal" unicode="=" horiz-adv-x="393" 
d="M56 328v116h281v-116h-281zM56 141v116h281v-116h-281z" />
    <glyph glyph-name="greater" unicode="&#x3e;" horiz-adv-x="477" 
d="M55 43l-7 168l233 85l-220 96l-7 128l395 -176v-130z" />
    <glyph glyph-name="question" unicode="?" horiz-adv-x="432" 
d="M93 236c0 36.667 4.50098 66.3281 13.501 88.9951s19.833 39.834 32.5 51.501s29.334 23.834 50.001 36.501c18 11.333 32 21.333 42 30s18.5 20.834 25.5 36.501s10.5 35.834 10.5 60.501c0 69.333 -19 104 -57 104c-18.667 0 -31.167 -8.83301 -37.5 -26.5
s-11.166 -41.167 -14.499 -70.5l-134 6c1.33301 39.333 10.166 74.333 26.499 105s38.666 54.5 66.999 71.5s60.5 25.5 96.5 25.5c42.667 0 78.667 -10.5 108 -31.5s51 -48.333 65 -82s21 -69.167 21 -106.5c0 -38.667 -4.83301 -70.334 -14.5 -95.001
s-21.5 -43.667 -35.5 -57s-32.667 -27.666 -56 -42.999c-20.667 -13.333 -36.834 -25.166 -48.501 -35.499s-21.5 -24.5 -29.5 -42.5s-12 -41 -12 -69v-5h-117c-1.33301 11.333 -2 27.333 -2 48zM83.001 -6.00586v147h141v-141z" />
    <glyph glyph-name="at" unicode="@" horiz-adv-x="771" 
d="M179 31.5c-50.667 31.667 -88.667 73.3311 -114 124.998s-38 107.5 -38 167.5c0 64.667 14.833 126.5 44.5 185.5s72.5 107 128.5 144s121.333 55.5 196 55.5c61.333 0 118.5 -12.667 171.5 -38s95.833 -62.833 128.5 -112.5s49 -109.5 49 -179.5
c0 -64.667 -13.833 -115.667 -41.5 -153s-65.5 -56 -113.5 -56c-30.667 0 -53.667 7.16699 -69 21.5s-27.333 33.5 -36 57.5c-32.667 -60.667 -74.667 -91 -126 -91c-24 0 -46.333 7 -67 21s-37.5 34.833 -50.5 62.5s-19.5 61.5 -19.5 101.5s6.5 73.333 19.5 100
s29.833 46.334 50.5 59.001s42.667 19 66 19c22.667 0 43.834 -5.5 63.501 -16.5s34.5 -26.167 44.5 -45.5l17 54h77v-229c0 -20 2.83301 -34.167 8.5 -42.5s14.167 -12.5 25.5 -12.5c23.333 0 38.833 13.167 46.5 39.5s11.5 55.833 11.5 88.5
c0 62.667 -15.667 121.167 -47 175.5s-94.666 81.5 -189.999 81.5c-62.667 0 -114.834 -13.667 -156.501 -41s-72.5 -62.666 -92.5 -105.999s-30 -89.333 -30 -138c0 -46 8.66699 -88.333 26 -127s44 -69.667 80 -93s80 -35 132 -35c62.667 0 134 20 214 60l36 -73
c-50 -27.333 -95.833 -47 -137.5 -59s-82.834 -18 -123.501 -18c-72 0 -133.333 15.833 -184 47.5zM425.5 264.497c10.333 9.66699 18.8311 23.167 25.498 40.5v107c-21.333 22 -40.666 33 -57.999 33s-31.166 -9.5 -41.499 -28.5s-15.5 -43.167 -15.5 -72.5
c0 -30.667 5.33301 -54 16 -70s24 -24 40 -24c12 0 23.167 4.83301 33.5 14.5z" />
    <glyph glyph-name="A" unicode="A" horiz-adv-x="552" 
d="M12 0l158 741l209 9l162 -744l-160 -6l-27 161h-179l-32 -161h-131zM202 281h125l-69 359z" />
    <glyph glyph-name="B" unicode="B" horiz-adv-x="551" 
d="M70 750l167.999 0.000976562c90.667 0 156.667 -17.667 198 -53s62 -82 62 -140c0 -36.667 -7.16699 -69 -21.5 -97s-34.166 -48.333 -59.499 -61c32 -16.667 57.333 -38.834 76 -66.501s28 -68.5 28 -122.5c0 -140 -110.333 -210 -331 -210h-120v750zM246.999 445.001
c38.667 0 67.5 6.33301 86.5 19s28.5 38.667 28.5 78c0 34.667 -10.833 58.5 -32.5 71.5s-51.167 19.5 -88.5 19.5h-29v-188h35zM243.999 117.001c48 0 82.667 11.834 104 35.501s32 49.5 32 77.5c0 43.333 -11.5 72.166 -34.5 86.499s-55.167 21.5 -96.5 21.5h-32v-221h27z
" />
    <glyph glyph-name="C" unicode="C" horiz-adv-x="522" 
d="M92.5 103c-35 78 -52.5 174 -52.5 288c0 61.333 8 120.333 24 177s41.833 103.5 77.5 140.5s80.834 55.5 135.501 55.5c42 0 78.833 -13 110.5 -39s56 -59.833 73 -101.5s25.5 -85.167 25.5 -130.5l-142 -7c0 30 -5 64.167 -15 102.5s-30 57.5 -60 57.5
c-31.333 0 -53 -25 -65 -75s-18 -110 -18 -180c0 -86.667 6.66699 -156.167 20 -208.5s39 -78.5 77 -78.5c26.667 0 45.667 15.833 57 47.5s18.666 70.167 21.999 115.5l125 -12c0 -48 -8 -92.5 -24 -133.5s-40 -73.833 -72 -98.5s-71 -37 -117 -37
c-86 0 -146.5 39 -181.5 117z" />
    <glyph glyph-name="D" unicode="D" horiz-adv-x="554" 
d="M70 750l153.999 0.000976562c98.667 0 172.334 -31.333 221.001 -94s73 -157.334 73 -284.001c0 -67.333 -9.16699 -129 -27.5 -185s-47.5 -101.167 -87.5 -135.5s-91 -51.5 -153 -51.5h-180v750zM236.999 117.001c50.667 0 85.833 21.833 105.5 65.5
s29.5 97.5 29.5 161.5v34c0 46 -2.83301 86.833 -8.5 122.5s-18.667 66.667 -39 93s-50.833 39.5 -91.5 39.5h-17v-516h21z" />
    <glyph glyph-name="E" unicode="E" horiz-adv-x="483" 
d="M70 0v750h381l-12 -117h-222v-179h158l-1 -126h-157v-211h242l-12 -117h-377z" />
    <glyph glyph-name="F" unicode="F" horiz-adv-x="460" 
d="M70 -6v756h381l-12 -118h-222v-196h157v-124h-157v-306z" />
    <glyph glyph-name="G" unicode="G" horiz-adv-x="553" 
d="M91.5 97c-34.333 74 -51.499 167.668 -51.499 281.001c0 63.333 8.16699 124.333 24.5 183s42.666 107.167 78.999 145.5s82.833 57.5 139.5 57.5c48.667 0 89.167 -11.833 121.5 -35.5s56.333 -55 72 -94s23.5 -82.167 23.5 -129.5l-139 -9l-3 21
c-4 39.333 -11 70.666 -21 93.999s-28.667 35 -56 35c-34.667 0 -59.167 -27.833 -73.5 -83.5s-21.5 -119.834 -21.5 -192.501c0 -51.333 1.66699 -95 5 -131s12 -67.5 26 -94.5s35.667 -40.5 65 -40.5c24.667 0 44.167 15.333 58.5 46s21.5 68.334 21.5 113.001h-74l12 112
h203v-369l-56 -6l-34 139c-6 -26 -13.5 -49.333 -22.5 -70s-24.5 -39.667 -46.5 -57s-52 -26 -90 -26c-74 0 -128.167 37 -162.5 111z" />
    <glyph glyph-name="H" unicode="H" horiz-adv-x="574" 
d="M70 -6v744l147 12v-304h140v292l147 12v-744l-147 -12v318h-140v-306z" />
    <glyph glyph-name="I" unicode="I" horiz-adv-x="287" 
d="M70 -6v744l147 12v-744z" />
    <glyph glyph-name="J" unicode="J" horiz-adv-x="333" 
d="M27 1v99c14 -4.66699 27 -7 39 -7c24 0 39.167 9 45.5 27s9.5 44.667 9.5 80v538l146 12v-562c0 -64.667 -11.167 -114.5 -33.5 -149.5s-59.833 -52.5 -112.5 -52.5c-26.667 0 -58 5 -94 15z" />
    <glyph glyph-name="K" unicode="K" horiz-adv-x="563" 
d="M404 -13l-130 349l-57 -99v-237h-147v738l147 12v-328l178 328h156l-161 -310l163 -419z" />
    <glyph glyph-name="L" unicode="L" horiz-adv-x="469" 
d="M70 0v738l146 12v-633h246l-15 -117h-377z" />
    <glyph glyph-name="M" unicode="M" horiz-adv-x="794" 
d="M572 -6v563l-140 -557h-90l-151 559v-553l-121 -6v743l215 6l124 -464l119 447l196 12v-738z" />
    <glyph glyph-name="N" unicode="N" horiz-adv-x="611" 
d="M420 -6l-219 469v-457l-131 -6v744l153 6l194 -446v434l124 12v-744z" />
    <glyph glyph-name="O" unicode="O" horiz-adv-x="549" 
d="M93.5 95.5c-34.333 73 -51.5 167.5 -51.5 283.5c0 123.333 18.333 218.333 55 285s95.667 100 177 100c155.333 0 233 -127 233 -381c0 -114 -17.5 -208.667 -52.5 -284s-95.833 -113 -182.5 -113c-84.667 0 -144.167 36.5 -178.5 109.5zM344 173.5
c11.333 46.333 17.001 116.499 17.001 210.499c0 75.333 -5.5 137.833 -16.5 187.5s-34.5 74.5 -70.5 74.5s-59.333 -24.667 -70 -74s-16 -111.666 -16 -186.999c0 -94.667 5.5 -165.167 16.5 -211.5s34.167 -69.5 69.5 -69.5s58.666 23.167 69.999 69.5z" />
    <glyph glyph-name="P" unicode="P" horiz-adv-x="533" 
d="M70 750h93.999c75.333 0 135.333 -3.16699 180 -9.5s84.167 -25.833 118.5 -58.5s51.5 -85 51.5 -157c0 -65.333 -14.5 -114.833 -43.5 -148.5s-64.667 -55.667 -107 -66s-91.166 -15.5 -146.499 -15.5v-289l-147 -12v756zM242.999 414c38.667 0 69.168 8 91.501 24
s33.5 45.333 33.5 88c0 42 -10.333 70.333 -31 85s-53.334 22 -98.001 22h-21v-219h25z" />
    <glyph glyph-name="Q" unicode="Q" horiz-adv-x="549" 
d="M479 159c-18.667 -65.333 -50.667 -112.667 -96 -142l91 -135l-90 -59l-116 163c-150.667 2.66699 -226 133.667 -226 393c0 123.333 18.333 218.333 55 285s95.667 100 177 100c155.333 0 233 -127 233 -381c0 -84 -9.33301 -158.667 -28 -224zM204.5 173.499
c11 -46.333 34.168 -69.501 69.501 -69.501s58.666 23.167 69.999 69.5s17 116.5 17 210.5c0 75.333 -5.5 137.833 -16.5 187.5s-34.5 74.5 -70.5 74.5s-59.333 -24.667 -70 -74s-16 -111.666 -16 -186.999c0 -94.667 5.5 -165.167 16.5 -211.5z" />
    <glyph glyph-name="R" unicode="R" horiz-adv-x="565" 
d="M273 329h-57v-323l-146 -12v750l178 6c86 0 153.333 -17.167 202 -51.5s73 -86.833 73 -157.5c0 -46.667 -9.16699 -85 -27.5 -115s-44.833 -55 -79.5 -75l67 -163l68 -162l-144 -39zM266 437c34.667 0 61.833 7.16699 81.5 21.5s29.5 41.5 29.5 81.5
c0 62 -30.667 93 -92 93h-69v-196h50z" />
    <glyph glyph-name="S" unicode="S" horiz-adv-x="533" 
d="M114.5 36.5c-41.667 33.667 -72.166 78.833 -91.499 135.5l124 58l12 -20c19.333 -33.333 37.833 -59.333 55.5 -78s39.834 -28 66.501 -28c17.333 0 32.833 8.33301 46.5 25s20.5 35 20.5 55c0 18.667 -4.66699 35.667 -14 51s-21.333 27.666 -36 36.999l-131 78
c-38 21.333 -68.333 48.333 -91 81s-34 69.334 -34 110.001c0 43.333 10.167 82 30.5 116s48 60.333 83 79s74.5 28 118.5 28c51.333 0 95 -12.667 131 -38s62.667 -63 80 -113l-124 -56c-2.66699 5.33301 -8.33398 17.333 -17.001 36s-19.167 32.167 -31.5 40.5
s-27.5 12.5 -45.5 12.5c-22 0 -38.833 -7 -50.5 -21s-17.5 -32 -17.5 -54c0 -16 4.5 -30.5 13.5 -43.5s19.833 -23.167 32.5 -30.5l121 -71c89.333 -50.667 136.333 -117.334 141 -200.001c0 -47.333 -10.5 -89.166 -31.5 -125.499s-49.667 -64.5 -86 -84.5
s-76.833 -30 -121.5 -30c-60.667 0 -111.834 16.833 -153.501 50.5z" />
    <glyph glyph-name="T" unicode="T" horiz-adv-x="477" 
d="M167 -6v639h-153l11 117h440l-12 -117h-140v-627z" />
    <glyph glyph-name="U" unicode="U" horiz-adv-x="568" 
d="M120 58c-37.333 48 -56 111 -56 189v497l147 6v-515c0 -26 1.5 -48 4.5 -66s10.5 -33.333 22.5 -46s30.333 -19 55 -19c23.333 0 40.5 6.5 51.5 19.5s17.833 28.333 20.5 46s4 40.167 4 67.5v501l134 12v-486c0 -70.667 -13.833 -134.667 -41.5 -192
s-85.5 -86 -173.5 -86c-74.667 0 -130.667 24 -168 72z" />
    <glyph glyph-name="V" unicode="V" horiz-adv-x="533" 
d="M185 0l-177 744l174 6l99 -518l104 512l141 6l-180 -750h-161z" />
    <glyph glyph-name="W" unicode="W" horiz-adv-x="774" 
d="M166 0l-153 744l160 6l79 -449l85 443l120 6l79 -454l95 448l135 6l-161 -750h-145l-79 458l-81 -458h-134z" />
    <glyph glyph-name="X" unicode="X" horiz-adv-x="520" 
d="M0 0l187 381l-179 369h175l87 -195l90 195h140l-169 -341l194 -409h-174l-106 235l-106 -235h-139z" />
    <glyph glyph-name="Y" unicode="Y" horiz-adv-x="501" 
d="M179 -6v303l-180 453h161l103 -312l111 312h126l-173 -436v-308z" />
    <glyph glyph-name="Z" unicode="Z" horiz-adv-x="472" 
d="M30 0v93l241 540h-218l12 117h376v-97l-235 -536h242l-23 -117h-395z" />
    <glyph glyph-name="bracketleft" unicode="[" horiz-adv-x="338" 
d="M69 -47v844h240v-94h-94v-657h94v-93h-240z" />
    <glyph glyph-name="backslash" unicode="\" horiz-adv-x="307" 
d="M129 0l-98 750h146l98 -750h-146z" />
    <glyph glyph-name="bracketright" unicode="]" horiz-adv-x="338" 
d="M29 -47v93h94v657h-94v94h241v-844h-241z" />
    <glyph glyph-name="asciicircum" unicode="^" horiz-adv-x="458" 
d="M32 405l134 298h129l131 -298h-150l-51 141l-58 -141h-135z" />
    <glyph glyph-name="underscore" unicode="_" horiz-adv-x="271" 
d="M-5 -116v116h281v-116h-281z" />
    <glyph glyph-name="grave" unicode="`" horiz-adv-x="299" 
d="M210 605l-181 152l103 95l130 -197z" />
    <glyph glyph-name="a" unicode="a" horiz-adv-x="471" 
d="M88 9.5c-19.333 15 -34.332 35.3311 -44.999 60.998s-16 54.5 -16 86.5c0 72.667 24.833 123.834 74.5 153.501s107.5 46.5 173.5 50.5c0 36 -2.33301 62.667 -7 80s-16 26 -34 26c-15.333 0 -27 -6 -35 -18s-13 -27.333 -15 -46l-137 24
c6.66699 51.333 27.667 88 63 110s76.666 33 123.999 33c60.667 0 106.167 -16 136.5 -48s45.5 -73.667 45.5 -125v-291c0 -31.333 5 -64.666 15 -99.999l-137 -12l-16 69c-12 -21.333 -29.667 -39.333 -53 -54s-47.333 -22 -72 -22c-24 0 -45.667 7.5 -65 22.5z
M246.501 94.998c7.66699 5.33301 17.167 14 28.5 26v156c-33.333 0 -60 -9 -80 -27s-30 -46 -30 -84c0 -25.333 4.5 -44.833 13.5 -58.5s22.167 -20.5 39.5 -20.5c11.333 0 20.833 2.66699 28.5 8z" />
    <glyph glyph-name="b" unicode="b" horiz-adv-x="518" 
d="M239 9.5c-18 15 -30.667 35.167 -38 60.5l-34 -76l-106 12v726l140 18v-259c16.667 24 37.667 43.167 63 57.5s52 21.5 80 21.5c43.333 0 77.333 -22.833 102 -68.5s37 -119.167 37 -220.5c0 -196 -53.667 -294 -161 -294c-37.333 0 -65 7.5 -83 22.5zM329.5 136
c9 32.667 13.5 80.998 13.5 144.998c0 44.667 -1.83301 78.834 -5.5 102.501s-10 40.667 -19 51s-22.167 15.5 -39.5 15.5c-12 0 -26 -4.33301 -42 -13s-28 -17 -36 -25v-178c0 -53.333 6.5 -91.166 19.5 -113.499s29.5 -33.5 49.5 -33.5c30.667 0 50.5 16.333 59.5 49z" />
    <glyph glyph-name="c" unicode="c" horiz-adv-x="445" 
d="M125.5 27c-30.333 26.667 -53.168 61.9971 -68.501 105.997s-23 91.667 -23 143c0 50.667 7.5 98.334 22.5 143.001s37.833 81 68.5 109s68.334 42 113.001 42c34 0 64.5 -8.5 91.5 -25.5s48.167 -40.833 63.5 -71.5s23.666 -65.667 24.999 -105l-133 -6
c0 2.66699 -1.16699 13.334 -3.5 32.001s-7.33301 34 -15 46s-17.5 18 -29.5 18c-26.667 0 -43.667 -18.167 -51 -54.5s-11 -77.166 -11 -122.499c0 -44.667 3.83301 -85.167 11.5 -121.5s25.834 -54.5 54.501 -54.5c36 0 54.667 35.333 56 106l118 -13
c-8.66699 -69.333 -26 -121.833 -52 -157.5s-68.667 -53.5 -128 -53.5c-42.667 0 -79.167 13.333 -109.5 40z" />
    <glyph glyph-name="d" unicode="d" horiz-adv-x="518" 
d="M36 281c0 102 13.332 175.667 39.999 221s68.334 68 125.001 68c24 0 47 -7.83301 69 -23.5s38 -35.167 48 -58.5v244l141 18v-744l-106 -12l-35 76c-6.66699 -24.667 -19 -44.667 -37 -60s-45.667 -23 -83 -23c-108 0 -162 98 -162 294zM298.999 120.5
c12.667 22.333 19 60.1689 19 113.502v188c-19.333 30 -42 45 -68 45c-22 0 -38.167 -7.83301 -48.5 -23.5s-17 -36.167 -20 -61.5s-4.5 -59 -4.5 -101c0 -42.667 1.5 -77.334 4.5 -104.001s9.83301 -48.334 20.5 -65.001s26.667 -25 48 -25c20 0 36.333 11.167 49 33.5z
" />
    <glyph glyph-name="e" unicode="e" horiz-adv-x="471" 
d="M87 66.5c-35.333 53 -53 123.499 -53 211.499c0 89.333 18 160.333 54 213s88.333 79 157 79c65.333 0 115.333 -26.333 150 -79s52 -123.667 52 -213c0 -5.33301 -1 -9.16602 -3 -11.499s-3 -3.83301 -3 -4.5h-267c0 -43.333 5.66699 -82.833 17 -118.5
s28.666 -53.5 51.999 -53.5c26 0 45.333 15 58 45s19.334 45.667 20.001 47l106 -40c-14 -48 -36.333 -85.833 -67 -113.5s-70.667 -41.5 -120 -41.5c-66.667 0 -117.667 26.5 -153 79.5zM309 342.999c0 40 -5.33105 71.667 -15.998 95s-27.334 35 -50.001 35
c-11.333 0 -22.333 -5.66699 -33 -17s-19.334 -27 -26.001 -47s-10 -42 -10 -66h135z" />
    <glyph glyph-name="f" unicode="f" horiz-adv-x="338" 
d="M88 457l-69 0.000976562l5 106h64v10c0 39.333 2.5 71.166 7.5 95.499s17.667 44.833 38 61.5s51.833 25 94.5 25c40.667 0 72.334 -5 95.001 -15v-84h-31c-26.667 0 -43.834 -7.33301 -51.501 -22s-11.5 -35 -11.5 -61v-10h99l-6 -106h-93v-451l-141 -12v463z" />
    <glyph glyph-name="g" unicode="g" horiz-adv-x="532" 
d="M78 -143.5c-41.333 21 -61.999 49.8359 -61.999 86.5029c0 25.333 9.33301 46.833 28 64.5s42.334 31.834 71.001 42.501c-25.333 7.33301 -44.333 16.666 -57 27.999s-19 27.666 -19 48.999c0 26 9 49.5 27 70.5s41.667 38.5 71 52.5c-60 34.667 -90 83 -90 145
c0 37.333 10.167 69.166 30.5 95.499s46.666 46.166 78.999 59.499s66.166 20 101.499 20c52.667 0 99.334 -14 140.001 -42c20 18 40.167 33 60.5 45s45.833 18 76.5 18v-93c-38.667 0 -68.334 -4.66699 -89.001 -14c8 -20.667 13.5 -37 16.5 -49s4.5 -25 4.5 -39
c0 -45.333 -15.333 -84.833 -46 -118.5s-80.667 -50.5 -150 -50.5l-37 1c-6 0.666992 -13.333 1 -22 1c-8.66699 -2.66699 -17 -8.5 -25 -17.5s-12 -18.5 -12 -28.5c0 -9.33301 3.33301 -17.333 10 -24s15 -10.667 25 -12l160 -18c92.667 -10.667 139 -55.667 139 -135
c0 -62 -23.833 -105.667 -71.5 -131s-109.5 -38 -185.5 -38c-74.667 0 -132.667 10.5 -174 31.5zM304.001 330.503c11.333 15.667 17 37.834 17 66.501c0 29.333 -6 51.333 -18 66s-27.333 22 -46 22c-20.667 0 -37 -8.33301 -49 -25s-18 -37.334 -18 -62.001
c0 -22.667 5 -43.5 15 -62.5s27 -28.5 51 -28.5c20.667 0 36.667 7.83301 48 23.5zM372.001 -10.9971c0 11.333 -3 19.668 -9 25.001s-15.5 9.16602 -28.5 11.499s-34.167 4.5 -63.5 6.5l-83 7c-12 -4 -22.333 -11.167 -31 -21.5s-13 -21.833 -13 -34.5
c0 -18 9.5 -31.833 28.5 -41.5s47.5 -14.5 85.5 -14.5c76 0 114 20.667 114 62z" />
    <glyph glyph-name="h" unicode="h" horiz-adv-x="539" 
d="M61 732l140.001 18v-259c57.333 52.667 111 79 161 79c35.333 0 64.166 -12.833 86.499 -38.5s33.5 -60.167 33.5 -103.5v-422l-140 -12v383c0 24.667 -4.5 43 -13.5 55s-20.833 18 -35.5 18c-12 0 -24.667 -3 -38 -9s-31.333 -15.667 -54 -29v-406l-140 -12v738z" />
    <glyph glyph-name="i" unicode="i" horiz-adv-x="263" 
d="M62 635v145l140 10v-149zM61 -6v557l140 12v-557z" />
    <glyph glyph-name="j" unicode="j" horiz-adv-x="265" 
d="M66 635v145l141 10v-149zM-12 -131l-0.000976562 83.998c24 0 41.5 2.33301 52.5 7s18 11.834 21 21.501s4.5 24.5 4.5 44.5v525l141 12v-537c0 -44 -2 -76.667 -6 -98s-14.833 -38.166 -32.5 -50.499s-46.5 -18.5 -86.5 -18.5c-27.333 0 -58.666 3.33301 -93.999 10z
" />
    <glyph glyph-name="k" unicode="k" horiz-adv-x="500" 
d="M361 -13l-114 280l-46 -61v-206h-140v732l140 18v-372l143 185h152l-158 -203l147 -331z" />
    <glyph glyph-name="l" unicode="l" horiz-adv-x="263" 
d="M62 -6v738l140 18v-744z" />
    <glyph glyph-name="m" unicode="m" horiz-adv-x="737" 
d="M61 551l137.001 12v-72c20.667 24 44.5 43.167 71.5 57.5s53.833 21.5 80.5 21.5c42 0 69.667 -29.333 83 -88c44 58.667 93.333 88 148 88c36 0 61.667 -14.333 77 -43s23 -71.334 23 -128.001v-393l-138 -12v398c0 18 -3.33301 32.167 -10 42.5
s-14.334 15.5 -23.001 15.5c-14 0 -27.167 -3.83301 -39.5 -11.5s-22.833 -17.167 -31.5 -28.5v-404l-137 -12v399c0 18.667 -2.83301 32.834 -8.5 42.501s-12.167 14.5 -19.5 14.5c-13.333 0 -27 -4 -41 -12s-25.667 -17.333 -35 -28v-404l-137 -12v557z" />
    <glyph glyph-name="n" unicode="n" horiz-adv-x="539" 
d="M61 551l140 12.001v-72c28.667 25.333 56.834 44.833 84.501 58.5s53.167 20.5 76.5 20.5c35.333 0 64.166 -12.833 86.499 -38.5s33.5 -60.167 33.5 -103.5v-422l-140 -12v381c0 50 -17 75 -51 75c-11.333 0 -23.833 -3.33301 -37.5 -10s-31.167 -16.334 -52.5 -29.001
v-405l-140 -12v557z" />
    <glyph glyph-name="o" unicode="o" horiz-adv-x="490" 
d="M88.5 67c-36.333 53.333 -54.501 124.333 -54.501 213c0 88 18 158.333 54 211s88 79 156 79c67.333 0 119.5 -26.333 156.5 -79s55.5 -123 55.5 -211s-18.5 -158.833 -55.5 -212.5s-89.167 -80.5 -156.5 -80.5s-119.166 26.667 -155.499 80zM301.999 146
c8.66699 36.667 13 81.666 13 134.999s-4.33301 98.333 -13 135s-28 55 -58 55s-49 -17.333 -57 -52s-12 -77 -12 -127c0 -61.333 4 -110.166 12 -146.499s27 -54.5 57 -54.5s49.333 18.333 58 55z" />
    <glyph glyph-name="p" unicode="p" horiz-adv-x="505" 
d="M61 551l140.001 12v-55c22 22 42.5 37.833 61.5 47.5s41.167 14.5 66.5 14.5c34.667 0 62.167 -9.66699 82.5 -29s35 -49.5 44 -90.5s13.5 -95.833 13.5 -164.5c0 -94 -10.833 -167.333 -32.5 -220s-63.167 -79 -124.5 -79c-28 0 -50.333 5.33301 -67 16
s-31.334 25.667 -44.001 45v-195l-140 -28v726zM311.501 133c11 26 16.501 74.999 16.501 146.999c0 68.667 -5.5 117.334 -16.5 146.001s-27.833 43 -50.5 43c-23.333 0 -43.333 -13 -60 -39v-291c13.333 -30 33.666 -45 60.999 -45c22 0 38.5 13 49.5 39z" />
    <glyph glyph-name="q" unicode="q" horiz-adv-x="495" 
d="M294 48c-12 -18.667 -26.667 -33.499 -44 -44.499s-39 -16.5 -65 -16.5c-44 0 -77 15.5 -99 46.5s-35.833 66.667 -41.5 107s-8.5 84.166 -8.5 131.499c0 54 3 102 9 144s20 78.167 42 108.5s55 45.5 99 45.5c24.667 0 45.667 -5.5 63 -16.5s32.333 -26.167 45 -45.5
l5 43l136 12v-720l-141 -18v223zM270.5 107.001c9.66699 8.66699 17.5 19.332 23.5 31.999v291c-7.33301 12.667 -15 22.334 -23 29.001s-17.667 10 -29 10c-22 0 -38.333 -14.667 -49 -44s-16 -79.333 -16 -150c0 -70 4.83301 -117.667 14.5 -143s24.167 -38 43.5 -38
c14 0 25.833 4.33301 35.5 13z" />
    <glyph glyph-name="r" unicode="r" horiz-adv-x="404" 
d="M61 551l140 11.999v-91c20 28.667 44.833 51.834 74.5 69.501s67.5 26.5 113.5 26.5v-137c-24 0 -55.5 -4.16699 -94.5 -12.5s-70.167 -22.833 -93.5 -43.5v-369l-140 -12v557z" />
    <glyph glyph-name="s" unicode="s" horiz-adv-x="451" 
d="M95 24.5c-34 25 -55.9971 59.835 -65.9971 104.502l109 36c2.66699 -12.667 7.66699 -24 15 -34c15.333 -22 37.666 -33 66.999 -33c16.667 0 32.667 3.66699 48 11s23 18.666 23 33.999c0 20.667 -14.333 36.667 -43 48l-118 48c-31.333 13.333 -55.333 33.333 -72 60
s-25 59.334 -25 98.001c0 36 8.83301 67 26.5 93s41 45.833 70 59.5s60.167 20.5 93.5 20.5c42 0 80.667 -12.167 116 -36.5s59 -57.5 71 -99.5l-116 -36c-2.66699 11.333 -7.33398 22.666 -14.001 33.999c-14.667 22.667 -33.334 34 -56.001 34
c-16.667 0 -31 -3.83301 -43 -11.5s-18 -18.834 -18 -33.501c0 -17.333 16.333 -33.333 49 -48l100 -41c35.333 -16.667 63 -37.667 83 -63s30 -59.333 30 -102c0 -38.667 -9.33301 -71.5 -28 -98.5s-43 -47.333 -73 -61s-61.667 -20.5 -95 -20.5
c-55.333 0 -100 12.5 -134 37.5z" />
    <glyph glyph-name="t" unicode="t" horiz-adv-x="360" 
d="M138 23.5c-31.333 23 -47.001 63.833 -47.001 122.5v311h-78l6 106h76l14 122l122 17v-139h116l-6 -106h-109v-310c0 -20 5 -34.333 15 -43s24.667 -13 44 -13c10.667 0 28.667 2 54 6v-97c-2.66699 -0.666992 -13.167 -2.66699 -31.5 -6s-38.5 -5 -60.5 -5
c-45.333 0 -83.666 11.5 -114.999 34.5z" />
    <glyph glyph-name="u" unicode="u" horiz-adv-x="539" 
d="M92 25.5c-23.333 25.667 -35 60.168 -35 103.501v422l140 12v-377c0 -26.667 4.33301 -45.834 13 -57.501s22 -17.5 40 -17.5c14 0 29 3.5 45 10.5s30.333 18.167 43 33.5v396l141 12v-557l-141 -12v72c-23.333 -26.667 -48.833 -46.5 -76.5 -59.5
s-54.167 -19.5 -79.5 -19.5c-36.667 0 -66.667 12.833 -90 38.5z" />
    <glyph glyph-name="v" unicode="v" horiz-adv-x="455" 
d="M161 0l-157 551l168 12l71 -360l81 342l127 12l-161 -557h-129z" />
    <glyph glyph-name="w" unicode="w" horiz-adv-x="642" 
d="M133 0l-115 552l143 11l48 -319l71 307l117 12l61 -315l61 303l114 6l-129 -557h-113l-64 365l-79 -365h-115z" />
    <glyph glyph-name="x" unicode="x" horiz-adv-x="459" 
d="M308 -6l-83 172l-86 -166h-134l152 283l-147 280h154l67 -138l72 138h133l-136 -253l162 -304z" />
    <glyph glyph-name="y" unicode="y" horiz-adv-x="440" 
d="M15 -172l-0.00195312 117c24.667 -1.33301 44.334 -2 59.001 -2c58.667 0 88 27.333 88 82v28l-161 503l152 7l79 -353l75 350l127 1l-144 -551c-20 -72 -49.167 -121.333 -87.5 -148s-81.166 -40 -128.499 -40c-16 0 -35.667 2 -59 6z" />
    <glyph glyph-name="z" unicode="z" horiz-adv-x="425" 
d="M44 0v88l189 365h-181l12 110h325v-84l-186 -368h201l-12 -111h-348z" />
    <glyph glyph-name="braceleft" unicode="{" horiz-adv-x="329" 
d="M161 -7c-34 23.333 -57.833 57.332 -71.5 101.999s-20.5 102.667 -20.5 174c0 22 -2.66699 39 -8 51s-18.333 18 -39 18v93c20.667 0 33.667 6 39 18s8 29 8 51c0 67.333 6.83301 122.5 20.5 165.5s37.5 75.667 71.5 98s81.333 33.5 142 33.5v-79
c-30 0 -51.667 -7.66699 -65 -23s-21.5 -36.666 -24.5 -63.999s-4.5 -71 -4.5 -131c0 -18 -1.5 -33 -4.5 -45s-11.333 -24.333 -25 -37s-34.834 -24 -63.501 -34c28.667 -9.33301 49.834 -20.333 63.501 -33s22 -25 25 -37s4.5 -27 4.5 -45c0 -64 1.5 -110.667 4.5 -140
s11.167 -52 24.5 -68s35 -24 65 -24v-79c-60.667 0 -108 11.667 -142 35z" />
    <glyph glyph-name="bar" unicode="|" horiz-adv-x="284" 
d="M69 -47v844h146v-844h-146z" />
    <glyph glyph-name="braceright" unicode="}" horiz-adv-x="329" 
d="M268 449c5.33301 -12 18.333 -17.9971 39 -17.9971v-93c-20.667 0 -33.667 -6 -39 -18s-8 -29 -8 -51c0 -71.333 -6.83301 -129.333 -20.5 -174s-37.5 -78.667 -71.5 -102s-81.667 -35 -143 -35v79c30 0 51.667 8 65 24s21.5 38.667 24.5 68s4.5 76 4.5 140
c0 18 1.66699 33.167 5 45.5s11.666 24.666 24.999 36.999s34 23.166 62 32.499c-28 10 -48.667 21.333 -62 34s-21.666 25 -24.999 37s-5 27 -5 45c0 60 -1.5 103.667 -4.5 131s-11.167 48.666 -24.5 63.999s-35 23 -65 23v79c61.333 0 109 -11.167 143 -33.5
s57.833 -55 71.5 -98s20.5 -98.167 20.5 -165.5c0 -22 2.66699 -39 8 -51z" />
    <glyph glyph-name="asciitilde" unicode="~" horiz-adv-x="398" 
d="M235.5 377.5c-9 5 -19.502 12.166 -31.502 21.499c-12.667 10 -23.667 17.5 -33 22.5s-19.666 7.5 -30.999 7.5c-29.333 0 -61 -18 -95 -54v80c38.667 46 74 69 106 69c10.667 0 20 -2.16699 28 -6.5s18.333 -10.833 31 -19.5
c12.667 -9.33301 23.334 -16.166 32.001 -20.499s18.667 -6.5 30 -6.5c17.333 0 33.833 5.33301 49.5 16s27.167 23 34.5 37v-88c0 -2 -4.33301 -8.66699 -13 -20s-19.667 -21.833 -33 -31.5s-28 -14.5 -44 -14.5c-11.333 0 -21.5 2.5 -30.5 7.5z" />
    <glyph glyph-name="uni00A0" unicode="&#xa0;" horiz-adv-x="244" 
 />
    <glyph glyph-name="exclamdown" unicode="&#xa1;" horiz-adv-x="265" 
d="M62 598v152l141 -6v-146h-141zM62 -6l24 531h94l23 -531h-141z" />
    <glyph glyph-name="cent" unicode="&#xa2;" horiz-adv-x="480" 
d="M214 -8c-61.333 12.667 -108.165 45.834 -140.498 99.501s-48.5 116.167 -48.5 187.5c0 46 7 90 21 132s35.167 77.167 63.5 105.5s63.166 45.166 104.499 50.499v89h68v-89c50 -8 90.5 -30 121.5 -66s47.5 -80.333 49.5 -133l-133 -6c-3.33301 20 -7.5 37.333 -12.5 52
s-13.5 26 -25.5 34v-342c17.333 4 29.833 16.5 37.5 37.5s12.167 43.5 13.5 67.5l117 -13c-8.66699 -66 -25.334 -116.5 -50.001 -151.5s-64 -54.5 -118 -58.5v-82h-68v86zM214.001 449c-20 -13.333 -32.833 -34.667 -38.5 -64s-8.5 -64 -8.5 -104
c0 -34.667 2.83301 -65.667 8.5 -93s18.5 -49 38.5 -65v326z" />
    <glyph glyph-name="sterling" unicode="&#xa3;" horiz-adv-x="446" 
d="M282 157c40 0 83.333 -14.667 130 -44v-108l-21 -6c-19.333 19.333 -38.333 32.166 -57 38.499s-37.334 9.5 -56.001 9.5c-21.333 0 -40.333 -2.83301 -57 -8.5s-35.334 -13.5 -56.001 -23.5c-14 -7.33301 -25.667 -12.666 -35 -15.999s-18.666 -5 -27.999 -5
c-11.333 0 -21.833 2.33301 -31.5 7s-17.5 10.334 -23.5 17.001v92c26 8 44.667 28 56 60s17 67.333 17 106c0 8.66699 -0.666992 20.334 -2 35.001h-81v93h64c-4 15.333 -10.667 37 -20 65c-9.33301 28.667 -16.166 52 -20.499 70s-6.5 35.333 -6.5 52
c0 32 8.5 61.167 25.5 87.5s39.833 47.166 68.5 62.499s59 23 91 23c42.667 0 81 -14 115 -42s54.667 -68 62 -120l-114 -43c0 29.333 -5.5 51.833 -16.5 67.5s-24.833 23.5 -41.5 23.5c-14 0 -25.333 -6 -34 -18s-13 -30 -13 -54c0 -21.333 3 -41.333 9 -60
s15 -42.334 27 -71.001l18 -43h130v-93h-110v-3c0 -52 -19.667 -107.667 -59 -167c22 10.667 45.333 16 70 16z" />
    <glyph glyph-name="currency" unicode="&#xa4;" horiz-adv-x="592" 
d="M43 271l68 61c-16.667 31.333 -25 69.333 -25 114c0 46 9 84.667 27 116l-70 62l46 53l70 -61c36 26.667 81.667 40 137 40c56 0 102 -13.667 138 -41l70 62l47 -53l-71 -62c18 -34 27 -73 27 -117c0 -43.333 -8.66699 -81 -26 -113l70 -61l-47 -53l-67 60
c-36 -28.667 -83 -43 -141 -43c-58.667 0 -105 14 -139 42l-68 -59zM390 445c0 70 -31.333 105 -94 105c-62 0 -93 -35 -93 -105c0 -69.333 31 -104 93 -104c62.667 0 94 34.667 94 104z" />
    <glyph glyph-name="yen" unicode="&#xa5;" horiz-adv-x="535" 
d="M519 750l-153 -383h116v-71h-137v-81h137v-70h-137v-145h-148v145h-136v70h136v81h-136v71h108l-152 383h161l103 -312l111 312h127z" />
    <glyph glyph-name="brokenbar" unicode="&#xa6;" horiz-adv-x="288" 
d="M71 469v328h146v-328h-146zM71 -47v328h146v-328h-146z" />
    <glyph glyph-name="section" unicode="&#xa7;" horiz-adv-x="480" 
d="M106.5 20c-34.333 24 -56.1689 56.3359 -65.502 97.0029l108 35c4 -18 13 -33.667 27 -47s32 -20 54 -20c17.333 0 33.666 3.66699 48.999 11s23 19 23 35c0 15.333 -7.16699 27.666 -21.5 36.999s-29.5 16.833 -45.5 22.5s-26.333 9.5 -31 11.5
c-51.333 19.333 -90.833 43.166 -118.5 71.499s-41.5 64.166 -41.5 107.499c0 42.667 13.333 79.667 40 111c-23.333 27.333 -35 62 -35 104c0 36 8.83301 66.833 26.5 92.5s40.834 45 69.501 58s59.334 19.5 92.001 19.5c44 0 83.5 -11.667 118.5 -35
s58.5 -55.333 70.5 -96l-115 -36c-14 45.333 -38.333 68 -73 68c-15.333 0 -29 -4 -41 -12s-18 -18.333 -18 -31c0 -14.667 7.33301 -26.667 22 -36s38.334 -20.333 71.001 -33c28 -10.667 46.667 -18.334 56 -23.001c36.667 -16.667 64.667 -36.5 84 -59.5
s29 -54.5 29 -94.5c0 -48 -15 -88 -45 -120c27.333 -27.333 41 -61.666 41 -102.999c0 -36 -9.33301 -67 -28 -93s-43.5 -45.5 -74.5 -58.5s-64.833 -19.5 -101.5 -19.5c-50 0 -92.167 12 -126.5 36zM301.997 333.503c3.33301 5 5.00098 11.5 5.00098 19.5
c0 21.333 -14.333 37.666 -43 48.999l-78 32c-8 -10 -12 -20.333 -12 -31c0 -12 3.5 -22 10.5 -30s17.167 -15.167 30.5 -21.5s37.666 -17.166 72.999 -32.499c6 4.66699 10.667 9.5 14 14.5z" />
    <glyph glyph-name="dieresis" unicode="&#xa8;" horiz-adv-x="533" 
d="M79 609v141h141v-141h-141zM313 609v141h141v-141h-141z" />
    <glyph glyph-name="copyright" unicode="&#xa9;" horiz-adv-x="682" 
d="M183.5 44c-48.333 29.333 -86.666 69.333 -114.999 120s-42.5 105.667 -42.5 165s14.167 114.166 42.5 164.499s66.666 90.166 114.999 119.499s100.833 44 157.5 44s109.167 -14.667 157.5 -44s86.666 -69.166 114.999 -119.499s42.5 -105.166 42.5 -164.499
s-14.167 -114.333 -42.5 -165s-66.666 -90.667 -114.999 -120s-100.833 -44 -157.5 -44s-109.167 14.667 -157.5 44zM465.5 100.5c38.333 23.667 68.833 55.667 91.5 96s34 84.5 34 132.5s-11.333 92 -34 132s-53.167 71.833 -91.5 95.5s-79.833 35.5 -124.5 35.5
s-86.167 -11.833 -124.5 -35.5s-68.833 -55.5 -91.5 -95.5s-34 -84 -34 -132s11.333 -92.167 34 -132.5s53.167 -72.333 91.5 -96s79.833 -35.5 124.5 -35.5s86.167 11.833 124.5 35.5zM258 150c-23.333 21.333 -40.333 48.332 -51 80.999s-16 66.667 -16 102
s5.5 68.833 16.5 100.5s27.833 57.334 50.5 77.001s50.667 29.5 84 29.5c30 0 55.833 -8 77.5 -24s38 -36.833 49 -62.5s16.5 -52.5 16.5 -80.5l-93 -4c0 17.333 -3.16699 37 -9.5 59s-20.166 33 -41.499 33c-20.667 0 -34.667 -12 -42 -36s-11 -55 -11 -93
c0 -40 4.16699 -73.5 12.5 -100.5s24.5 -40.5 48.5 -40.5c19.333 0 32.666 9 39.999 27s12.333 42.667 15 74l82 -8c0 -46.667 -12.167 -86 -36.5 -118s-58.5 -48 -102.5 -48c-36 0 -65.667 10.667 -89 32z" />
    <glyph glyph-name="ordfeminine" unicode="&#xaa;" horiz-adv-x="378" 
d="M59 367c-17.333 24 -26 54.001 -26 90.001c0 90 61 140 183 150c0 24.667 -1.83301 43.667 -5.5 57s-12.167 20 -25.5 20c-10.667 0 -19 -4.5 -25 -13.5s-10 -20.167 -12 -33.5l-100 18c4.66699 37.333 20 64.166 46 80.499s56.667 24.5 92 24.5
c44.667 0 78 -11.667 100 -35s33 -54 33 -92v-214c0 -12 1.16699 -25.333 3.5 -40s4.83301 -26 7.5 -34l-101 -9l-11 51c-7.33301 -15.333 -20 -28.5 -38 -39.5s-36.333 -16.5 -55 -16.5c-26.667 0 -48.667 12 -66 36zM216 429.001v115c-54 0 -81 -27.333 -81 -82
c0 -18 3.16699 -32 9.5 -42s15.833 -15 28.5 -15c14 0 28.333 8 43 24z" />
    <glyph glyph-name="guillemotleft" unicode="&#xab;" horiz-adv-x="607" 
d="M274 29l-248 185v130l249 190l-6 -127l-147 -111l159 -100zM556 29l-248 185v130l249 190l-7 -127l-147 -111l160 -100z" />
    <glyph glyph-name="logicalnot" unicode="&#xac;" horiz-adv-x="385" 
d="M257 141v93h-211v117h282v-210h-71z" />
    <glyph glyph-name="uni00AD" unicode="&#xad;" horiz-adv-x="293" 
d="M6 234v117h281v-117h-281z" />
    <glyph glyph-name="registered" unicode="&#xae;" horiz-adv-x="682" 
d="M183.5 44c-48.333 29.333 -86.666 69.333 -114.999 120s-42.5 105.667 -42.5 165s14.167 114.166 42.5 164.499s66.666 90.166 114.999 119.499s100.833 44 157.5 44s109.167 -14.667 157.5 -44s86.666 -69.166 114.999 -119.499s42.5 -105.166 42.5 -164.499
s-14.167 -114.333 -42.5 -165s-66.666 -90.667 -114.999 -120s-100.833 -44 -157.5 -44s-109.167 14.667 -157.5 44zM465.5 100.5c38.333 23.667 68.833 55.667 91.5 96s34 84.5 34 132.5s-11.333 92 -34 132s-53.167 71.833 -91.5 95.5s-79.833 35.5 -124.5 35.5
s-86.167 -11.833 -124.5 -35.5s-68.833 -55.5 -91.5 -95.5s-34 -84 -34 -132s11.333 -92.167 34 -132.5s53.167 -72.333 91.5 -96s79.833 -35.5 124.5 -35.5s86.167 11.833 124.5 35.5zM334 308h-32.999v-159l-84 -8v379h78c34 0 63 -2.16699 87 -6.5s44.333 -14.5 61 -30.5
s25 -40.333 25 -73c0 -23.333 -4.83301 -42 -14.5 -56s-23.834 -24.667 -42.501 -32l65 -154l-79 -27zM320.001 367c23.333 0 40.834 2.99902 52.501 8.99902s17.5 17.667 17.5 35c0 16.667 -5.83301 27.834 -17.5 33.501s-29.834 8.5 -54.501 8.5h-16v-86h18z" />
    <glyph glyph-name="macron" unicode="&#xaf;" horiz-adv-x="438" 
d="M79 609v94h281v-94h-281z" />
    <glyph glyph-name="degree" unicode="&#xb0;" horiz-adv-x="381" 
d="M76.5 503c-27.667 28 -41.5 64.333 -41.5 109s13.833 81.167 41.5 109.5s66.167 42.5 115.5 42.5s87.333 -14 114 -42s40 -64.667 40 -110c0 -44.667 -13.333 -81 -40 -109s-64.667 -42 -114 -42s-87.833 14 -115.5 42zM236.5 566c8.33301 14 12.5 29.668 12.5 47.001
s-4.16699 32.833 -12.5 46.5s-23.166 20.5 -44.499 20.5c-22.667 0 -38.5 -6.83301 -47.5 -20.5s-13.5 -29.834 -13.5 -48.501c0 -16 4.5 -31 13.5 -45s24.833 -21 47.5 -21c21.333 0 36.166 7 44.499 21z" />
    <glyph glyph-name="plusminus" unicode="&#xb1;" horiz-adv-x="423" 
d="M154 164v117h-117v116h117v118h116v-118h117v-116h-117v-117h-116zM69 0v117h282v-117h-282z" />
    <glyph glyph-name="uni00B2" unicode="&#xb2;" horiz-adv-x="410" 
d="M42 366c16 18 33.668 36.6699 53.001 56.0029c43.333 44 76.5 81.667 99.5 113s34.5 62.333 34.5 93c0 13.333 -2.66699 24.166 -8 32.499s-12.666 12.5 -21.999 12.5c-14.667 0 -25.334 -11.333 -32.001 -34c-2.66699 -7.33301 -5.33398 -18.333 -8.00098 -33l-117 39
c8.66699 34 28.334 62.667 59.001 86s67.667 35 111 35c45.333 0 82.666 -11.5 111.999 -34.5s44 -57.833 44 -104.5c0 -68.667 -57 -152.667 -171 -252h148c0 -12.667 -1.33301 -28.334 -4 -47.001s-4 -34.334 -4 -47.001h-295v85z" />
    <glyph glyph-name="uni00B3" unicode="&#xb3;" horiz-adv-x="418" 
d="M83.5 286.5c-31 19 -51.168 46.168 -60.501 81.501l105 31c4.66699 -14 11.334 -25.167 20.001 -33.5s20.667 -12.5 36 -12.5c14.667 0 26.667 5 36 15s14 22 14 36c0 27.333 -8.83301 45.833 -26.5 55.5s-42.167 14.5 -73.5 14.5v94c29.333 0 52.333 4.33301 69 13
s25 24.667 25 48c0 12.667 -3.83301 23.334 -11.5 32.001s-17.834 13 -30.501 13c-7.33301 0 -13.5 -1.83301 -18.5 -5.5s-9.83301 -8.83398 -14.5 -15.501c-4 -7.33301 -7.33301 -14.333 -10 -21l-101 38c19.333 34 41 58.333 65 73s53.667 22 89 22
c44.667 0 83.334 -10.833 116.001 -32.5s49 -51.834 49 -90.501c0 -52.667 -30.333 -91 -91 -115c32 -10.667 56.333 -25.667 73 -45s25 -45 25 -77c0 -46 -17 -82 -51 -108s-76.333 -39 -127 -39c-40 0 -75.5 9.5 -106.5 28.5z" />
    <glyph glyph-name="acute" unicode="&#xb4;" horiz-adv-x="293" 
d="M71 608l-55 49l145 218l111 -98z" />
    <glyph glyph-name="uni00B5" unicode="&#xb5;" horiz-adv-x="537" 
d="M63 551l140 12v-377c0 -50 15.667 -75 47 -75c11.333 0 24.333 3.83301 39 11.5s33 18.5 55 32.5v396l140 12v-557l-140 -12v72c-41.333 -30 -79 -45 -113 -45c-12.667 0 -22 0.333008 -28 1v-116l-140 -6v651z" />
    <glyph glyph-name="paragraph" unicode="&#xb6;" horiz-adv-x="563" 
d="M164 391c-44.667 12.667 -79.333 32.167 -104 58.5s-37 62.833 -37 109.5c0 56.667 17.167 99 51.5 127s76 45.667 125 53s109.167 11 180.5 11h39h116v-121h-71v-629h-113v373c-24 0 -48.667 1 -74 3v-376h-113v391z" />
    <glyph glyph-name="periodcentered" unicode="&#xb7;" horiz-adv-x="252" 
d="M56 234v141h140v-141h-140z" />
    <glyph glyph-name="cedilla" unicode="&#xb8;" horiz-adv-x="269" 
d="M87.5 -262.5c-20.333 5.66699 -37.166 13.1641 -50.499 22.4971v80c25.333 -11.333 48.666 -17 69.999 -17c16 0 27.833 3.33301 35.5 10s11.5 15.334 11.5 26.001c0 14.667 -8 28 -24 40s-39 18 -69 18l19 106h74l-14 -60c47.333 -13.333 78.333 -33.166 93 -59.499
s22 -49.166 22 -68.499c0 -36.667 -10 -63.5 -30 -80.5s-45.333 -25.5 -76 -25.5c-20.667 0 -41.167 2.83301 -61.5 8.5z" />
    <glyph glyph-name="uni00B9" unicode="&#xb9;" horiz-adv-x="373" 
d="M51 375h87v214l-30 -4c-22.667 -2.66699 -39.667 -4 -51 -4h-13v69l162 100h49v-375h92l-6 -94h-290v94z" />
    <glyph glyph-name="ordmasculine" unicode="&#xba;" horiz-adv-x="464" 
d="M90.5 430c-33 36 -49.5 83.667 -49.5 143c0 58.667 16.333 106 49 142s79.667 54 141 54s108.833 -18 142.5 -54s50.5 -83.333 50.5 -142c0 -59.333 -16.833 -107 -50.5 -143s-81.167 -54 -142.5 -54c-60.667 0 -107.5 18 -140.5 54zM283.5 501.5
c12.333 20.333 18.5 44.833 18.5 73.5c0 28 -6.16699 52.333 -18.5 73s-29.5 31 -51.5 31s-39.167 -10.167 -51.5 -30.5s-18.5 -44.5 -18.5 -72.5s6.16699 -52.5 18.5 -73.5s29.5 -31.5 51.5 -31.5s39.167 10.167 51.5 30.5z" />
    <glyph glyph-name="guillemotright" unicode="&#xbb;" horiz-adv-x="607" 
d="M52 29l-7 167l160 100l-147 111l-7 127l249 -190v-130zM333 29l-7 167l160 100l-147 111l-7 127l249 -190v-130z" />
    <glyph glyph-name="onequarter" unicode="&#xbc;" horiz-adv-x="972" 
d="M41 375h87v214l-30 -4c-22.667 -2.66699 -39.667 -4 -51 -4h-12v69l161 100h50v-375h91l-6 -94h-290v94zM332 0l188 750h140l-187 -750h-141zM768 -23v117h-191v82l172 293h140v-288h61l-8 -87h-53v-110zM667 181h101v166z" />
    <glyph glyph-name="onehalf" unicode="&#xbd;" horiz-adv-x="969" 
d="M38 375h87v214l-30 -4c-22.667 -2.66699 -39.667 -4 -51 -4h-12v69l161 100h50v-375h91l-6 -94h-290v94zM329 0l188 750h140l-187 -750h-141zM619 84l56 60.0039c43.333 45.333 75.833 83 97.5 113s32.5 60 32.5 90c0 13.333 -2.66699 24.166 -8 32.499
s-12.666 12.5 -21.999 12.5c-13.333 0 -24 -11.333 -32 -34c-2.66699 -7.33301 -5.33398 -18.333 -8.00098 -33l-116 39c8 33.333 27.167 61.666 57.5 84.999s67.5 35 111.5 35c46 0 83.5 -11.333 112.5 -34s43.5 -57.334 43.5 -104.001c0 -70 -57 -154 -171 -252h148
c0 -8.66699 -0.5 -17.667 -1.5 -27s-1.5 -16 -1.5 -20c-2.66699 -18.667 -4 -34.334 -4 -47.001h-295v84z" />
    <glyph glyph-name="threequarters" unicode="&#xbe;" horiz-adv-x="967" 
d="M81.5 286.5c-31 19 -51.1641 46.166 -60.4971 81.499l105 31c4.66699 -14 11.167 -25.167 19.5 -33.5s20.5 -12.5 36.5 -12.5c14.667 0 26.667 5 36 15s14 22 14 36c0 27.333 -8.83301 45.833 -26.5 55.5s-42.5 14.5 -74.5 14.5v94c29.333 0 52.333 4.33301 69 13
s25 24.667 25 48c0 12.667 -3.66699 23.334 -11 32.001s-17.666 13 -30.999 13c-12.667 0 -23.334 -7 -32.001 -21c-4.66699 -6 -8.33398 -13 -11.001 -21l-101 38c19.333 34 41.166 58.333 65.499 73s54.166 22 89.499 22c44.667 0 83.167 -10.833 115.5 -32.5
s48.5 -51.834 48.5 -90.501c0 -52.667 -30.333 -91 -91 -115c32.667 -10.667 57.167 -25.667 73.5 -45s24.5 -45 24.5 -77c0 -45.333 -17 -81.166 -51 -107.499s-76 -39.5 -126 -39.5c-40 0 -75.5 9.5 -106.5 28.5zM327.003 -0.000976562l187 750h141l-188 -750h-140z
M762.003 -23.001v117h-190v82l172 293h139v-288h61l-7 -87h-54v-110zM662.003 180.999h100v166z" />
    <glyph glyph-name="questiondown" unicode="&#xbf;" horiz-adv-x="432" 
d="M209 608v141l141 6v-147h-141zM111 25.5c-29.333 21 -51.168 48.3379 -65.501 82.0049s-21.5 69.167 -21.5 106.5c0 38.667 4.83301 70.334 14.5 95.001s21.5 43.667 35.5 57s32.667 27.666 56 42.999c20.667 13.333 36.834 25.166 48.501 35.499s21.5 24.5 29.5 42.5
s12 41 12 69v6h117c1.33301 -12 2 -28 2 -48c0 -36.667 -4.33301 -66.334 -13 -89.001s-19.334 -39.834 -32.001 -51.501s-29.334 -24.167 -50.001 -37.5c-18 -11.333 -32 -21.333 -42 -30s-18.5 -20.834 -25.5 -36.501s-10.5 -35.834 -10.5 -60.501
c0 -69.333 18.667 -104 56 -104c18.667 0 31.334 8.83301 38.001 26.5s11.667 41.167 15 70.5l133 -6c-1.33301 -39.333 -10.166 -74.333 -26.499 -105s-38.5 -54.5 -66.5 -71.5s-60 -25.5 -96 -25.5c-42.667 0 -78.667 10.5 -108 31.5z" />
    <glyph glyph-name="Agrave" unicode="&#xc0;" horiz-adv-x="552" 
d="M12 0l158 741l209 9l162 -744l-160 -6l-27 161h-179l-32 -161h-131zM202 281h125l-69 359zM273 793l-181 152l103 95l130 -197z" />
    <glyph glyph-name="Aacute" unicode="&#xc1;" horiz-adv-x="552" 
d="M12 0l158 741l209 9l162 -744l-160 -6l-27 161h-179l-32 -161h-131zM202 281h125l-69 359zM292 793l-52 50l130 197l103 -95z" />
    <glyph glyph-name="Acircumflex" unicode="&#xc2;" horiz-adv-x="552" 
d="M12 0l158 741l209 9l162 -744l-160 -6l-27 161h-179l-32 -161h-131zM202 281h125l-69 359zM112 797l117 235h98l113 -235h-122l-47 142l-57 -142h-102z" />
    <glyph glyph-name="Atilde" unicode="&#xc3;" horiz-adv-x="552" 
d="M12 0l158 741l209 9l162 -744l-160 -6l-27 161h-179l-32 -161h-131zM202 281h125l-69 359zM311 826c-8.66699 4 -19.998 10 -33.998 18c-12.667 8.66699 -23.667 15 -33 19s-19.666 6 -30.999 6c-27.333 0 -55.666 -16.333 -84.999 -49l-7 90
c16.667 18 32.667 32.333 48 43s32 16 50 16c9.33301 0 18.166 -1.5 26.499 -4.5s19.5 -7.83301 33.5 -14.5c12.667 -6.66699 23.5 -11.667 32.5 -15s18.5 -5 28.5 -5c14.667 0 28.5 4 41.5 12s22.5 17 28.5 27l22 -79c0 -2 -4.33301 -9 -13 -21
s-19.834 -23.167 -33.501 -33.5s-28.834 -15.5 -45.501 -15.5c-10.667 0 -20.334 2 -29.001 6z" />
    <glyph glyph-name="Adieresis" unicode="&#xc4;" horiz-adv-x="552" 
d="M12 0l158 741l209 9l162 -744l-160 -6l-27 161h-179l-32 -161h-131zM202 281h125l-69 359zM88 816v141h141v-141h-141zM322 816v141h141v-141h-141z" />
    <glyph glyph-name="Aring" unicode="&#xc5;" horiz-adv-x="552" 
d="M12 0l158 741l209 9l162 -744l-160 -6l-27 161h-179l-32 -161h-131zM202 281h125l-69 359zM168.5 831c-30.333 23.333 -45.502 56 -45.502 98s15 74.667 45 98s66 35 108 35c41.333 0 77 -11.5 107 -34.5s45 -55.833 45 -98.5c0 -28 -7.16699 -52.167 -21.5 -72.5
s-33.166 -35.5 -56.499 -45.5s-48 -15 -74 -15c-41.333 0 -77.166 11.667 -107.499 35zM317.498 888.5c12.333 9.66699 18.5 23.167 18.5 40.5c0 16.667 -6.16699 29.834 -18.5 39.501s-26.5 14.5 -42.5 14.5s-30 -4.83301 -42 -14.5s-18 -22.834 -18 -39.501s6 -30 18 -40
s26 -15 42 -15s30.167 4.83301 42.5 14.5z" />
    <glyph glyph-name="AE" unicode="&#xc6;" horiz-adv-x="771" 
d="M-3 0l322 741l100 9h320l-11 -117h-189v-179h124l-1 -126h-123v-211h208l-12 -117h-360l8 161h-163l-64 -161h-159zM268 281h116l11 359z" />
    <glyph glyph-name="Ccedilla" unicode="&#xc7;" horiz-adv-x="522" 
d="M466 128.5c-14 -39 -35.167 -71.1689 -63.5 -96.502s-62.833 -40.333 -103.5 -45l-6 -24c47.333 -13.333 78.333 -33.166 93 -59.499s22 -49.166 22 -68.499c0 -36.667 -10 -63.5 -30 -80.5s-45.333 -25.5 -76 -25.5c-20.667 0 -41.167 2.83301 -61.5 8.5
s-37.166 13.167 -50.499 22.5v80c25.333 -11.333 48.666 -17 69.999 -17c16 0 27.833 3.33301 35.5 10s11.5 15.334 11.5 26.001c0 14.667 -8 28 -24 40s-39 18 -69 18l13 74c-68.667 15.333 -117 60.166 -145 134.499s-42 162.833 -42 265.5c0 61.333 8 120.333 24 177
s41.833 103.5 77.5 140.5s80.834 55.5 135.501 55.5c42 0 78.833 -13 110.5 -39s56 -59.833 73 -101.5s25.5 -85.167 25.5 -130.5l-142 -7c0 30 -5 64.167 -15 102.5s-30 57.5 -60 57.5c-31.333 0 -53 -25 -65 -75s-18 -110 -18 -180c0 -86.667 6.66699 -156.167 20 -208.5
s39 -78.5 77 -78.5c26.667 0 45.667 15.833 57 47.5s18.666 70.167 21.999 115.5l125 -12c0 -45.333 -7 -87.5 -21 -126.5z" />
    <glyph glyph-name="Egrave" unicode="&#xc8;" horiz-adv-x="483" 
d="M70 0v750h381l-12 -117h-222v-179h158l-1 -126h-157v-211h242l-12 -117h-377zM239 793l-181 152l103 95l130 -197z" />
    <glyph glyph-name="Eacute" unicode="&#xc9;" horiz-adv-x="483" 
d="M70 0v750h381l-12 -117h-222v-179h158l-1 -126h-157v-211h242l-12 -117h-377zM258 793l-52 50l130 197l103 -95z" />
    <glyph glyph-name="Ecircumflex" unicode="&#xca;" horiz-adv-x="483" 
d="M70 0v750h381l-12 -117h-222v-179h158l-1 -126h-157v-211h242l-12 -117h-377zM78 797l117 235h98l113 -235h-122l-47 142l-57 -142h-102z" />
    <glyph glyph-name="Edieresis" unicode="&#xcb;" horiz-adv-x="483" 
d="M70 0v750h381l-12 -117h-222v-179h158l-1 -126h-157v-211h242l-12 -117h-377zM54 816v141h141v-141h-141zM288 816v141h141v-141h-141z" />
    <glyph glyph-name="Igrave" unicode="&#xcc;" horiz-adv-x="287" 
d="M70 -6v744l147 12v-744zM141 793l-181 152l103 95l130 -197z" />
    <glyph glyph-name="Iacute" unicode="&#xcd;" horiz-adv-x="287" 
d="M70 -6v744l147 12v-744zM160 793l-52 50l130 197l103 -95z" />
    <glyph glyph-name="Icircumflex" unicode="&#xce;" horiz-adv-x="287" 
d="M70 -6v744l147 12v-744zM-20 796l117 235h98l113 -235h-122l-47 142l-57 -142h-102z" />
    <glyph glyph-name="Idieresis" unicode="&#xcf;" horiz-adv-x="287" 
d="M70 -6v744l147 12v-744zM-44 816v141h141v-141h-141zM190 816v141h141v-141h-141z" />
    <glyph glyph-name="Eth" unicode="&#xd0;" horiz-adv-x="556" 
d="M447 656c48.667 -62.667 72.999 -157.333 72.999 -284c0 -67.333 -9.16699 -129 -27.5 -185s-47.5 -101.167 -87.5 -135.5s-91.333 -51.5 -154 -51.5h-179v328h-70v94h70v328h154c98.667 0 172.334 -31.333 221.001 -94zM373.999 378.001
c0 46 -2.83398 86.833 -8.50098 122.5s-18.667 66.667 -39 93s-50.833 39.5 -91.5 39.5h-17v-211h66v-94h-66v-211h21c50.667 0 85.834 21.833 105.501 65.5s29.5 97.5 29.5 161.5v34z" />
    <glyph glyph-name="Ntilde" unicode="&#xd1;" horiz-adv-x="611" 
d="M420 -6l-219 469v-457l-131 -6v744l153 6l194 -446v434l124 12v-744zM341 794c-8.66699 4 -19.998 10 -33.998 18c-12.667 8.66699 -23.667 15 -33 19s-19.666 6 -30.999 6c-27.333 0 -55.666 -16.333 -84.999 -49l-7 90c16.667 18 32.667 32.333 48 43s32 16 50 16
c9.33301 0 18.166 -1.5 26.499 -4.5s19.5 -7.83301 33.5 -14.5c12.667 -6.66699 23.5 -11.667 32.5 -15s18.5 -5 28.5 -5c14.667 0 28.5 4 41.5 12s22.5 17 28.5 27l22 -79c0 -2 -4.33301 -9 -13 -21s-19.834 -23.167 -33.501 -33.5s-28.834 -15.5 -45.501 -15.5
c-10.667 0 -20.334 2 -29.001 6z" />
    <glyph glyph-name="Ograve" unicode="&#xd2;" horiz-adv-x="549" 
d="M93.5 95.5c-34.333 73 -51.5 167.5 -51.5 283.5c0 123.333 18.333 218.333 55 285s95.667 100 177 100c155.333 0 233 -127 233 -381c0 -114 -17.5 -208.667 -52.5 -284s-95.833 -113 -182.5 -113c-84.667 0 -144.167 36.5 -178.5 109.5zM344 173.5
c11.333 46.333 17.001 116.499 17.001 210.499c0 75.333 -5.5 137.833 -16.5 187.5s-34.5 74.5 -70.5 74.5s-59.333 -24.667 -70 -74s-16 -111.666 -16 -186.999c0 -94.667 5.5 -165.167 16.5 -211.5s34.167 -69.5 69.5 -69.5s58.666 23.167 69.999 69.5zM272.001 792.999
l-181 152l103 95l130 -197z" />
    <glyph glyph-name="Oacute" unicode="&#xd3;" horiz-adv-x="549" 
d="M93.5 95.5c-34.333 73 -51.5 167.5 -51.5 283.5c0 123.333 18.333 218.333 55 285s95.667 100 177 100c155.333 0 233 -127 233 -381c0 -114 -17.5 -208.667 -52.5 -284s-95.833 -113 -182.5 -113c-84.667 0 -144.167 36.5 -178.5 109.5zM344 173.5
c11.333 46.333 17.001 116.499 17.001 210.499c0 75.333 -5.5 137.833 -16.5 187.5s-34.5 74.5 -70.5 74.5s-59.333 -24.667 -70 -74s-16 -111.666 -16 -186.999c0 -94.667 5.5 -165.167 16.5 -211.5s34.167 -69.5 69.5 -69.5s58.666 23.167 69.999 69.5zM291.001 792.999
l-52 50l130 197l103 -95z" />
    <glyph glyph-name="Ocircumflex" unicode="&#xd4;" horiz-adv-x="549" 
d="M93.5 95.5c-34.333 73 -51.5 167.5 -51.5 283.5c0 123.333 18.333 218.333 55 285s95.667 100 177 100c155.333 0 233 -127 233 -381c0 -114 -17.5 -208.667 -52.5 -284s-95.833 -113 -182.5 -113c-84.667 0 -144.167 36.5 -178.5 109.5zM344 173.5
c11.333 46.333 17.001 116.499 17.001 210.499c0 75.333 -5.5 137.833 -16.5 187.5s-34.5 74.5 -70.5 74.5s-59.333 -24.667 -70 -74s-16 -111.666 -16 -186.999c0 -94.667 5.5 -165.167 16.5 -211.5s34.167 -69.5 69.5 -69.5s58.666 23.167 69.999 69.5zM111.001 796.999
l117 235h98l113 -235h-122l-47 142l-57 -142h-102z" />
    <glyph glyph-name="Otilde" unicode="&#xd5;" horiz-adv-x="549" 
d="M93.5 95.5c-34.333 73 -51.5 167.5 -51.5 283.5c0 123.333 18.333 218.333 55 285s95.667 100 177 100c155.333 0 233 -127 233 -381c0 -114 -17.5 -208.667 -52.5 -284s-95.833 -113 -182.5 -113c-84.667 0 -144.167 36.5 -178.5 109.5zM344 173.5
c11.333 46.333 17.001 116.499 17.001 210.499c0 75.333 -5.5 137.833 -16.5 187.5s-34.5 74.5 -70.5 74.5s-59.333 -24.667 -70 -74s-16 -111.666 -16 -186.999c0 -94.667 5.5 -165.167 16.5 -211.5s34.167 -69.5 69.5 -69.5s58.666 23.167 69.999 69.5zM310.001 825.999
c-8.66699 4 -19.998 10 -33.998 18c-12.667 8.66699 -23.667 15 -33 19s-19.666 6 -30.999 6c-27.333 0 -55.666 -16.333 -84.999 -49l-7 90c16.667 18 32.667 32.333 48 43s32 16 50 16c9.33301 0 18.166 -1.5 26.499 -4.5s19.5 -7.83301 33.5 -14.5
c12.667 -6.66699 23.5 -11.667 32.5 -15s18.5 -5 28.5 -5c14.667 0 28.5 4 41.5 12s22.5 17 28.5 27l22 -79c0 -2 -4.33301 -9 -13 -21s-19.834 -23.167 -33.501 -33.5s-28.834 -15.5 -45.501 -15.5c-10.667 0 -20.334 2 -29.001 6z" />
    <glyph glyph-name="Odieresis" unicode="&#xd6;" horiz-adv-x="549" 
d="M93.5 95.5c-34.333 73 -51.5 167.5 -51.5 283.5c0 123.333 18.333 218.333 55 285s95.667 100 177 100c155.333 0 233 -127 233 -381c0 -114 -17.5 -208.667 -52.5 -284s-95.833 -113 -182.5 -113c-84.667 0 -144.167 36.5 -178.5 109.5zM344 173.5
c11.333 46.333 17.001 116.499 17.001 210.499c0 75.333 -5.5 137.833 -16.5 187.5s-34.5 74.5 -70.5 74.5s-59.333 -24.667 -70 -74s-16 -111.666 -16 -186.999c0 -94.667 5.5 -165.167 16.5 -211.5s34.167 -69.5 69.5 -69.5s58.666 23.167 69.999 69.5zM87.001 815.999
v141h141v-141h-141zM321.001 815.999v141h141v-141h-141z" />
    <glyph glyph-name="multiply" unicode="&#xd7;" horiz-adv-x="418" 
d="M301 94l-93 94l-91 -92l-82 82l91 92l-90 89l83 83l89 -90l92 91l82 -82l-91 -91l93 -93z" />
    <glyph glyph-name="Oslash" unicode="&#xd8;" horiz-adv-x="551" 
d="M96 94l-35 -42.001l-47 45l55 66c-18 63.333 -27 142.333 -27 237c0 114.667 19 204.334 57 269.001s96.333 97 175 97c88 0 151.333 -41 190 -123l41 50l47 -45l-63 -76c12.667 -54 19 -111.333 19 -172c0 -124 -17 -224.333 -51 -301s-95 -115 -183 -115
c-80.667 0 -140 36.667 -178 110zM356 511.999c-10 91.333 -37.333 137.001 -82 137.001c-35.333 0 -58.5 -24.333 -69.5 -73s-16.5 -107.334 -16.5 -176.001c0 -42 0.333008 -72 1 -90zM330.5 143c12.333 22.667 20.501 54 24.501 94s6 94.333 6 163v17l-164 -200
c5.33301 -36 14 -63 26 -81s29 -27 51 -27c25.333 0 44.166 11.333 56.499 34z" />
    <glyph glyph-name="Ugrave" unicode="&#xd9;" horiz-adv-x="568" 
d="M120 58c-37.333 48 -56 111 -56 189v497l147 6v-515c0 -26 1.5 -48 4.5 -66s10.5 -33.333 22.5 -46s30.333 -19 55 -19c23.333 0 40.5 6.5 51.5 19.5s17.833 28.333 20.5 46s4 40.167 4 67.5v501l134 12v-486c0 -70.667 -13.833 -134.667 -41.5 -192
s-85.5 -86 -173.5 -86c-74.667 0 -130.667 24 -168 72zM281 793l-181 152l103 95l130 -197z" />
    <glyph glyph-name="Uacute" unicode="&#xda;" horiz-adv-x="568" 
d="M120 58c-37.333 48 -56 111 -56 189v497l147 6v-515c0 -26 1.5 -48 4.5 -66s10.5 -33.333 22.5 -46s30.333 -19 55 -19c23.333 0 40.5 6.5 51.5 19.5s17.833 28.333 20.5 46s4 40.167 4 67.5v501l134 12v-486c0 -70.667 -13.833 -134.667 -41.5 -192
s-85.5 -86 -173.5 -86c-74.667 0 -130.667 24 -168 72zM300 793l-52 50l130 197l103 -95z" />
    <glyph glyph-name="Ucircumflex" unicode="&#xdb;" horiz-adv-x="568" 
d="M120 58c-37.333 48 -56 111 -56 189v497l147 6v-515c0 -26 1.5 -48 4.5 -66s10.5 -33.333 22.5 -46s30.333 -19 55 -19c23.333 0 40.5 6.5 51.5 19.5s17.833 28.333 20.5 46s4 40.167 4 67.5v501l134 12v-486c0 -70.667 -13.833 -134.667 -41.5 -192
s-85.5 -86 -173.5 -86c-74.667 0 -130.667 24 -168 72zM120 796l117 235h98l113 -235h-122l-47 142l-57 -142h-102z" />
    <glyph glyph-name="Udieresis" unicode="&#xdc;" horiz-adv-x="568" 
d="M120 58c-37.333 48 -56 111 -56 189v497l147 6v-515c0 -26 1.5 -48 4.5 -66s10.5 -33.333 22.5 -46s30.333 -19 55 -19c23.333 0 40.5 6.5 51.5 19.5s17.833 28.333 20.5 46s4 40.167 4 67.5v501l134 12v-486c0 -70.667 -13.833 -134.667 -41.5 -192
s-85.5 -86 -173.5 -86c-74.667 0 -130.667 24 -168 72zM96 816v141h141v-141h-141zM330 816v141h141v-141h-141z" />
    <glyph glyph-name="Yacute" unicode="&#xdd;" horiz-adv-x="501" 
d="M179 -6v303l-180 453h161l103 -312l111 312h126l-173 -436v-308zM267 793l-52 50l130 197l103 -95z" />
    <glyph glyph-name="Thorn" unicode="&#xde;" horiz-adv-x="528" 
d="M68 750l147.999 0.000976562v-180c58.667 -0.666992 108.667 -5.83398 150 -15.501s76 -30.5 104 -62.5s42 -79.333 42 -142s-14.5 -110.167 -43.5 -142.5s-64.667 -53.5 -107 -63.5s-91.166 -15 -146.499 -15v-162l-147 -12v795zM240.999 238.001
c38.667 0 69.168 8.16699 91.501 24.5s33.5 45.833 33.5 88.5c0 42 -10.333 70.333 -31 85s-53.334 22 -98.001 22h-21v-220h25z" />
    <glyph glyph-name="germandbls" unicode="&#xdf;" horiz-adv-x="571" 
d="M61 516c0 98 22.499 164.168 67.499 198.501s95.167 51.5 150.5 51.5c42 0 78.833 -7.83301 110.5 -23.5s56 -37.5 73 -65.5s25.5 -60 25.5 -96c0 -30 -6.83301 -58 -20.5 -84s-37.167 -50 -70.5 -72c48.667 -16.667 86.334 -39.834 113.001 -69.501
s40 -72.167 40 -127.5c0 -80 -26.833 -137.167 -80.5 -171.5s-122.167 -52.833 -205.5 -55.5v102c32 0 58.833 6 80.5 18s37.667 27.333 48 46s15.5 38.334 15.5 59.001c0 21.333 -5.66699 42.666 -17 63.999s-27.5 38.833 -48.5 52.5s-45.5 20.5 -73.5 20.5v81
c32.667 11.333 57.167 28.5 73.5 51.5s24.5 47.167 24.5 72.5c0 23.333 -7 44 -21 62s-34.333 27 -61 27c-24.667 0 -44.667 -9 -60 -27s-23 -47.333 -23 -88v-542l-141 -12v528z" />
    <glyph glyph-name="agrave" unicode="&#xe0;" horiz-adv-x="471" 
d="M88 9.5c-19.333 15 -34.332 35.3311 -44.999 60.998s-16 54.5 -16 86.5c0 72.667 24.833 123.834 74.5 153.501s107.5 46.5 173.5 50.5c0 36 -2.33301 62.667 -7 80s-16 26 -34 26c-15.333 0 -27 -6 -35 -18s-13 -27.333 -15 -46l-137 24
c6.66699 51.333 27.667 88 63 110s76.666 33 123.999 33c60.667 0 106.167 -16 136.5 -48s45.5 -73.667 45.5 -125v-291c0 -31.333 5 -64.666 15 -99.999l-137 -12l-16 69c-12 -21.333 -29.667 -39.333 -53 -54s-47.333 -22 -72 -22c-24 0 -45.667 7.5 -65 22.5z
M246.501 94.998c7.66699 5.33301 17.167 14 28.5 26v156c-33.333 0 -60 -9 -80 -27s-30 -46 -30 -84c0 -25.333 4.5 -44.833 13.5 -58.5s22.167 -20.5 39.5 -20.5c11.333 0 20.833 2.66699 28.5 8zM261.001 604.998l-181 152l103 95l130 -197z" />
    <glyph glyph-name="aacute" unicode="&#xe1;" horiz-adv-x="471" 
d="M88 9.5c-19.333 15 -34.332 35.3311 -44.999 60.998s-16 54.5 -16 86.5c0 72.667 24.833 123.834 74.5 153.501s107.5 46.5 173.5 50.5c0 36 -2.33301 62.667 -7 80s-16 26 -34 26c-15.333 0 -27 -6 -35 -18s-13 -27.333 -15 -46l-137 24
c6.66699 51.333 27.667 88 63 110s76.666 33 123.999 33c60.667 0 106.167 -16 136.5 -48s45.5 -73.667 45.5 -125v-291c0 -31.333 5 -64.666 15 -99.999l-137 -12l-16 69c-12 -21.333 -29.667 -39.333 -53 -54s-47.333 -22 -72 -22c-24 0 -45.667 7.5 -65 22.5z
M246.501 94.998c7.66699 5.33301 17.167 14 28.5 26v156c-33.333 0 -60 -9 -80 -27s-30 -46 -30 -84c0 -25.333 4.5 -44.833 13.5 -58.5s22.167 -20.5 39.5 -20.5c11.333 0 20.833 2.66699 28.5 8zM260.001 604.998l-52 50l130 197l103 -95z" />
    <glyph glyph-name="acircumflex" unicode="&#xe2;" horiz-adv-x="471" 
d="M88 9.5c-19.333 15 -34.332 35.3311 -44.999 60.998s-16 54.5 -16 86.5c0 72.667 24.833 123.834 74.5 153.501s107.5 46.5 173.5 50.5c0 36 -2.33301 62.667 -7 80s-16 26 -34 26c-15.333 0 -27 -6 -35 -18s-13 -27.333 -15 -46l-137 24
c6.66699 51.333 27.667 88 63 110s76.666 33 123.999 33c60.667 0 106.167 -16 136.5 -48s45.5 -73.667 45.5 -125v-291c0 -31.333 5 -64.666 15 -99.999l-137 -12l-16 69c-12 -21.333 -29.667 -39.333 -53 -54s-47.333 -22 -72 -22c-24 0 -45.667 7.5 -65 22.5z
M246.501 94.998c7.66699 5.33301 17.167 14 28.5 26v156c-33.333 0 -60 -9 -80 -27s-30 -46 -30 -84c0 -25.333 4.5 -44.833 13.5 -58.5s22.167 -20.5 39.5 -20.5c11.333 0 20.833 2.66699 28.5 8zM80.001 608.998l117 235h98l113 -235h-122l-47 142l-57 -142h-102z" />
    <glyph glyph-name="atilde" unicode="&#xe3;" horiz-adv-x="471" 
d="M88 9.5c-19.333 15 -34.332 35.3311 -44.999 60.998s-16 54.5 -16 86.5c0 72.667 24.833 123.834 74.5 153.501s107.5 46.5 173.5 50.5c0 36 -2.33301 62.667 -7 80s-16 26 -34 26c-15.333 0 -27 -6 -35 -18s-13 -27.333 -15 -46l-137 24
c6.66699 51.333 27.667 88 63 110s76.666 33 123.999 33c60.667 0 106.167 -16 136.5 -48s45.5 -73.667 45.5 -125v-291c0 -31.333 5 -64.666 15 -99.999l-137 -12l-16 69c-12 -21.333 -29.667 -39.333 -53 -54s-47.333 -22 -72 -22c-24 0 -45.667 7.5 -65 22.5z
M246.501 94.998c7.66699 5.33301 17.167 14 28.5 26v156c-33.333 0 -60 -9 -80 -27s-30 -46 -30 -84c0 -25.333 4.5 -44.833 13.5 -58.5s22.167 -20.5 39.5 -20.5c11.333 0 20.833 2.66699 28.5 8zM279.001 606.998c-8.66699 4 -19.998 10 -33.998 18
c-12.667 8.66699 -23.667 15 -33 19s-19.666 6 -30.999 6c-27.333 0 -55.666 -16.333 -84.999 -49l-7 90c16.667 18 32.667 32.333 48 43s32 16 50 16c9.33301 0 18.166 -1.5 26.499 -4.5s19.5 -7.83301 33.5 -14.5c12.667 -6.66699 23.5 -11.667 32.5 -15s18.5 -5 28.5 -5
c14.667 0 28.5 4 41.5 12s22.5 17 28.5 27l22 -79c0 -2 -4.33301 -9 -13 -21s-19.834 -23.167 -33.501 -33.5s-28.834 -15.5 -45.501 -15.5c-10.667 0 -20.334 2 -29.001 6z" />
    <glyph glyph-name="adieresis" unicode="&#xe4;" horiz-adv-x="471" 
d="M88 9.5c-19.333 15 -34.332 35.3311 -44.999 60.998s-16 54.5 -16 86.5c0 72.667 24.833 123.834 74.5 153.501s107.5 46.5 173.5 50.5c0 36 -2.33301 62.667 -7 80s-16 26 -34 26c-15.333 0 -27 -6 -35 -18s-13 -27.333 -15 -46l-137 24
c6.66699 51.333 27.667 88 63 110s76.666 33 123.999 33c60.667 0 106.167 -16 136.5 -48s45.5 -73.667 45.5 -125v-291c0 -31.333 5 -64.666 15 -99.999l-137 -12l-16 69c-12 -21.333 -29.667 -39.333 -53 -54s-47.333 -22 -72 -22c-24 0 -45.667 7.5 -65 22.5z
M246.501 94.998c7.66699 5.33301 17.167 14 28.5 26v156c-33.333 0 -60 -9 -80 -27s-30 -46 -30 -84c0 -25.333 4.5 -44.833 13.5 -58.5s22.167 -20.5 39.5 -20.5c11.333 0 20.833 2.66699 28.5 8zM56.001 628.998v141h141v-141h-141zM290.001 628.998v141h141v-141h-141z
" />
    <glyph glyph-name="aring" unicode="&#xe5;" horiz-adv-x="471" 
d="M431 6l-137.001 -12.002l-16 69c-12 -21.333 -29.667 -39.333 -53 -54s-47.333 -22 -72 -22c-24 0 -45.667 7.5 -65 22.5s-34.333 35.333 -45 61s-16 54.5 -16 86.5c0 72.667 24.833 123.834 74.5 153.501s107.5 46.5 173.5 50.5c0 36 -2.33301 62.667 -7 80
s-16 26 -34 26c-15.333 0 -27 -6 -35 -18s-13 -27.333 -15 -46l-137 24c6.66699 52.667 30.334 91 71.001 115c-18 22 -27 48.667 -27 80c0 42 15 74.667 45 98s66 35 108 35c41.333 0 77 -11.5 107 -34.5s45 -55.833 45 -98.5c0 -36.667 -12.333 -66.667 -37 -90
c38 -31.333 57 -76.333 57 -135v-291c0 -31.333 5 -64.666 15 -99.999zM194.499 588.498c7.66699 -9 17.5 -15.167 29.5 -18.5h10c11.333 0 19.666 -0.333008 24.999 -1c12.667 3.33301 23.334 9.5 32.001 18.5s13 20.5 13 34.5c0 16.667 -6.16699 29.834 -18.5 39.501
s-26.5 14.5 -42.5 14.5s-30 -4.83301 -42 -14.5s-18 -22.834 -18 -39.501c0 -13.333 3.83301 -24.5 11.5 -33.5zM274.999 276.998c-33.333 0 -60 -9 -80 -27s-30 -46 -30 -84c0 -25.333 4.5 -44.833 13.5 -58.5s22.167 -20.5 39.5 -20.5c11.333 0 20.833 2.66699 28.5 8
s17.167 14 28.5 26v156z" />
    <glyph glyph-name="ae" unicode="&#xe6;" horiz-adv-x="711" 
d="M68.5 35c-28.333 32 -42.499 73.334 -42.499 124.001c0 71.333 25 121.833 75 151.5s107.667 46.5 173 50.5c0 38 -2.5 65.167 -7.5 81.5s-16.167 24.5 -33.5 24.5c-28 0 -44.667 -21.333 -50 -64l-137 24c6 50.667 26.667 87.167 62 109.5s75.333 33.5 120 33.5
c29.333 0 53.666 -5.33301 72.999 -16s36.666 -27.334 51.999 -50.001c19.333 22 39.666 38.5 60.999 49.5s46.333 16.5 75 16.5c62.667 0 110.667 -24.667 144 -74s50 -119 50 -209v-25h-268c0 -43.333 5.5 -82.833 16.5 -118.5s27.833 -53.5 50.5 -53.5
c26.667 0 46.334 14.833 59.001 44.5s19.334 45.5 20.001 47.5l106 -40c-12.667 -47.333 -34.667 -85 -66 -113s-70 -42 -116 -42c-30.667 0 -56.667 6.83301 -78 20.5s-41 34.5 -59 62.5c-14.667 -28.667 -37.5 -49.667 -68.5 -63s-62.167 -20 -93.5 -20
c-50 0 -89.167 16 -117.5 48zM549.001 343.001c0 38.667 -5.33301 70 -16 94s-26 36 -46 36c-20.667 0 -37.5 -12 -50.5 -36s-20.167 -55.333 -21.5 -94h134zM260.001 120.501c9.33301 22.333 14.001 44.5 14.001 66.5v90c-33.333 0 -60 -9 -80 -27s-30 -45.667 -30 -83
c0 -24.667 4.5 -44.167 13.5 -58.5s21.167 -21.5 36.5 -21.5c21.333 0 36.666 11.167 45.999 33.5z" />
    <glyph glyph-name="ccedilla" unicode="&#xe7;" horiz-adv-x="445" 
d="M367 46c-23.333 -35.333 -61.334 -54.6709 -114.001 -58.0039l-6 -25c47.333 -13.333 78.333 -33.166 93 -59.499s22 -49.166 22 -68.499c0 -36.667 -10 -63.5 -30 -80.5s-45.333 -25.5 -76 -25.5c-20.667 0 -41.167 2.83301 -61.5 8.5s-37.166 13.167 -50.499 22.5v80
c25.333 -11.333 48.666 -17 69.999 -17c16 0 27.833 3.33301 35.5 10s11.5 15.334 11.5 26.001c0 14.667 -8 28 -24 40s-39 18 -69 18l14 78c-47.333 15.333 -83.833 49.166 -109.5 101.499s-38.5 112.166 -38.5 179.499c0 50.667 7.5 98.334 22.5 143.001
s37.833 81 68.5 109s68.334 42 113.001 42c34 0 64.5 -8.5 91.5 -25.5s48.167 -40.833 63.5 -71.5s23.666 -65.667 24.999 -105l-133 -6c0 2.66699 -1.16699 13.334 -3.5 32.001s-7.33301 34 -15 46s-17.5 18 -29.5 18c-26.667 0 -43.667 -18.167 -51 -54.5
s-11 -77.166 -11 -122.499c0 -44.667 3.83301 -85.167 11.5 -121.5s25.834 -54.5 54.501 -54.5c36 0 54.667 35.333 56 106l118 -13c-8.66699 -66 -24.667 -116.667 -48 -152z" />
    <glyph glyph-name="egrave" unicode="&#xe8;" horiz-adv-x="471" 
d="M87 66.5c-35.333 53 -53 123.499 -53 211.499c0 89.333 18 160.333 54 213s88.333 79 157 79c65.333 0 115.333 -26.333 150 -79s52 -123.667 52 -213c0 -5.33301 -1 -9.16602 -3 -11.499s-3 -3.83301 -3 -4.5h-267c0 -43.333 5.66699 -82.833 17 -118.5
s28.666 -53.5 51.999 -53.5c26 0 45.333 15 58 45s19.334 45.667 20.001 47l106 -40c-14 -48 -36.333 -85.833 -67 -113.5s-70.667 -41.5 -120 -41.5c-66.667 0 -117.667 26.5 -153 79.5zM309 342.999c0 40 -5.33105 71.667 -15.998 95s-27.334 35 -50.001 35
c-11.333 0 -22.333 -5.66699 -33 -17s-19.334 -27 -26.001 -47s-10 -42 -10 -66h135zM253.002 604.999l-181 152l103 95l130 -197z" />
    <glyph glyph-name="eacute" unicode="&#xe9;" horiz-adv-x="471" 
d="M87 66.5c-35.333 53 -53 123.499 -53 211.499c0 89.333 18 160.333 54 213s88.333 79 157 79c65.333 0 115.333 -26.333 150 -79s52 -123.667 52 -213c0 -5.33301 -1 -9.16602 -3 -11.499s-3 -3.83301 -3 -4.5h-267c0 -43.333 5.66699 -82.833 17 -118.5
s28.666 -53.5 51.999 -53.5c26 0 45.333 15 58 45s19.334 45.667 20.001 47l106 -40c-14 -48 -36.333 -85.833 -67 -113.5s-70.667 -41.5 -120 -41.5c-66.667 0 -117.667 26.5 -153 79.5zM309 342.999c0 40 -5.33105 71.667 -15.998 95s-27.334 35 -50.001 35
c-11.333 0 -22.333 -5.66699 -33 -17s-19.334 -27 -26.001 -47s-10 -42 -10 -66h135zM252.002 604.999l-52 50l130 197l103 -95z" />
    <glyph glyph-name="ecircumflex" unicode="&#xea;" horiz-adv-x="471" 
d="M87 66.5c-35.333 53 -53 123.499 -53 211.499c0 89.333 18 160.333 54 213s88.333 79 157 79c65.333 0 115.333 -26.333 150 -79s52 -123.667 52 -213c0 -5.33301 -1 -9.16602 -3 -11.499s-3 -3.83301 -3 -4.5h-267c0 -43.333 5.66699 -82.833 17 -118.5
s28.666 -53.5 51.999 -53.5c26 0 45.333 15 58 45s19.334 45.667 20.001 47l106 -40c-14 -48 -36.333 -85.833 -67 -113.5s-70.667 -41.5 -120 -41.5c-66.667 0 -117.667 26.5 -153 79.5zM309 342.999c0 40 -5.33105 71.667 -15.998 95s-27.334 35 -50.001 35
c-11.333 0 -22.333 -5.66699 -33 -17s-19.334 -27 -26.001 -47s-10 -42 -10 -66h135zM72.002 608.999l117 235h98l113 -235h-122l-47 142l-57 -142h-102z" />
    <glyph glyph-name="edieresis" unicode="&#xeb;" horiz-adv-x="471" 
d="M74 637v141h141v-141h-141zM308 637v141h141v-141h-141zM87 66.5c-35.333 53 -53 123.499 -53 211.499c0 89.333 18 160.333 54 213s88.333 79 157 79c65.333 0 115.333 -26.333 150 -79s52 -123.667 52 -213c0 -5.33301 -1 -9.16602 -3 -11.499s-3 -3.83301 -3 -4.5
h-267c0 -43.333 5.66699 -82.833 17 -118.5s28.666 -53.5 51.999 -53.5c26 0 45.333 15 58 45s19.334 45.667 20.001 47l106 -40c-14 -48 -36.333 -85.833 -67 -113.5s-70.667 -41.5 -120 -41.5c-66.667 0 -117.667 26.5 -153 79.5zM309 342.999
c0 40 -5.33105 71.667 -15.998 95s-27.334 35 -50.001 35c-11.333 0 -22.333 -5.66699 -33 -17s-19.334 -27 -26.001 -47s-10 -42 -10 -66h135z" />
    <glyph glyph-name="igrave" unicode="&#xec;" horiz-adv-x="262" 
d="M61 -6v557l140 12v-557zM148 605l-181 152l103 95l130 -197z" />
    <glyph glyph-name="iacute" unicode="&#xed;" horiz-adv-x="262" 
d="M61 -6v557l140 12v-557zM147 605l-52 50l130 197l103 -95z" />
    <glyph glyph-name="icircumflex" unicode="&#xee;" horiz-adv-x="262" 
d="M61 -6v557l140 12v-557zM-33 609l117 235h98l113 -235h-122l-47 142l-57 -142h-102z" />
    <glyph glyph-name="idieresis" unicode="&#xef;" horiz-adv-x="262" 
d="M61 -6v557l140 12v-557zM-57 629v141h141v-141h-141zM177 629v141h141v-141h-141z" />
    <glyph glyph-name="eth" unicode="&#xf0;" horiz-adv-x="491" 
d="M440.5 502.5c14.333 -51 21.499 -97.833 21.499 -140.5c0 -87.333 -5.83301 -157.833 -17.5 -211.5s-33.5 -94.334 -65.5 -122.001s-77.667 -41.5 -137 -41.5c-70 0 -121.833 23.333 -155.5 70s-50.5 121.334 -50.5 224.001c0 102 13.333 175.667 40 221
s68.334 68 125.001 68c13.333 0 27.833 -3.83301 43.5 -11.5s30.5 -17.834 44.5 -30.501c-11.333 30.667 -24.666 59 -39.999 85l-107 -23l-21 68l83 18c-15.333 18.667 -33.666 37.334 -54.999 56.001l150 18c13.333 -8.66699 27.666 -23 42.999 -43l88 19l22 -68l-68 -15
c23.333 -42.667 42.166 -89.5 56.499 -140.5zM285.999 102c11.333 10 20.167 33.166 26.5 69.499s9.5 93.5 9.5 171.5c0 24.667 -2.33301 52.334 -7 83.001c-18 27.333 -39.667 41 -65 41c-22 0 -38.167 -7.83301 -48.5 -23.5s-17 -36.167 -20 -61.5s-4.5 -59 -4.5 -101
c0 -58 4.66699 -104.833 14 -140.5s24.333 -53.5 45 -53.5c22 0 38.667 5 50 15z" />
    <glyph glyph-name="ntilde" unicode="&#xf1;" horiz-adv-x="539" 
d="M61 551l140 12.001v-72c28.667 25.333 56.834 44.833 84.501 58.5s53.167 20.5 76.5 20.5c35.333 0 64.166 -12.833 86.499 -38.5s33.5 -60.167 33.5 -103.5v-422l-140 -12v381c0 50 -17 75 -51 75c-11.333 0 -23.833 -3.33301 -37.5 -10s-31.167 -16.334 -52.5 -29.001
v-405l-140 -12v557zM305 607.001c-8.66699 4 -19.998 10 -33.998 18c-12.667 8.66699 -23.667 15 -33 19s-19.666 6 -30.999 6c-27.333 0 -55.666 -16.333 -84.999 -49l-7 90c16.667 18 32.667 32.333 48 43s32 16 50 16c9.33301 0 18.166 -1.5 26.499 -4.5
s19.5 -7.83301 33.5 -14.5c12.667 -6.66699 23.5 -11.667 32.5 -15s18.5 -5 28.5 -5c14.667 0 28.5 4 41.5 12s22.5 17 28.5 27l22 -79c0 -2 -4.33301 -9 -13 -21s-19.834 -23.167 -33.501 -33.5s-28.834 -15.5 -45.501 -15.5c-10.667 0 -20.334 2 -29.001 6z" />
    <glyph glyph-name="ograve" unicode="&#xf2;" horiz-adv-x="490" 
d="M88.5 67c-36.333 53.333 -54.501 124.333 -54.501 213c0 88 18 158.333 54 211s88 79 156 79c67.333 0 119.5 -26.333 156.5 -79s55.5 -123 55.5 -211s-18.5 -158.833 -55.5 -212.5s-89.167 -80.5 -156.5 -80.5s-119.166 26.667 -155.499 80zM301.999 146
c8.66699 36.667 13 81.666 13 134.999s-4.33301 98.333 -13 135s-28 55 -58 55s-49 -17.333 -57 -52s-12 -77 -12 -127c0 -61.333 4 -110.166 12 -146.499s27 -54.5 57 -54.5s49.333 18.333 58 55zM261.999 604.999l-181 152l103 95l130 -197z" />
    <glyph glyph-name="oacute" unicode="&#xf3;" horiz-adv-x="490" 
d="M88.5 67c-36.333 53.333 -54.501 124.333 -54.501 213c0 88 18 158.333 54 211s88 79 156 79c67.333 0 119.5 -26.333 156.5 -79s55.5 -123 55.5 -211s-18.5 -158.833 -55.5 -212.5s-89.167 -80.5 -156.5 -80.5s-119.166 26.667 -155.499 80zM301.999 146
c8.66699 36.667 13 81.666 13 134.999s-4.33301 98.333 -13 135s-28 55 -58 55s-49 -17.333 -57 -52s-12 -77 -12 -127c0 -61.333 4 -110.166 12 -146.499s27 -54.5 57 -54.5s49.333 18.333 58 55zM260.999 604.999l-52 50l130 197l103 -95z" />
    <glyph glyph-name="ocircumflex" unicode="&#xf4;" horiz-adv-x="490" 
d="M88.5 67c-36.333 53.333 -54.501 124.333 -54.501 213c0 88 18 158.333 54 211s88 79 156 79c67.333 0 119.5 -26.333 156.5 -79s55.5 -123 55.5 -211s-18.5 -158.833 -55.5 -212.5s-89.167 -80.5 -156.5 -80.5s-119.166 26.667 -155.499 80zM301.999 146
c8.66699 36.667 13 81.666 13 134.999s-4.33301 98.333 -13 135s-28 55 -58 55s-49 -17.333 -57 -52s-12 -77 -12 -127c0 -61.333 4 -110.166 12 -146.499s27 -54.5 57 -54.5s49.333 18.333 58 55zM80.999 608.999l117 235h98l113 -235h-122l-47 142l-57 -142h-102z" />
    <glyph glyph-name="otilde" unicode="&#xf5;" horiz-adv-x="490" 
d="M88.5 67c-36.333 53.333 -54.501 124.333 -54.501 213c0 88 18 158.333 54 211s88 79 156 79c67.333 0 119.5 -26.333 156.5 -79s55.5 -123 55.5 -211s-18.5 -158.833 -55.5 -212.5s-89.167 -80.5 -156.5 -80.5s-119.166 26.667 -155.499 80zM301.999 146
c8.66699 36.667 13 81.666 13 134.999s-4.33301 98.333 -13 135s-28 55 -58 55s-49 -17.333 -57 -52s-12 -77 -12 -127c0 -61.333 4 -110.166 12 -146.499s27 -54.5 57 -54.5s49.333 18.333 58 55zM279.999 606.999c-8.66699 4 -19.998 10 -33.998 18
c-12.667 8.66699 -23.667 15 -33 19s-19.666 6 -30.999 6c-27.333 0 -55.666 -16.333 -84.999 -49l-7 90c16.667 18 32.667 32.333 48 43s32 16 50 16c9.33301 0 18.166 -1.5 26.499 -4.5s19.5 -7.83301 33.5 -14.5c12.667 -6.66699 23.5 -11.667 32.5 -15s18.5 -5 28.5 -5
c14.667 0 28.5 4 41.5 12s22.5 17 28.5 27l22 -79c0 -2 -4.33301 -9 -13 -21s-19.834 -23.167 -33.501 -33.5s-28.834 -15.5 -45.501 -15.5c-10.667 0 -20.334 2 -29.001 6z" />
    <glyph glyph-name="odieresis" unicode="&#xf6;" horiz-adv-x="490" 
d="M88.5 67c-36.333 53.333 -54.501 124.333 -54.501 213c0 88 18 158.333 54 211s88 79 156 79c67.333 0 119.5 -26.333 156.5 -79s55.5 -123 55.5 -211s-18.5 -158.833 -55.5 -212.5s-89.167 -80.5 -156.5 -80.5s-119.166 26.667 -155.499 80zM301.999 146
c8.66699 36.667 13 81.666 13 134.999s-4.33301 98.333 -13 135s-28 55 -58 55s-49 -17.333 -57 -52s-12 -77 -12 -127c0 -61.333 4 -110.166 12 -146.499s27 -54.5 57 -54.5s49.333 18.333 58 55zM56.999 628.999v141h141v-141h-141zM290.999 628.999v141h141v-141h-141z
" />
    <glyph glyph-name="divide" unicode="&#xf7;" horiz-adv-x="389" 
d="M125 328v141h141v-141h-141zM31 188v93h327v-93h-327zM125 -6v147h141v-141z" />
    <glyph glyph-name="oslash" unicode="&#xf8;" horiz-adv-x="490" 
d="M434 426c14.667 -44 22 -92.667 22 -146c0 -88 -18.5 -158.833 -55.5 -212.5s-89.167 -80.5 -156.5 -80.5c-49.333 0 -91 15 -125 45l-45 -57l-87 83l66 84c-12.667 38.667 -19 84.667 -19 138c0 88 18 158.333 54 211s88 79 156 79c45.333 0 84.333 -12.333 117 -37
l41 52l88 -83zM187 419c-8 -34.667 -12 -77 -12 -127v-7l119 150c-12 24 -28.667 36 -50 36c-30 0 -49 -17.333 -57 -52zM302 146c8.66699 36.667 13.001 81.667 13.001 135v10l-123 -157c11.333 -28.667 28.666 -43 51.999 -43c30 0 49.333 18.333 58 55z" />
    <glyph glyph-name="ugrave" unicode="&#xf9;" horiz-adv-x="539" 
d="M92 25.5c-23.333 25.667 -35 60.168 -35 103.501v422l140 12v-377c0 -26.667 4.33301 -45.834 13 -57.501s22 -17.5 40 -17.5c14 0 29 3.5 45 10.5s30.333 18.167 43 33.5v396l141 12v-557l-141 -12v72c-23.333 -26.667 -48.833 -46.5 -76.5 -59.5
s-54.167 -19.5 -79.5 -19.5c-36.667 0 -66.667 12.833 -90 38.5zM287 605.001l-181 152l103 95l130 -197z" />
    <glyph glyph-name="uacute" unicode="&#xfa;" horiz-adv-x="539" 
d="M92 25.5c-23.333 25.667 -35 60.168 -35 103.501v422l140 12v-377c0 -26.667 4.33301 -45.834 13 -57.501s22 -17.5 40 -17.5c14 0 29 3.5 45 10.5s30.333 18.167 43 33.5v396l141 12v-557l-141 -12v72c-23.333 -26.667 -48.833 -46.5 -76.5 -59.5
s-54.167 -19.5 -79.5 -19.5c-36.667 0 -66.667 12.833 -90 38.5zM286 605.001l-52 50l130 197l103 -95z" />
    <glyph glyph-name="ucircumflex" unicode="&#xfb;" horiz-adv-x="539" 
d="M92 25.5c-23.333 25.667 -35 60.168 -35 103.501v422l140 12v-377c0 -26.667 4.33301 -45.834 13 -57.501s22 -17.5 40 -17.5c14 0 29 3.5 45 10.5s30.333 18.167 43 33.5v396l141 12v-557l-141 -12v72c-23.333 -26.667 -48.833 -46.5 -76.5 -59.5
s-54.167 -19.5 -79.5 -19.5c-36.667 0 -66.667 12.833 -90 38.5zM106 609.001l117 235h98l113 -235h-122l-47 142l-57 -142h-102z" />
    <glyph glyph-name="udieresis" unicode="&#xfc;" horiz-adv-x="539" 
d="M92 25.5c-23.333 25.667 -35 60.168 -35 103.501v422l140 12v-377c0 -26.667 4.33301 -45.834 13 -57.501s22 -17.5 40 -17.5c14 0 29 3.5 45 10.5s30.333 18.167 43 33.5v396l141 12v-557l-141 -12v72c-23.333 -26.667 -48.833 -46.5 -76.5 -59.5
s-54.167 -19.5 -79.5 -19.5c-36.667 0 -66.667 12.833 -90 38.5zM82 629.001v141h141v-141h-141zM316 629.001v141h141v-141h-141z" />
    <glyph glyph-name="yacute" unicode="&#xfd;" horiz-adv-x="440" 
d="M15 -172l-0.00195312 117c24.667 -1.33301 44.334 -2 59.001 -2c58.667 0 88 27.333 88 82v28l-161 503l152 7l79 -353l75 350l127 1l-144 -551c-20 -72 -49.167 -121.333 -87.5 -148s-81.166 -40 -128.499 -40c-16 0 -35.667 2 -59 6zM235.998 605l-52 50l130 197
l103 -95z" />
    <glyph glyph-name="thorn" unicode="&#xfe;" horiz-adv-x="511" 
d="M61 732l140.002 18v-242c22 22 42.5 37.833 61.5 47.5s41.167 14.5 66.5 14.5c36 0 64.5 -9.66699 85.5 -29s36.167 -49.5 45.5 -90.5s14 -95.5 14 -163.5c0 -94 -11.167 -167.5 -33.5 -220.5s-64.833 -79.5 -127.5 -79.5c-28.667 0 -51.334 5.33301 -68.001 16
s-31.334 25.667 -44.001 45v-195l-140 -28v907zM315.002 133.5c12 26.333 18 75.167 18 146.5c0 68 -5.83301 116.5 -17.5 145.5s-29.5 43.5 -53.5 43.5s-44.333 -13 -61 -39v-291c13.333 -30 34 -45 62 -45c22.667 0 40 13.167 52 39.5z" />
    <glyph glyph-name="ydieresis" unicode="&#xff;" horiz-adv-x="440" 
d="M15 -172l-0.00195312 117c24.667 -1.33301 44.334 -2 59.001 -2c58.667 0 88 27.333 88 82v28l-161 503l152 7l79 -353l75 350l127 1l-144 -551c-20 -72 -49.167 -121.333 -87.5 -148s-81.166 -40 -128.499 -40c-16 0 -35.667 2 -59 6zM31.998 629v141h141v-141h-141z
M265.998 629v141h141v-141h-141z" />
    <glyph glyph-name="Amacron" unicode="&#x100;" horiz-adv-x="552" 
d="M12 0l158 741l209 9l162 -744l-160 -6l-27 161h-179l-32 -161h-131zM202 281h125l-69 359zM135 796v94h281v-94h-281z" />
    <glyph glyph-name="amacron" unicode="&#x101;" horiz-adv-x="471" 
d="M88 9.5c-19.333 15 -34.332 35.3311 -44.999 60.998s-16 54.5 -16 86.5c0 72.667 24.833 123.834 74.5 153.501s107.5 46.5 173.5 50.5c0 36 -2.33301 62.667 -7 80s-16 26 -34 26c-15.333 0 -27 -6 -35 -18s-13 -27.333 -15 -46l-137 24
c6.66699 51.333 27.667 88 63 110s76.666 33 123.999 33c60.667 0 106.167 -16 136.5 -48s45.5 -73.667 45.5 -125v-291c0 -31.333 5 -64.666 15 -99.999l-137 -12l-16 69c-12 -21.333 -29.667 -39.333 -53 -54s-47.333 -22 -72 -22c-24 0 -45.667 7.5 -65 22.5z
M246.501 94.998c7.66699 5.33301 17.167 14 28.5 26v156c-33.333 0 -60 -9 -80 -27s-30 -46 -30 -84c0 -25.333 4.5 -44.833 13.5 -58.5s22.167 -20.5 39.5 -20.5c11.333 0 20.833 2.66699 28.5 8zM103.001 608.998v94h281v-94h-281z" />
    <glyph glyph-name="Abreve" unicode="&#x102;" horiz-adv-x="552" 
d="M12 0l158 741l209 9l162 -744l-160 -6l-27 161h-179l-32 -161h-131zM202 281h125l-69 359zM170.5 853.5c-24.333 26.333 -38.834 61.832 -43.501 106.499h84c0.666992 -2 2.66699 -8.66699 6 -20s9.83301 -19.833 19.5 -25.5s22.834 -8.5 39.501 -8.5
s29.167 2.5 37.5 7.5s13.666 10.333 15.999 16s5.83301 15.834 10.5 30.501h84c-4.66699 -44 -19 -79.333 -43 -106s-58.333 -40 -103 -40c-47.333 0 -83.166 13.167 -107.499 39.5z" />
    <glyph glyph-name="abreve" unicode="&#x103;" horiz-adv-x="471" 
d="M88 9.5c-19.333 15 -34.332 35.3311 -44.999 60.998s-16 54.5 -16 86.5c0 72.667 24.833 123.834 74.5 153.501s107.5 46.5 173.5 50.5c0 36 -2.33301 62.667 -7 80s-16 26 -34 26c-15.333 0 -27 -6 -35 -18s-13 -27.333 -15 -46l-137 24
c6.66699 51.333 27.667 88 63 110s76.666 33 123.999 33c60.667 0 106.167 -16 136.5 -48s45.5 -73.667 45.5 -125v-291c0 -31.333 5 -64.666 15 -99.999l-137 -12l-16 69c-12 -21.333 -29.667 -39.333 -53 -54s-47.333 -22 -72 -22c-24 0 -45.667 7.5 -65 22.5z
M246.501 94.998c7.66699 5.33301 17.167 14 28.5 26v156c-33.333 0 -60 -9 -80 -27s-30 -46 -30 -84c0 -25.333 4.5 -44.833 13.5 -58.5s22.167 -20.5 39.5 -20.5c11.333 0 20.833 2.66699 28.5 8zM138.501 665.498c-24.333 26.333 -38.834 61.832 -43.501 106.499h84
c0.666992 -2 2.66699 -8.66699 6 -20s9.83301 -19.833 19.5 -25.5s22.834 -8.5 39.501 -8.5s29.167 2.5 37.5 7.5s13.666 10.333 15.999 16s5.83301 15.834 10.5 30.501h84c-4.66699 -44 -19 -79.333 -43 -106s-58.333 -40 -103 -40c-47.333 0 -83.166 13.167 -107.499 39.5
z" />
    <glyph glyph-name="Aogonek" unicode="&#x104;" horiz-adv-x="552" 
d="M573 -90c-12.667 -29.333 -31.665 -53 -56.998 -71s-52.333 -27 -81 -27c-18.667 0 -36.334 5 -53.001 15s-30.167 23 -40.5 39s-15.5 32.667 -15.5 50c0 48 16.667 85 50 111l-22 134h-179l-32 -161h-131l158 741l209 9l162 -744l-90 -3c-20 -18.667 -30 -37 -30 -55
c0 -12.667 3.66699 -23 11 -31s16.666 -12 27.999 -12c24 0 43.667 14.333 59 43zM202.002 281h125l-69 359z" />
    <glyph glyph-name="aogonek" unicode="&#x105;" horiz-adv-x="471" 
d="M506 -99c-12.667 -29.333 -31.6631 -53.002 -56.9961 -71.002s-52.333 -27 -81 -27c-18.667 0 -36.334 5 -53.001 15s-30.167 23 -40.5 39s-15.5 32.667 -15.5 50c0 38 11 69.667 33 95l-14 61c-12 -21.333 -29.667 -39.333 -53 -54s-47.333 -22 -72 -22
c-24 0 -45.667 7.5 -65 22.5s-34.333 35.333 -45 61s-16 54.5 -16 86.5c0 72.667 24.833 123.834 74.5 153.501s107.5 46.5 173.5 50.5c0 36 -2.33301 62.667 -7 80s-16 26 -34 26c-15.333 0 -27 -6 -35 -18s-13 -27.333 -15 -46l-137 24c6.66699 51.333 27.667 88 63 110
s76.666 33 123.999 33c60.667 0 106.167 -16 136.5 -48s45.5 -73.667 45.5 -125v-291c0 -31.333 5 -64.666 15 -99.999l-38 -3c-12.667 -12 -22.334 -22.833 -29.001 -32.5s-10 -20.167 -10 -31.5c0 -12.667 3.66699 -23 11 -31s16.666 -12 27.999 -12
c24 0 43.667 14.333 59 43zM275.004 276.998c-33.333 0 -60 -9 -80 -27s-30 -46 -30 -84c0 -25.333 4.5 -44.833 13.5 -58.5s22.167 -20.5 39.5 -20.5c11.333 0 20.833 2.66699 28.5 8s17.167 14 28.5 26v156z" />
    <glyph glyph-name="Cacute" unicode="&#x106;" horiz-adv-x="522" 
d="M92.5 103c-35 78 -52.5 174 -52.5 288c0 61.333 8 120.333 24 177s41.833 103.5 77.5 140.5s80.834 55.5 135.501 55.5c42 0 78.833 -13 110.5 -39s56 -59.833 73 -101.5s25.5 -85.167 25.5 -130.5l-142 -7c0 30 -5 64.167 -15 102.5s-30 57.5 -60 57.5
c-31.333 0 -53 -25 -65 -75s-18 -110 -18 -180c0 -86.667 6.66699 -156.167 20 -208.5s39 -78.5 77 -78.5c26.667 0 45.667 15.833 57 47.5s18.666 70.167 21.999 115.5l125 -12c0 -48 -8 -92.5 -24 -133.5s-40 -73.833 -72 -98.5s-71 -37 -117 -37
c-86 0 -146.5 39 -181.5 117zM277 792l-52 50l130 197l103 -95z" />
    <glyph glyph-name="cacute" unicode="&#x107;" horiz-adv-x="445" 
d="M238 604l-52 50l130 197l103 -95zM125.5 27c-30.333 26.667 -53.168 61.9971 -68.501 105.997s-23 91.667 -23 143c0 50.667 7.5 98.334 22.5 143.001s37.833 81 68.5 109s68.334 42 113.001 42c34 0 64.5 -8.5 91.5 -25.5s48.167 -40.833 63.5 -71.5
s23.666 -65.667 24.999 -105l-133 -6c0 2.66699 -1.16699 13.334 -3.5 32.001s-7.33301 34 -15 46s-17.5 18 -29.5 18c-26.667 0 -43.667 -18.167 -51 -54.5s-11 -77.166 -11 -122.499c0 -44.667 3.83301 -85.167 11.5 -121.5s25.834 -54.5 54.501 -54.5
c36 0 54.667 35.333 56 106l118 -13c-8.66699 -69.333 -26 -121.833 -52 -157.5s-68.667 -53.5 -128 -53.5c-42.667 0 -79.167 13.333 -109.5 40z" />
    <glyph glyph-name="Ccircumflex" unicode="&#x108;" horiz-adv-x="522" 
d="M92.5 103c-35 78 -52.5 174 -52.5 288c0 61.333 8 120.333 24 177s41.833 103.5 77.5 140.5s80.834 55.5 135.501 55.5c42 0 78.833 -13 110.5 -39s56 -59.833 73 -101.5s25.5 -85.167 25.5 -130.5l-142 -7c0 30 -5 64.167 -15 102.5s-30 57.5 -60 57.5
c-31.333 0 -53 -25 -65 -75s-18 -110 -18 -180c0 -86.667 6.66699 -156.167 20 -208.5s39 -78.5 77 -78.5c26.667 0 45.667 15.833 57 47.5s18.666 70.167 21.999 115.5l125 -12c0 -48 -8 -92.5 -24 -133.5s-40 -73.833 -72 -98.5s-71 -37 -117 -37
c-86 0 -146.5 39 -181.5 117zM97 796l117 235h98l113 -235h-122l-47 142l-57 -142h-102z" />
    <glyph glyph-name="ccircumflex" unicode="&#x109;" horiz-adv-x="445" 
d="M125.5 27c-30.333 26.667 -53.168 61.9971 -68.501 105.997s-23 91.667 -23 143c0 50.667 7.5 98.334 22.5 143.001s37.833 81 68.5 109s68.334 42 113.001 42c34 0 64.5 -8.5 91.5 -25.5s48.167 -40.833 63.5 -71.5s23.666 -65.667 24.999 -105l-133 -6
c0 2.66699 -1.16699 13.334 -3.5 32.001s-7.33301 34 -15 46s-17.5 18 -29.5 18c-26.667 0 -43.667 -18.167 -51 -54.5s-11 -77.166 -11 -122.499c0 -44.667 3.83301 -85.167 11.5 -121.5s25.834 -54.5 54.501 -54.5c36 0 54.667 35.333 56 106l118 -13
c-8.66699 -69.333 -26 -121.833 -52 -157.5s-68.667 -53.5 -128 -53.5c-42.667 0 -79.167 13.333 -109.5 40zM58.998 608.997l117 235h98l113 -235h-122l-47 142l-57 -142h-102z" />
    <glyph glyph-name="Cdotaccent" unicode="&#x10a;" horiz-adv-x="522" 
d="M92.5 103c-35 78 -52.5 174 -52.5 288c0 61.333 8 120.333 24 177s41.833 103.5 77.5 140.5s80.834 55.5 135.501 55.5c42 0 78.833 -13 110.5 -39s56 -59.833 73 -101.5s25.5 -85.167 25.5 -130.5l-142 -7c0 30 -5 64.167 -15 102.5s-30 57.5 -60 57.5
c-31.333 0 -53 -25 -65 -75s-18 -110 -18 -180c0 -86.667 6.66699 -156.167 20 -208.5s39 -78.5 77 -78.5c26.667 0 45.667 15.833 57 47.5s18.666 70.167 21.999 115.5l125 -12c0 -48 -8 -92.5 -24 -133.5s-40 -73.833 -72 -98.5s-71 -37 -117 -37
c-86 0 -146.5 39 -181.5 117zM190 796v141h141v-141h-141z" />
    <glyph glyph-name="cdotaccent" unicode="&#x10b;" horiz-adv-x="445" 
d="M125.5 27c-30.333 26.667 -53.168 61.9971 -68.501 105.997s-23 91.667 -23 143c0 50.667 7.5 98.334 22.5 143.001s37.833 81 68.5 109s68.334 42 113.001 42c34 0 64.5 -8.5 91.5 -25.5s48.167 -40.833 63.5 -71.5s23.666 -65.667 24.999 -105l-133 -6
c0 2.66699 -1.16699 13.334 -3.5 32.001s-7.33301 34 -15 46s-17.5 18 -29.5 18c-26.667 0 -43.667 -18.167 -51 -54.5s-11 -77.166 -11 -122.499c0 -44.667 3.83301 -85.167 11.5 -121.5s25.834 -54.5 54.501 -54.5c36 0 54.667 35.333 56 106l118 -13
c-8.66699 -69.333 -26 -121.833 -52 -157.5s-68.667 -53.5 -128 -53.5c-42.667 0 -79.167 13.333 -109.5 40zM151.998 608.997v141h141v-141h-141z" />
    <glyph glyph-name="Ccaron" unicode="&#x10c;" horiz-adv-x="522" 
d="M92.5 103c-35 78 -52.5 174 -52.5 288c0 61.333 8 120.333 24 177s41.833 103.5 77.5 140.5s80.834 55.5 135.501 55.5c42 0 78.833 -13 110.5 -39s56 -59.833 73 -101.5s25.5 -85.167 25.5 -130.5l-142 -7c0 30 -5 64.167 -15 102.5s-30 57.5 -60 57.5
c-31.333 0 -53 -25 -65 -75s-18 -110 -18 -180c0 -86.667 6.66699 -156.167 20 -208.5s39 -78.5 77 -78.5c26.667 0 45.667 15.833 57 47.5s18.666 70.167 21.999 115.5l125 -12c0 -48 -8 -92.5 -24 -133.5s-40 -73.833 -72 -98.5s-71 -37 -117 -37
c-86 0 -146.5 39 -181.5 117zM214 796l-117 235h102l57 -142l47 142h122l-113 -235h-98z" />
    <glyph glyph-name="ccaron" unicode="&#x10d;" horiz-adv-x="445" 
d="M125.5 27c-30.333 26.667 -53.168 61.9971 -68.501 105.997s-23 91.667 -23 143c0 50.667 7.5 98.334 22.5 143.001s37.833 81 68.5 109s68.334 42 113.001 42c34 0 64.5 -8.5 91.5 -25.5s48.167 -40.833 63.5 -71.5s23.666 -65.667 24.999 -105l-133 -6
c0 2.66699 -1.16699 13.334 -3.5 32.001s-7.33301 34 -15 46s-17.5 18 -29.5 18c-26.667 0 -43.667 -18.167 -51 -54.5s-11 -77.166 -11 -122.499c0 -44.667 3.83301 -85.167 11.5 -121.5s25.834 -54.5 54.501 -54.5c36 0 54.667 35.333 56 106l118 -13
c-8.66699 -69.333 -26 -121.833 -52 -157.5s-68.667 -53.5 -128 -53.5c-42.667 0 -79.167 13.333 -109.5 40zM175.998 608.997l-117 235h102l57 -142l47 142h122l-113 -235h-98z" />
    <glyph glyph-name="Dcaron" unicode="&#x10e;" horiz-adv-x="554" 
d="M70 750l153.999 0.000976562c98.667 0 172.334 -31.333 221.001 -94s73 -157.334 73 -284.001c0 -67.333 -9.16699 -129 -27.5 -185s-47.5 -101.167 -87.5 -135.5s-91 -51.5 -153 -51.5h-180v750zM236.999 117.001c50.667 0 85.833 21.833 105.5 65.5
s29.5 97.5 29.5 161.5v34c0 46 -2.83301 86.833 -8.5 122.5s-18.667 66.667 -39 93s-50.833 39.5 -91.5 39.5h-17v-516h21zM186.998 796.001l-117 235h102l57 -142l47 142h122l-113 -235h-98z" />
    <glyph glyph-name="dcaron" unicode="&#x10f;" horiz-adv-x="642" 
d="M38 281c0 70 5.16797 126 15.501 168s26.833 72.667 49.5 92s52.667 29 90 29c14.667 0 29.667 -3.83301 45 -11.5s29.666 -17.5 42.999 -29.5c13.333 -11.333 26.333 -25 39 -41v244l141 18v-744l-107 -12l-34 76c-4 -14.667 -11 -28.667 -21 -42
c-22 -27.333 -55 -41 -99 -41c-108 0 -162 98 -162 294zM553.001 563c20 0 33.666 7.66699 40.999 23c2.66699 6.66699 4.66699 14.334 6 23.001l-71 -5v146h141v-141c0 -32 -5.5 -58 -16.5 -78s-25.167 -35 -42.5 -45c-17.333 -10.667 -36.666 -16.334 -57.999 -17.001v94z
M301 120.5c12.667 22.333 19.001 60.1689 19.001 113.502v188c-9.33301 10.667 -16.333 18 -21 22c-16.667 15.333 -32.334 23 -47.001 23c-22 0 -38.167 -7.83301 -48.5 -23.5s-17 -36.167 -20 -61.5s-4.5 -59 -4.5 -101c0 -42.667 1.5 -77.334 4.5 -104.001
s9.83301 -48.334 20.5 -65.001s26.667 -25 48 -25c20 0 36.333 11.167 49 33.5z" />
    <glyph glyph-name="Dcroat" unicode="&#x110;" horiz-adv-x="556" 
d="M447 656c48.667 -62.667 72.999 -157.333 72.999 -284c0 -67.333 -9.16699 -129 -27.5 -185s-47.5 -101.167 -87.5 -135.5s-91.333 -51.5 -154 -51.5h-179v328h-70v94h70v328h154c98.667 0 172.334 -31.333 221.001 -94zM373.999 378.001
c0 46 -2.83398 86.833 -8.50098 122.5s-18.667 66.667 -39 93s-50.833 39.5 -91.5 39.5h-17v-211h66v-94h-66v-211h21c50.667 0 85.834 21.833 105.501 65.5s29.5 97.5 29.5 161.5v34z" />
    <glyph glyph-name="dcroat" unicode="&#x111;" horiz-adv-x="518" 
d="M518 595h-59.001v-589l-106 -12l-35 76c-6.66699 -24.667 -19 -44.667 -37 -60s-45.667 -23 -83 -23c-108 0 -162 98 -162 294c0 102 13.333 175.667 40 221s68.334 68 125.001 68c24 0 47 -7.83301 69 -23.5s38 -35.167 48 -58.5v107h-111v97h111v40l141 18v-58h59v-97z
M317.999 422c-19.333 30 -42 45.0029 -68 45.0029c-22 0 -38.167 -7.83301 -48.5 -23.5s-17 -36.167 -20 -61.5s-4.5 -59 -4.5 -101c0 -42.667 1.5 -77.334 4.5 -104.001s9.83301 -48.334 20.5 -65.001s26.667 -25 48 -25c20 0 36.333 11.167 49 33.5s19 60.166 19 113.499
v188z" />
    <glyph glyph-name="Emacron" unicode="&#x112;" horiz-adv-x="483" 
d="M70 0v750h381l-12 -117h-222v-179h158l-1 -126h-157v-211h242l-12 -117h-377zM101 796v94h281v-94h-281z" />
    <glyph glyph-name="emacron" unicode="&#x113;" horiz-adv-x="471" 
d="M87 66.5c-35.333 53 -53 123.499 -53 211.499c0 89.333 18 160.333 54 213s88.333 79 157 79c65.333 0 115.333 -26.333 150 -79s52 -123.667 52 -213c0 -5.33301 -1 -9.16602 -3 -11.499s-3 -3.83301 -3 -4.5h-267c0 -43.333 5.66699 -82.833 17 -118.5
s28.666 -53.5 51.999 -53.5c26 0 45.333 15 58 45s19.334 45.667 20.001 47l106 -40c-14 -48 -36.333 -85.833 -67 -113.5s-70.667 -41.5 -120 -41.5c-66.667 0 -117.667 26.5 -153 79.5zM309 342.999c0 40 -5.33105 71.667 -15.998 95s-27.334 35 -50.001 35
c-11.333 0 -22.333 -5.66699 -33 -17s-19.334 -27 -26.001 -47s-10 -42 -10 -66h135zM95.002 608.999v94h281v-94h-281z" />
    <glyph glyph-name="Ebreve" unicode="&#x114;" horiz-adv-x="483" 
d="M70 0v750h381l-12 -117h-222v-179h158l-1 -126h-157v-211h242l-12 -117h-377zM136.5 852.5c-24.333 26.333 -38.834 61.832 -43.501 106.499h84c0.666992 -2 2.66699 -8.66699 6 -20s9.83301 -19.833 19.5 -25.5s22.834 -8.5 39.501 -8.5s29.167 2.5 37.5 7.5
s13.666 10.333 15.999 16s5.83301 15.834 10.5 30.501h84c-4.66699 -44 -19 -79.333 -43 -106s-58.333 -40 -103 -40c-47.333 0 -83.166 13.167 -107.499 39.5z" />
    <glyph glyph-name="ebreve" unicode="&#x115;" horiz-adv-x="471" 
d="M167.5 681.5c-24.333 26.333 -38.834 61.832 -43.501 106.499h84c0.666992 -2 2.66699 -8.66699 6 -20s9.83301 -19.833 19.5 -25.5s22.834 -8.5 39.501 -8.5s29.167 2.5 37.5 7.5s13.666 10.333 15.999 16s5.83301 15.834 10.5 30.501h84
c-4.66699 -44 -19 -79.333 -43 -106s-58.333 -40 -103 -40c-47.333 0 -83.166 13.167 -107.499 39.5zM86.999 66.499c-35.333 53 -53 123.499 -53 211.499c0 89.333 18 160.333 54 213s88.333 79 157 79c65.333 0 115.333 -26.333 150 -79s52 -123.667 52 -213
c0 -5.33301 -1 -9.16602 -3 -11.499s-3 -3.83301 -3 -4.5h-267c0 -43.333 5.66699 -82.833 17 -118.5s28.666 -53.5 51.999 -53.5c26 0 45.333 15 58 45s19.334 45.667 20.001 47l106 -40c-14 -48 -36.333 -85.833 -67 -113.5s-70.667 -41.5 -120 -41.5
c-66.667 0 -117.667 26.5 -153 79.5zM308.999 342.998c0 40 -5.33105 71.667 -15.998 95s-27.334 35 -50.001 35c-11.333 0 -22.333 -5.66699 -33 -17s-19.334 -27 -26.001 -47s-10 -42 -10 -66h135z" />
    <glyph glyph-name="Edotaccent" unicode="&#x116;" horiz-adv-x="483" 
d="M70 0v750h381l-12 -117h-222v-179h158l-1 -126h-157v-211h242l-12 -117h-377zM171 796v141h141v-141h-141z" />
    <glyph glyph-name="edotaccent" unicode="&#x117;" horiz-adv-x="471" 
d="M174 630v141h141v-141h-141zM87 66.5c-35.333 53 -53 123.499 -53 211.499c0 89.333 18 160.333 54 213s88.333 79 157 79c65.333 0 115.333 -26.333 150 -79s52 -123.667 52 -213c0 -5.33301 -1 -9.16602 -3 -11.499s-3 -3.83301 -3 -4.5h-267
c0 -43.333 5.66699 -82.833 17 -118.5s28.666 -53.5 51.999 -53.5c26 0 45.333 15 58 45s19.334 45.667 20.001 47l106 -40c-14 -48 -36.333 -85.833 -67 -113.5s-70.667 -41.5 -120 -41.5c-66.667 0 -117.667 26.5 -153 79.5zM309 342.999c0 40 -5.33105 71.667 -15.998 95
s-27.334 35 -50.001 35c-11.333 0 -22.333 -5.66699 -33 -17s-19.334 -27 -26.001 -47s-10 -42 -10 -66h135z" />
    <glyph glyph-name="Eogonek" unicode="&#x118;" horiz-adv-x="483" 
d="M465 -95c-12.667 -29.333 -31.665 -53.001 -56.998 -71.001s-52.333 -27 -81 -27c-18.667 0 -36.334 5 -53.001 15s-30.167 23 -40.5 39s-15.5 32.667 -15.5 50c0 34.667 9.33301 64.334 28 89.001h-176v750h381l-12 -117h-222v-179h158l-1 -126h-157v-211h242l-12 -117
h-102c-10 -10 -17.833 -19.5 -23.5 -28.5s-8.5 -18.5 -8.5 -28.5c0 -12.667 3.66699 -23 11 -31s16.666 -12 27.999 -12c24 0 43.667 14.333 59 43z" />
    <glyph glyph-name="eogonek" unicode="&#x119;" horiz-adv-x="471" 
d="M452 -90c-12.667 -29.333 -31.666 -53.001 -56.999 -71.001s-52.333 -27 -81 -27c-18.667 0 -36.334 5 -53.001 15s-30.167 23 -40.5 39s-15.5 32.667 -15.5 50c0 27.333 5.66699 51.333 17 72c-60.667 4.66699 -107.167 33.167 -139.5 85.5s-48.5 120.5 -48.5 204.5
c0 89.333 18 160.333 54 213s88.333 79 157 79c65.333 0 115.333 -26.333 150 -79s52 -123.667 52 -213c0 -5.33301 -1 -9.16602 -3 -11.499s-3 -3.83301 -3 -4.5h-267c0 -43.333 5.66699 -82.833 17 -118.5s28.666 -53.5 51.999 -53.5c26 0 45.333 15 58 45
s19.334 45.667 20.001 47l106 -40c-5.33301 -26 -15.166 -48.667 -29.499 -68s-31.833 -38.333 -52.5 -57c-14.667 -13.333 -25.834 -25 -33.501 -35s-11.5 -21.333 -11.5 -34c0 -13.333 3.83301 -23.833 11.5 -31.5s18.5 -11.5 32.5 -11.5c20.667 0 38.667 14.333 54 43z
M210.001 455.999c-10.667 -11.333 -19.332 -27 -25.999 -47s-10 -42 -10 -66h135c0 40 -5.33301 71.667 -16 95s-27.334 35 -50.001 35c-11.333 0 -22.333 -5.66699 -33 -17z" />
    <glyph glyph-name="Ecaron" unicode="&#x11a;" horiz-adv-x="483" 
d="M70 0v750h381l-12 -117h-222v-179h158l-1 -126h-157v-211h242l-12 -117h-377zM195 796l-117 235h102l57 -142l47 142h122l-113 -235h-98z" />
    <glyph glyph-name="ecaron" unicode="&#x11b;" horiz-adv-x="471" 
d="M209 629l-117 235h102l57 -142l47 142h122l-113 -235h-98zM87 66.5c-35.333 53 -53 123.499 -53 211.499c0 89.333 18 160.333 54 213s88.333 79 157 79c65.333 0 115.333 -26.333 150 -79s52 -123.667 52 -213c0 -5.33301 -1 -9.16602 -3 -11.499s-3 -3.83301 -3 -4.5
h-267c0 -43.333 5.66699 -82.833 17 -118.5s28.666 -53.5 51.999 -53.5c26 0 45.333 15 58 45s19.334 45.667 20.001 47l106 -40c-14 -48 -36.333 -85.833 -67 -113.5s-70.667 -41.5 -120 -41.5c-66.667 0 -117.667 26.5 -153 79.5zM309 342.999
c0 40 -5.33105 71.667 -15.998 95s-27.334 35 -50.001 35c-11.333 0 -22.333 -5.66699 -33 -17s-19.334 -27 -26.001 -47s-10 -42 -10 -66h135z" />
    <glyph glyph-name="Gcircumflex" unicode="&#x11c;" horiz-adv-x="553" 
d="M91.5 97c-34.333 74 -51.499 167.668 -51.499 281.001c0 63.333 8.16699 124.333 24.5 183s42.666 107.167 78.999 145.5s82.833 57.5 139.5 57.5c48.667 0 89.167 -11.833 121.5 -35.5s56.333 -55 72 -94s23.5 -82.167 23.5 -129.5l-139 -9l-3 21
c-4 39.333 -11 70.666 -21 93.999s-28.667 35 -56 35c-34.667 0 -59.167 -27.833 -73.5 -83.5s-21.5 -119.834 -21.5 -192.501c0 -51.333 1.66699 -95 5 -131s12 -67.5 26 -94.5s35.667 -40.5 65 -40.5c24.667 0 44.167 15.333 58.5 46s21.5 68.334 21.5 113.001h-74l12 112
h203v-369l-56 -6l-34 139c-6 -26 -13.5 -49.333 -22.5 -70s-24.5 -39.667 -46.5 -57s-52 -26 -90 -26c-74 0 -128.167 37 -162.5 111zM112.001 796.001l117 235h98l113 -235h-122l-47 142l-57 -142h-102z" />
    <glyph glyph-name="gcircumflex" unicode="&#x11d;" horiz-adv-x="532" 
d="M100 611l117 235h98l113 -235h-122l-47 142l-57 -142h-102zM78 -143.5c-41.333 21 -61.999 49.8359 -61.999 86.5029c0 25.333 9.33301 46.833 28 64.5s42.334 31.834 71.001 42.501c-25.333 7.33301 -44.333 16.666 -57 27.999s-19 27.666 -19 48.999
c0 26 9 49.5 27 70.5s41.667 38.5 71 52.5c-60 34.667 -90 83 -90 145c0 37.333 10.167 69.166 30.5 95.499s46.666 46.166 78.999 59.499s66.166 20 101.499 20c52.667 0 99.334 -14 140.001 -42c20 18 40.167 33 60.5 45s45.833 18 76.5 18v-93
c-38.667 0 -68.334 -4.66699 -89.001 -14c8 -20.667 13.5 -37 16.5 -49s4.5 -25 4.5 -39c0 -45.333 -15.333 -84.833 -46 -118.5s-80.667 -50.5 -150 -50.5l-37 1c-6 0.666992 -13.333 1 -22 1c-8.66699 -2.66699 -17 -8.5 -25 -17.5s-12 -18.5 -12 -28.5
c0 -9.33301 3.33301 -17.333 10 -24s15 -10.667 25 -12l160 -18c92.667 -10.667 139 -55.667 139 -135c0 -62 -23.833 -105.667 -71.5 -131s-109.5 -38 -185.5 -38c-74.667 0 -132.667 10.5 -174 31.5zM304.001 330.503c11.333 15.667 17 37.834 17 66.501
c0 29.333 -6 51.333 -18 66s-27.333 22 -46 22c-20.667 0 -37 -8.33301 -49 -25s-18 -37.334 -18 -62.001c0 -22.667 5 -43.5 15 -62.5s27 -28.5 51 -28.5c20.667 0 36.667 7.83301 48 23.5zM372.001 -10.9971c0 11.333 -3 19.668 -9 25.001s-15.5 9.16602 -28.5 11.499
s-34.167 4.5 -63.5 6.5l-83 7c-12 -4 -22.333 -11.167 -31 -21.5s-13 -21.833 -13 -34.5c0 -18 9.5 -31.833 28.5 -41.5s47.5 -14.5 85.5 -14.5c76 0 114 20.667 114 62z" />
    <glyph glyph-name="Gbreve" unicode="&#x11e;" horiz-adv-x="553" 
d="M91.5 97c-34.333 74 -51.499 167.668 -51.499 281.001c0 63.333 8.16699 124.333 24.5 183s42.666 107.167 78.999 145.5s82.833 57.5 139.5 57.5c48.667 0 89.167 -11.833 121.5 -35.5s56.333 -55 72 -94s23.5 -82.167 23.5 -129.5l-139 -9l-3 21
c-4 39.333 -11 70.666 -21 93.999s-28.667 35 -56 35c-34.667 0 -59.167 -27.833 -73.5 -83.5s-21.5 -119.834 -21.5 -192.501c0 -51.333 1.66699 -95 5 -131s12 -67.5 26 -94.5s35.667 -40.5 65 -40.5c24.667 0 44.167 15.333 58.5 46s21.5 68.334 21.5 113.001h-74l12 112
h203v-369l-56 -6l-34 139c-6 -26 -13.5 -49.333 -22.5 -70s-24.5 -39.667 -46.5 -57s-52 -26 -90 -26c-74 0 -128.167 37 -162.5 111zM170.501 852.501c-24.333 26.333 -38.834 61.832 -43.501 106.499h84c0.666992 -2 2.66699 -8.66699 6 -20s9.83301 -19.833 19.5 -25.5
s22.834 -8.5 39.501 -8.5s29.167 2.5 37.5 7.5s13.666 10.333 15.999 16s5.83301 15.834 10.5 30.501h84c-4.66699 -44 -19 -79.333 -43 -106s-58.333 -40 -103 -40c-47.333 0 -83.166 13.167 -107.499 39.5z" />
    <glyph glyph-name="gbreve" unicode="&#x11f;" horiz-adv-x="532" 
d="M178.5 681.5c-24.333 26.333 -38.834 61.832 -43.501 106.499h84c0.666992 -2 2.66699 -8.66699 6 -20s9.83301 -19.833 19.5 -25.5s22.834 -8.5 39.501 -8.5s29.167 2.5 37.5 7.5s13.666 10.333 15.999 16s5.83301 15.834 10.5 30.501h84
c-4.66699 -44 -19 -79.333 -43 -106s-58.333 -40 -103 -40c-47.333 0 -83.166 13.167 -107.499 39.5zM77.999 -143.501c-41.333 21 -61.999 49.8359 -61.999 86.5029c0 25.333 9.33301 46.833 28 64.5s42.334 31.834 71.001 42.501
c-25.333 7.33301 -44.333 16.666 -57 27.999s-19 27.666 -19 48.999c0 26 9 49.5 27 70.5s41.667 38.5 71 52.5c-60 34.667 -90 83 -90 145c0 37.333 10.167 69.166 30.5 95.499s46.666 46.166 78.999 59.499s66.166 20 101.499 20c52.667 0 99.334 -14 140.001 -42
c20 18 40.167 33 60.5 45s45.833 18 76.5 18v-93c-38.667 0 -68.334 -4.66699 -89.001 -14c8 -20.667 13.5 -37 16.5 -49s4.5 -25 4.5 -39c0 -45.333 -15.333 -84.833 -46 -118.5s-80.667 -50.5 -150 -50.5l-37 1c-6 0.666992 -13.333 1 -22 1
c-8.66699 -2.66699 -17 -8.5 -25 -17.5s-12 -18.5 -12 -28.5c0 -9.33301 3.33301 -17.333 10 -24s15 -10.667 25 -12l160 -18c92.667 -10.667 139 -55.667 139 -135c0 -62 -23.833 -105.667 -71.5 -131s-109.5 -38 -185.5 -38c-74.667 0 -132.667 10.5 -174 31.5z
M304 330.502c11.333 15.667 17 37.834 17 66.501c0 29.333 -6 51.333 -18 66s-27.333 22 -46 22c-20.667 0 -37 -8.33301 -49 -25s-18 -37.334 -18 -62.001c0 -22.667 5 -43.5 15 -62.5s27 -28.5 51 -28.5c20.667 0 36.667 7.83301 48 23.5zM372 -10.998
c0 11.333 -3 19.668 -9 25.001s-15.5 9.16602 -28.5 11.499s-34.167 4.5 -63.5 6.5l-83 7c-12 -4 -22.333 -11.167 -31 -21.5s-13 -21.833 -13 -34.5c0 -18 9.5 -31.833 28.5 -41.5s47.5 -14.5 85.5 -14.5c76 0 114 20.667 114 62z" />
    <glyph glyph-name="Gdotaccent" unicode="&#x120;" horiz-adv-x="553" 
d="M91.5 97c-34.333 74 -51.499 167.668 -51.499 281.001c0 63.333 8.16699 124.333 24.5 183s42.666 107.167 78.999 145.5s82.833 57.5 139.5 57.5c48.667 0 89.167 -11.833 121.5 -35.5s56.333 -55 72 -94s23.5 -82.167 23.5 -129.5l-139 -9l-3 21
c-4 39.333 -11 70.666 -21 93.999s-28.667 35 -56 35c-34.667 0 -59.167 -27.833 -73.5 -83.5s-21.5 -119.834 -21.5 -192.501c0 -51.333 1.66699 -95 5 -131s12 -67.5 26 -94.5s35.667 -40.5 65 -40.5c24.667 0 44.167 15.333 58.5 46s21.5 68.334 21.5 113.001h-74l12 112
h203v-369l-56 -6l-34 139c-6 -26 -13.5 -49.333 -22.5 -70s-24.5 -39.667 -46.5 -57s-52 -26 -90 -26c-74 0 -128.167 37 -162.5 111zM205.001 796.001v141h141v-141h-141z" />
    <glyph glyph-name="gdotaccent" unicode="&#x121;" horiz-adv-x="532" 
d="M185 630v141h141v-141h-141zM78 -143.5c-41.333 21 -61.999 49.8359 -61.999 86.5029c0 25.333 9.33301 46.833 28 64.5s42.334 31.834 71.001 42.501c-25.333 7.33301 -44.333 16.666 -57 27.999s-19 27.666 -19 48.999c0 26 9 49.5 27 70.5s41.667 38.5 71 52.5
c-60 34.667 -90 83 -90 145c0 37.333 10.167 69.166 30.5 95.499s46.666 46.166 78.999 59.499s66.166 20 101.499 20c52.667 0 99.334 -14 140.001 -42c20 18 40.167 33 60.5 45s45.833 18 76.5 18v-93c-38.667 0 -68.334 -4.66699 -89.001 -14
c8 -20.667 13.5 -37 16.5 -49s4.5 -25 4.5 -39c0 -45.333 -15.333 -84.833 -46 -118.5s-80.667 -50.5 -150 -50.5l-37 1c-6 0.666992 -13.333 1 -22 1c-8.66699 -2.66699 -17 -8.5 -25 -17.5s-12 -18.5 -12 -28.5c0 -9.33301 3.33301 -17.333 10 -24s15 -10.667 25 -12
l160 -18c92.667 -10.667 139 -55.667 139 -135c0 -62 -23.833 -105.667 -71.5 -131s-109.5 -38 -185.5 -38c-74.667 0 -132.667 10.5 -174 31.5zM304.001 330.503c11.333 15.667 17 37.834 17 66.501c0 29.333 -6 51.333 -18 66s-27.333 22 -46 22
c-20.667 0 -37 -8.33301 -49 -25s-18 -37.334 -18 -62.001c0 -22.667 5 -43.5 15 -62.5s27 -28.5 51 -28.5c20.667 0 36.667 7.83301 48 23.5zM372.001 -10.9971c0 11.333 -3 19.668 -9 25.001s-15.5 9.16602 -28.5 11.499s-34.167 4.5 -63.5 6.5l-83 7
c-12 -4 -22.333 -11.167 -31 -21.5s-13 -21.833 -13 -34.5c0 -18 9.5 -31.833 28.5 -41.5s47.5 -14.5 85.5 -14.5c76 0 114 20.667 114 62z" />
    <glyph glyph-name="Gcommaaccent" unicode="&#x122;" horiz-adv-x="553" 
d="M91.5 97c-34.333 74 -51.499 167.668 -51.499 281.001c0 63.333 8.16699 124.333 24.5 183s42.666 107.167 78.999 145.5s82.833 57.5 139.5 57.5c48.667 0 89.167 -11.833 121.5 -35.5s56.333 -55 72 -94s23.5 -82.167 23.5 -129.5l-139 -9l-3 21
c-4 39.333 -11 70.666 -21 93.999s-28.667 35 -56 35c-34.667 0 -59.167 -27.833 -73.5 -83.5s-21.5 -119.834 -21.5 -192.501c0 -51.333 1.66699 -95 5 -131s12 -67.5 26 -94.5s35.667 -40.5 65 -40.5c24.667 0 44.167 15.333 58.5 46s21.5 68.334 21.5 113.001h-74l12 112
h203v-369l-56 -6l-34 139c-6 -26 -13.5 -49.333 -22.5 -70s-24.5 -39.667 -46.5 -57s-52 -26 -90 -26c-74 0 -128.167 37 -162.5 111zM257.001 -235.999c19.333 0 32.999 8 40.999 24c2.66699 6 4.66699 13.667 6 23h-71v141h141v-141c0 -32 -5.5 -58 -16.5 -78
s-25.167 -35 -42.5 -45s-36.666 -16 -57.999 -18v94z" />
    <glyph glyph-name="gcommaaccent" unicode="&#x123;" horiz-adv-x="542" 
d="M202 797c0 46.667 13.6689 81.333 41.002 104s60.666 35 99.999 37v-94c-22.667 0 -39.834 -4.5 -51.501 -13.5s-18.167 -20.167 -19.5 -33.5h95v-155l-165 -6v161zM78.002 -143.501c-41.333 21 -61.999 49.8359 -61.999 86.5029c0 25.333 9.33301 46.833 28 64.5
s42.334 31.834 71.001 42.501c-25.333 7.33301 -44.333 16.666 -57 27.999s-19 27.666 -19 48.999c0 26 9 49.5 27 70.5s41.667 38.5 71 52.5c-60 34.667 -90 83 -90 145c0 37.333 10.167 69.166 30.5 95.499s46.666 46.166 78.999 59.499s66.166 20 101.499 20
c52.667 0 99.334 -14 140.001 -42c20 18 40.167 33 60.5 45s45.833 18 76.5 18v-93c-38.667 0 -68.334 -4.66699 -89.001 -14c8 -20.667 13.5 -37 16.5 -49s4.5 -25 4.5 -39c0 -45.333 -15.333 -84.833 -46 -118.5s-80.667 -50.5 -150 -50.5l-37 1
c-6 0.666992 -13.333 1 -22 1c-8.66699 -2.66699 -17 -8.5 -25 -17.5s-12 -18.5 -12 -28.5c0 -9.33301 3.33301 -17.333 10 -24s15 -10.667 25 -12l160 -18c92.667 -10.667 139 -55.667 139 -135c0 -62 -23.833 -105.667 -71.5 -131s-109.5 -38 -185.5 -38
c-74.667 0 -132.667 10.5 -174 31.5zM304.003 330.502c11.333 15.667 17 37.834 17 66.501c0 29.333 -6 51.333 -18 66s-27.333 22 -46 22c-20.667 0 -37 -8.33301 -49 -25s-18 -37.334 -18 -62.001c0 -22.667 5 -43.5 15 -62.5s27 -28.5 51 -28.5
c20.667 0 36.667 7.83301 48 23.5zM372.003 -10.998c0 11.333 -3 19.668 -9 25.001s-15.5 9.16602 -28.5 11.499s-34.167 4.5 -63.5 6.5l-83 7c-12 -4 -22.333 -11.167 -31 -21.5s-13 -21.833 -13 -34.5c0 -18 9.5 -31.833 28.5 -41.5s47.5 -14.5 85.5 -14.5
c76 0 114 20.667 114 62z" />
    <glyph glyph-name="Hcircumflex" unicode="&#x124;" horiz-adv-x="574" 
d="M70 -6v744l147 12v-304h140v292l147 12v-744l-147 -12v318h-140v-306zM123 796l117 235h98l113 -235h-122l-47 142l-57 -142h-102z" />
    <glyph glyph-name="hcircumflex" unicode="&#x125;" horiz-adv-x="539" 
d="M61 732l140.001 18v-259c57.333 52.667 111 79 161 79c35.333 0 64.166 -12.833 86.499 -38.5s33.5 -60.167 33.5 -103.5v-422l-140 -12v383c0 24.667 -4.5 43 -13.5 55s-20.833 18 -35.5 18c-12 0 -24.667 -3 -38 -9s-31.333 -15.667 -54 -29v-406l-140 -12v738z
M-34.999 796l117 235h98l113 -235h-122l-47 142l-57 -142h-102z" />
    <glyph glyph-name="Hbar" unicode="&#x126;" horiz-adv-x="576" 
d="M71 -6v573h-58v89h58v82l146 12v-94h141v82l146 12v-94h52v-89h-52v-561l-146 -12v318h-141v-306zM217 446h141v121h-141v-121z" />
    <glyph glyph-name="hbar" unicode="&#x127;" horiz-adv-x="539" 
d="M448.5 531.5c22.333 -25.667 33.501 -60.167 33.501 -103.5v-422l-140 -12v383c0 24.667 -4.5 43 -13.5 55s-20.833 18 -35.5 18c-12 0 -24.667 -3 -38 -9s-31.333 -15.667 -54 -29v-406l-140 -12v589h-77v94h77v55l140 18v-73h111v-94h-111v-92
c57.333 52.667 111 79 161 79c35.333 0 64.166 -12.833 86.499 -38.5z" />
    <glyph glyph-name="Itilde" unicode="&#x128;" horiz-adv-x="287" 
d="M70 -6v744l147 12v-744zM179 826c-8.66699 4 -19.998 10 -33.998 18c-12.667 8.66699 -23.667 15 -33 19s-19.666 6 -30.999 6c-27.333 0 -55.666 -16.333 -84.999 -49l-7 90c16.667 18 32.667 32.333 48 43s32 16 50 16c9.33301 0 18.166 -1.5 26.499 -4.5
s19.5 -7.83301 33.5 -14.5c12.667 -6.66699 23.5 -11.667 32.5 -15s18.5 -5 28.5 -5c14.667 0 28.5 4 41.5 12s22.5 17 28.5 27l22 -79c0 -2 -4.33301 -9 -13 -21s-19.834 -23.167 -33.501 -33.5s-28.834 -15.5 -45.501 -15.5c-10.667 0 -20.334 2 -29.001 6z" />
    <glyph glyph-name="itilde" unicode="&#x129;" horiz-adv-x="262" 
d="M61 -6v557l140 12v-557zM166 607c-8.66699 4 -19.998 10 -33.998 18c-12.667 8.66699 -23.667 15 -33 19s-19.666 6 -30.999 6c-27.333 0 -55.666 -16.333 -84.999 -49l-7 90c16.667 18 32.667 32.333 48 43s32 16 50 16c9.33301 0 18.166 -1.5 26.499 -4.5
s19.5 -7.83301 33.5 -14.5c12.667 -6.66699 23.5 -11.667 32.5 -15s18.5 -5 28.5 -5c14.667 0 28.5 4 41.5 12s22.5 17 28.5 27l22 -79c0 -2 -4.33301 -9 -13 -21s-19.834 -23.167 -33.501 -33.5s-28.834 -15.5 -45.501 -15.5c-10.667 0 -20.334 2 -29.001 6z" />
    <glyph glyph-name="Imacron" unicode="&#x12a;" horiz-adv-x="287" 
d="M70 -6v744l147 12v-744zM3 796v94h281v-94h-281z" />
    <glyph glyph-name="imacron" unicode="&#x12b;" horiz-adv-x="262" 
d="M61 -6v557l140 12v-557zM-10 609v94h281v-94h-281z" />
    <glyph glyph-name="Ibreve" unicode="&#x12c;" horiz-adv-x="287" 
d="M70 -6v744l147 12v-744zM38.5 852.5c-24.333 26.333 -38.834 61.832 -43.501 106.499h84c0.666992 -2 2.66699 -8.66699 6 -20s9.83301 -19.833 19.5 -25.5s22.834 -8.5 39.501 -8.5s29.167 2.5 37.5 7.5s13.666 10.333 15.999 16s5.83301 15.834 10.5 30.501h84
c-4.66699 -44 -19 -79.333 -43 -106s-58.333 -40 -103 -40c-47.333 0 -83.166 13.167 -107.499 39.5z" />
    <glyph glyph-name="ibreve" unicode="&#x12d;" horiz-adv-x="262" 
d="M61 -6v557l140 12v-557zM25.5 665.5c-24.333 26.333 -38.834 61.832 -43.501 106.499h84c0.666992 -2 2.66699 -8.66699 6 -20s9.83301 -19.833 19.5 -25.5s22.834 -8.5 39.501 -8.5s29.167 2.5 37.5 7.5s13.666 10.333 15.999 16s5.83301 15.834 10.5 30.501h84
c-4.66699 -44 -19 -79.333 -43 -106s-58.333 -40 -103 -40c-47.333 0 -83.166 13.167 -107.499 39.5z" />
    <glyph glyph-name="Iogonek" unicode="&#x12e;" horiz-adv-x="287" 
d="M298 -90c-12.667 -29.333 -31.665 -53 -56.998 -71s-52.333 -27 -81 -27c-18.667 0 -36.334 5 -53.001 15s-30.167 23 -40.5 39s-15.5 32.667 -15.5 50c0 30.667 6.66699 56.667 20 78h-1v744l147 12v-744l-41 -3c-20 -18.667 -30 -37 -30 -55
c0 -12.667 3.66699 -23 11 -31s16.666 -12 27.999 -12c24 0 43.667 14.333 59 43z" />
    <glyph glyph-name="iogonek" unicode="&#x12f;" horiz-adv-x="263" 
d="M62 635v145l140 10v-149zM61 -6v557l140 12v-557zM146.5 -18c-7.66699 -10 -11.4971 -21.332 -11.4971 -33.999s3.66699 -23 11 -31s16.666 -12 27.999 -12c24 0 43.667 14.333 59 43l54 -38c-12.667 -29.333 -31.667 -53 -57 -71s-52.333 -27 -81 -27
c-18.667 0 -36.334 5 -53.001 15s-30.167 23 -40.5 39s-15.5 32.667 -15.5 50c0 49.333 18.333 87.666 55 114.999l85 -14c-14.667 -13.333 -25.834 -25 -33.501 -35z" />
    <glyph glyph-name="Idotaccent" unicode="&#x130;" horiz-adv-x="287" 
d="M70 -6v744l147 12v-744zM73 796v141h141v-141h-141z" />
    <glyph glyph-name="dotlessi" unicode="&#x131;" horiz-adv-x="262" 
d="M61 -6v557l140 12v-557z" />
    <glyph glyph-name="IJ" unicode="&#x132;" horiz-adv-x="620" 
d="M70 -6v744l147 12v-744zM314 1v99c14 -4.66699 27 -7 39 -7c24 0 39.167 9 45.5 27s9.5 44.667 9.5 80v538l146 12v-562c0 -64.667 -11.167 -114.5 -33.5 -149.5s-59.833 -52.5 -112.5 -52.5c-26.667 0 -58 5 -94 15z" />
    <glyph glyph-name="ij" unicode="&#x133;" horiz-adv-x="528" 
d="M62 635v145l140 10v-149zM61 -6v557l140 12v-557zM329 635v145l141 10v-149zM251 -131l-0.000976562 83.998c24 0 41.5 2.33301 52.5 7s18 11.834 21 21.501s4.5 24.5 4.5 44.5v525l141 12v-537c0 -44 -2 -76.667 -6 -98s-14.833 -38.166 -32.5 -50.499
s-46.5 -18.5 -86.5 -18.5c-27.333 0 -58.666 3.33301 -93.999 10z" />
    <glyph glyph-name="Jcircumflex" unicode="&#x134;" horiz-adv-x="333" 
d="M27 1v99c14 -4.66699 27 -7 39 -7c24 0 39.167 9 45.5 27s9.5 44.667 9.5 80v538l146 12v-562c0 -64.667 -11.167 -114.5 -33.5 -149.5s-59.833 -52.5 -112.5 -52.5c-26.667 0 -58 5 -94 15zM34 796l117 235h98l113 -235h-122l-47 142l-57 -142h-102z" />
    <glyph glyph-name="jcircumflex" unicode="&#x135;" horiz-adv-x="262" 
d="M-30 610l117 235h98l113 -235h-122l-47 142l-57 -142h-102zM-17 -131l-0.000976562 83.998c24 0 41.5 2.33301 52.5 7s18 11.834 21 21.501s4.5 24.5 4.5 44.5v525l140 12v-537c0 -44 -2 -76.667 -6 -98s-14.833 -38.166 -32.5 -50.499s-46.167 -18.5 -85.5 -18.5
c-27.333 0 -58.666 3.33301 -93.999 10z" />
    <glyph glyph-name="Kcommaaccent" unicode="&#x136;" horiz-adv-x="563" 
d="M404 -13l-130 349l-57 -99v-237h-147v738l147 12v-328l178 328h156l-161 -310l163 -419zM256 -236c19.333 0 32.999 8 40.999 24c2.66699 6 4.66699 13.667 6 23h-71v141h141v-141c0 -32 -5.5 -58 -16.5 -78s-25.167 -35 -42.5 -45s-36.666 -16 -57.999 -18v94z" />
    <glyph glyph-name="kcommaaccent" unicode="&#x137;" horiz-adv-x="500" 
d="M361 -13l-114 280l-46 -61v-206h-140v732l140 18v-372l143 185h152l-158 -203l147 -331zM203 -219c16 0 27.666 4.5 34.999 13.5s11.333 20.167 12 33.5h-70v140h140v-140c0 -46 -11.167 -80.5 -33.5 -103.5s-50.166 -35.5 -83.499 -37.5v94z" />
    <glyph glyph-name="kgreenlandic" unicode="&#x138;" horiz-adv-x="500" 
d="M361 -13l-114 280l-46 -61v-206h-140v551l140 12v-185l143 185h152l-158 -203l147 -331z" />
    <glyph glyph-name="Lacute" unicode="&#x139;" horiz-adv-x="469" 
d="M70 0v738l146 12v-633h246l-15 -117h-377zM140 792l-52 50l130 197l103 -95z" />
    <glyph glyph-name="lacute" unicode="&#x13a;" horiz-adv-x="263" 
d="M62 -6v738l140 18v-744zM147 796l-52 50l130 197l103 -95z" />
    <glyph glyph-name="Lcommaaccent" unicode="&#x13b;" horiz-adv-x="469" 
d="M70 0v738l146 12v-633h246l-15 -117h-377zM223 -236c19.333 0 32.999 8 40.999 24c2.66699 6 4.66699 13.667 6 23h-71v141h141v-141c0 -32 -5.5 -58 -16.5 -78s-25.167 -35 -42.5 -45s-36.666 -16 -57.999 -18v94z" />
    <glyph glyph-name="lcommaaccent" unicode="&#x13c;" horiz-adv-x="263" 
d="M62 -6v738l140 18v-744zM76 -236c19.333 0 32.999 8 40.999 24c2.66699 6 4.66699 13.667 6 23h-71v141h141v-141c0 -32 -5.5 -58 -16.5 -78s-25.167 -35 -42.5 -45s-36.666 -16 -57.999 -18v94z" />
    <glyph glyph-name="Lcaron" unicode="&#x13d;" horiz-adv-x="469" 
d="M70 0v738l146 12v-633h246l-15 -117h-377zM223 -236c19.333 0 32.999 8 40.999 24c2.66699 6 4.66699 13.667 6 23h-71v141h141v-141c0 -32 -5.5 -58 -16.5 -78s-25.167 -35 -42.5 -45s-36.666 -16 -57.999 -18v94z" />
    <glyph glyph-name="lcaron" unicode="&#x13e;" horiz-adv-x="263" 
d="M62 -6v738l140 18v-744zM76 -236c19.333 0 32.999 8 40.999 24c2.66699 6 4.66699 13.667 6 23h-71v141h141v-141c0 -32 -5.5 -58 -16.5 -78s-25.167 -35 -42.5 -45s-36.666 -16 -57.999 -18v94z" />
    <glyph glyph-name="Ldot" unicode="&#x13f;" horiz-adv-x="469" 
d="M70 0v738l146 12v-633h246l-15 -117h-377zM295 303v141h140v-141h-140z" />
    <glyph glyph-name="ldot" unicode="&#x140;" horiz-adv-x="263" 
d="M62 732l140 18v-744l-140 -12v215h-1v141h1v382z" />
    <glyph glyph-name="Lslash" unicode="&#x141;" horiz-adv-x="481" 
d="M76 0v339l-77 -11v116l77 11v283l146 12v-274l105 15v-116l-105 -15v-243h254l-23 -117h-377z" />
    <glyph glyph-name="lslash" unicode="&#x142;" horiz-adv-x="285" 
d="M281 469v-116l-64 -16v-331l-141 -12v306l-76 -19v116l76 19v316l141 18v-297z" />
    <glyph glyph-name="Nacute" unicode="&#x143;" horiz-adv-x="611" 
d="M420 -6l-219 469v-457l-131 -6v744l153 6l194 -446v434l124 12v-744zM322 792l-52 50l130 197l103 -95z" />
    <glyph glyph-name="nacute" unicode="&#x144;" horiz-adv-x="539" 
d="M61 551l140 12.001v-72c28.667 25.333 56.834 44.833 84.501 58.5s53.167 20.5 76.5 20.5c35.333 0 64.166 -12.833 86.499 -38.5s33.5 -60.167 33.5 -103.5v-422l-140 -12v381c0 50 -17 75 -51 75c-11.333 0 -23.833 -3.33301 -37.5 -10s-31.167 -16.334 -52.5 -29.001
v-405l-140 -12v557zM286 605.001l-52 50l130 197l103 -95z" />
    <glyph glyph-name="Ncommaaccent" unicode="&#x145;" horiz-adv-x="611" 
d="M420 -6l-219 469v-457l-131 -6v744l153 6l194 -446v434l124 12v-744zM274 -236c19.333 0 32.999 8 40.999 24c2.66699 6 4.66699 13.667 6 23h-71v141h141v-141c0 -32 -5.5 -58 -16.5 -78s-25.167 -35 -42.5 -45s-36.666 -16 -57.999 -18v94z" />
    <glyph glyph-name="ncommaaccent" unicode="&#x146;" horiz-adv-x="539" 
d="M61 551l140 12.001v-72c28.667 25.333 56.834 44.833 84.501 58.5s53.167 20.5 76.5 20.5c35.333 0 64.166 -12.833 86.499 -38.5s33.5 -60.167 33.5 -103.5v-422l-140 -12v381c0 50 -17 75 -51 75c-11.333 0 -23.833 -3.33301 -37.5 -10s-31.167 -16.334 -52.5 -29.001
v-405l-140 -12v557zM216 -235.999c19.333 0 32.999 8 40.999 24c2.66699 6 4.66699 13.667 6 23h-71v141h141v-141c0 -32 -5.5 -58 -16.5 -78s-25.167 -35 -42.5 -45s-36.666 -16 -57.999 -18v94z" />
    <glyph glyph-name="Ncaron" unicode="&#x147;" horiz-adv-x="611" 
d="M420 -6l-219 469v-457l-131 -6v744l153 6l194 -446v434l124 12v-744zM259 796l-117 235h102l57 -142l47 142h122l-113 -235h-98z" />
    <glyph glyph-name="ncaron" unicode="&#x148;" horiz-adv-x="539" 
d="M61 551l140 12.001v-72c28.667 25.333 56.834 44.833 84.501 58.5s53.167 20.5 76.5 20.5c35.333 0 64.166 -12.833 86.499 -38.5s33.5 -60.167 33.5 -103.5v-422l-140 -12v381c0 50 -17 75 -51 75c-11.333 0 -23.833 -3.33301 -37.5 -10s-31.167 -16.334 -52.5 -29.001
v-405l-140 -12v557zM223 609.001l-117 235h102l57 -142l47 142h122l-113 -235h-98z" />
    <glyph glyph-name="napostrophe" unicode="&#x149;" horiz-adv-x="654" 
d="M13 562c10.667 0 19.001 2.16797 25.001 6.50098s11.333 10.166 16 17.499c2.66699 4 4.66699 11.667 6 23h-70v141h140v-141c0 -32 -5.5 -58 -16.5 -78s-24.833 -35 -41.5 -45s-36.334 -16 -59.001 -18v94zM176.001 551.001l140 12.001v-72
c28.667 25.333 56.834 44.833 84.501 58.5s53.167 20.5 76.5 20.5c35.333 0 64.166 -12.833 86.499 -38.5s33.5 -60.167 33.5 -103.5v-422l-140 -12v381c0 50 -17 75 -51 75c-11.333 0 -23.833 -3.33301 -37.5 -10s-31.167 -16.334 -52.5 -29.001v-405l-140 -12v557z" />
    <glyph glyph-name="Eng" unicode="&#x14a;" horiz-adv-x="608" 
d="M307 -140v99.001c14 -4.66699 27 -7 39 -7c21.333 0 37 4.83301 47 14.5s16.167 21.667 18.5 36s3.5 33.166 3.5 56.499v11l-215 417v-481l-131 -6v744l153 6l193 -397v385l124 12v-704c0 -64 -10.833 -113.5 -32.5 -148.5s-57.167 -52.5 -106.5 -52.5
c-26 0 -57 5 -93 15z" />
    <glyph glyph-name="eng" unicode="&#x14b;" horiz-adv-x="540" 
d="M264 -131l-0.000976562 83.999c24 0 41.5 2.33301 52.5 7s18 11.834 21 21.501s4.5 24.5 4.5 44.5v349c0 50 -17 75 -51 75c-11.333 0 -23.833 -3.33301 -37.5 -10s-31.167 -16.334 -52.5 -29.001v-405l-140 -12v557l140 12v-72c28.667 25.333 56.834 44.833 84.501 58.5
s53.167 20.5 76.5 20.5c35.333 0 64.166 -12.833 86.499 -38.5s33.5 -60.167 33.5 -103.5v-402c0 -44 -2 -76.667 -6 -98s-14.833 -38.166 -32.5 -50.499s-46.167 -18.5 -85.5 -18.5c-27.333 0 -58.666 3.33301 -93.999 10z" />
    <glyph glyph-name="Omacron" unicode="&#x14c;" horiz-adv-x="549" 
d="M93.5 95.5c-34.333 73 -51.5 167.5 -51.5 283.5c0 123.333 18.333 218.333 55 285s95.667 100 177 100c155.333 0 233 -127 233 -381c0 -114 -17.5 -208.667 -52.5 -284s-95.833 -113 -182.5 -113c-84.667 0 -144.167 36.5 -178.5 109.5zM344 173.5
c11.333 46.333 17.001 116.499 17.001 210.499c0 75.333 -5.5 137.833 -16.5 187.5s-34.5 74.5 -70.5 74.5s-59.333 -24.667 -70 -74s-16 -111.666 -16 -186.999c0 -94.667 5.5 -165.167 16.5 -211.5s34.167 -69.5 69.5 -69.5s58.666 23.167 69.999 69.5zM134.001 795.999
v94h281v-94h-281z" />
    <glyph glyph-name="omacron" unicode="&#x14d;" horiz-adv-x="490" 
d="M118 633v94h281v-94h-281zM88.5 67c-36.333 53.333 -54.501 124.333 -54.501 213c0 88 18 158.333 54 211s88 79 156 79c67.333 0 119.5 -26.333 156.5 -79s55.5 -123 55.5 -211s-18.5 -158.833 -55.5 -212.5s-89.167 -80.5 -156.5 -80.5s-119.166 26.667 -155.499 80z
M301.999 146c8.66699 36.667 13 81.666 13 134.999s-4.33301 98.333 -13 135s-28 55 -58 55s-49 -17.333 -57 -52s-12 -77 -12 -127c0 -61.333 4 -110.166 12 -146.499s27 -54.5 57 -54.5s49.333 18.333 58 55z" />
    <glyph glyph-name="Obreve" unicode="&#x14e;" horiz-adv-x="549" 
d="M93.5 95.5c-34.333 73 -51.5 167.5 -51.5 283.5c0 123.333 18.333 218.333 55 285s95.667 100 177 100c155.333 0 233 -127 233 -381c0 -114 -17.5 -208.667 -52.5 -284s-95.833 -113 -182.5 -113c-84.667 0 -144.167 36.5 -178.5 109.5zM344 173.5
c11.333 46.333 17.001 116.499 17.001 210.499c0 75.333 -5.5 137.833 -16.5 187.5s-34.5 74.5 -70.5 74.5s-59.333 -24.667 -70 -74s-16 -111.666 -16 -186.999c0 -94.667 5.5 -165.167 16.5 -211.5s34.167 -69.5 69.5 -69.5s58.666 23.167 69.999 69.5zM169.501 852.499
c-24.333 26.333 -38.834 61.832 -43.501 106.499h84c0.666992 -2 2.66699 -8.66699 6 -20s9.83301 -19.833 19.5 -25.5s22.834 -8.5 39.501 -8.5s29.167 2.5 37.5 7.5s13.666 10.333 15.999 16s5.83301 15.834 10.5 30.501h84c-4.66699 -44 -19 -79.333 -43 -106
s-58.333 -40 -103 -40c-47.333 0 -83.166 13.167 -107.499 39.5z" />
    <glyph glyph-name="obreve" unicode="&#x14f;" horiz-adv-x="490" 
d="M88.5 67c-36.333 53.333 -54.501 124.333 -54.501 213c0 88 18 158.333 54 211s88 79 156 79c67.333 0 119.5 -26.333 156.5 -79s55.5 -123 55.5 -211s-18.5 -158.833 -55.5 -212.5s-89.167 -80.5 -156.5 -80.5s-119.166 26.667 -155.499 80zM301.999 146
c8.66699 36.667 13 81.666 13 134.999s-4.33301 98.333 -13 135s-28 55 -58 55s-49 -17.333 -57 -52s-12 -77 -12 -127c0 -61.333 4 -110.166 12 -146.499s27 -54.5 57 -54.5s49.333 18.333 58 55zM139.499 665.499c-24.333 26.333 -38.834 61.832 -43.501 106.499h84
c0.666992 -2 2.66699 -8.66699 6 -20s9.83301 -19.833 19.5 -25.5s22.834 -8.5 39.501 -8.5s29.167 2.5 37.5 7.5s13.666 10.333 15.999 16s5.83301 15.834 10.5 30.501h84c-4.66699 -44 -19 -79.333 -43 -106s-58.333 -40 -103 -40c-47.333 0 -83.166 13.167 -107.499 39.5
z" />
    <glyph glyph-name="Ohungarumlaut" unicode="&#x150;" horiz-adv-x="549" 
d="M93.5 95.5c-34.333 73 -51.5 167.5 -51.5 283.5c0 123.333 18.333 218.333 55 285s95.667 100 177 100c155.333 0 233 -127 233 -381c0 -114 -17.5 -208.667 -52.5 -284s-95.833 -113 -182.5 -113c-84.667 0 -144.167 36.5 -178.5 109.5zM344 173.5
c11.333 46.333 17.001 116.499 17.001 210.499c0 75.333 -5.5 137.833 -16.5 187.5s-34.5 74.5 -70.5 74.5s-59.333 -24.667 -70 -74s-16 -111.666 -16 -186.999c0 -94.667 5.5 -165.167 16.5 -211.5s34.167 -69.5 69.5 -69.5s58.666 23.167 69.999 69.5zM170.001 806.999
l-58 47l131 235l114 -95zM415.001 806.999l-58 47l132 235l114 -95z" />
    <glyph glyph-name="ohungarumlaut" unicode="&#x151;" horiz-adv-x="490" 
d="M150 620l-58 47l131 235l114 -95zM395 620l-58 47l132 235l114 -95zM88.5 67c-36.333 53.333 -54.501 124.333 -54.501 213c0 88 18 158.333 54 211s88 79 156 79c67.333 0 119.5 -26.333 156.5 -79s55.5 -123 55.5 -211s-18.5 -158.833 -55.5 -212.5
s-89.167 -80.5 -156.5 -80.5s-119.166 26.667 -155.499 80zM301.999 146c8.66699 36.667 13 81.666 13 134.999s-4.33301 98.333 -13 135s-28 55 -58 55s-49 -17.333 -57 -52s-12 -77 -12 -127c0 -61.333 4 -110.166 12 -146.499s27 -54.5 57 -54.5s49.333 18.333 58 55z
" />
    <glyph glyph-name="OE" unicode="&#x152;" horiz-adv-x="790" 
d="M92 99.5c-33.333 75 -50 173.833 -50 296.5c0 111.333 19.167 199 57.5 263s96.5 96 174.5 96c42 0 75.667 -20 101 -60v55h378v-117h-232v-179h146v-126h-146v-211h240v-117h-386v47c-25.333 -40 -59 -60 -101 -60c-88 0 -148.667 37.5 -182 112.5zM353 166
c14.667 36.667 21.998 92.332 21.998 166.999v99c0 55.333 -7.66699 103.5 -23 144.5s-41.333 61.5 -78 61.5c-35.333 0 -58.5 -23.833 -69.5 -71.5s-16.5 -104.5 -16.5 -170.5c0 -67.333 1.83301 -120.666 5.5 -159.999s11.834 -70 24.501 -92s31.334 -33 56.001 -33
c38 0 64.333 18.333 79 55z" />
    <glyph glyph-name="oe" unicode="&#x153;" horiz-adv-x="751" 
d="M88.5 67.5c-36.333 53.667 -54.5 124.499 -54.5 212.499c0 87.333 18 157.5 54 210.5s86.333 79.5 151 79.5c62 0 111.333 -27.667 148 -83c19.333 29.333 40.166 50.5 62.499 63.5s48.833 19.5 79.5 19.5c78 0 130 -30.667 156 -92s39 -122.666 39 -183.999v-32h-269
c0 -42.667 5.66699 -82 17 -118s28.333 -54 51 -54c26 0 45.5 14.833 58.5 44.5s19.833 45.5 20.5 47.5l106 -40c-13.333 -47.333 -35.5 -85 -66.5 -113s-70.5 -42 -118.5 -42c-30 0 -55.667 6.16699 -77 18.5s-41.333 31.833 -60 58.5c-36 -51.333 -84.333 -77 -145 -77
c-65.333 0 -116.166 26.833 -152.499 80.5zM589 342.999c0 38.667 -5.16699 70 -15.5 94s-25.5 36 -45.5 36c-21.333 0 -38.833 -12.667 -52.5 -38s-20.5 -56 -20.5 -92h134zM302 145.999c8.66699 36.667 13 81.668 13 135.001s-4.33301 98.333 -13 135s-28 55 -58 55
c-28.667 0 -47.5 -17.833 -56.5 -53.5s-13.5 -80.834 -13.5 -135.501c0 -57.333 4.5 -103.5 13.5 -138.5s27.833 -52.5 56.5 -52.5c30 0 49.333 18.333 58 55z" />
    <glyph glyph-name="Racute" unicode="&#x154;" horiz-adv-x="565" 
d="M273 329h-57v-323l-146 -12v750l178 6c86 0 153.333 -17.167 202 -51.5s73 -86.833 73 -157.5c0 -46.667 -9.16699 -85 -27.5 -115s-44.833 -55 -79.5 -75l67 -163l68 -162l-144 -39zM266 437c34.667 0 61.833 7.16699 81.5 21.5s29.5 41.5 29.5 81.5
c0 62 -30.667 93 -92 93h-69v-196h50zM298.999 792l-52 50l130 197l103 -95z" />
    <glyph glyph-name="racute" unicode="&#x155;" horiz-adv-x="404" 
d="M61 551l140 11.999v-91c20 28.667 44.833 51.834 74.5 69.501s67.5 26.5 113.5 26.5v-137c-24 0 -55.5 -4.16699 -94.5 -12.5s-70.167 -22.833 -93.5 -43.5v-369l-140 -12v557zM218 604.999l-52 50l130 197l103 -95z" />
    <glyph glyph-name="Rcommaaccent" unicode="&#x156;" horiz-adv-x="565" 
d="M273 329h-57v-323l-146 -12v750l178 6c86 0 153.333 -17.167 202 -51.5s73 -86.833 73 -157.5c0 -46.667 -9.16699 -85 -27.5 -115s-44.833 -55 -79.5 -75l67 -163l68 -162l-144 -39zM266 437c34.667 0 61.833 7.16699 81.5 21.5s29.5 41.5 29.5 81.5
c0 62 -30.667 93 -92 93h-69v-196h50zM244.999 -236c19.333 0 32.999 8 40.999 24c2.66699 6 4.66699 13.667 6 23h-71v141h141v-141c0 -32 -5.5 -58 -16.5 -78s-25.167 -35 -42.5 -45s-36.666 -16 -57.999 -18v94z" />
    <glyph glyph-name="rcommaaccent" unicode="&#x157;" horiz-adv-x="404" 
d="M61 551l140 11.999v-91c20 28.667 44.833 51.834 74.5 69.501s67.5 26.5 113.5 26.5v-137c-24 0 -55.5 -4.16699 -94.5 -12.5s-70.167 -22.833 -93.5 -43.5v-369l-140 -12v557zM81 -238.001c19.333 0 32.999 8 40.999 24c2.66699 6 4.66699 13.667 6 23h-71v141h141v-141
c0 -32 -5.5 -58 -16.5 -78s-25.167 -35 -42.5 -45s-36.666 -16 -57.999 -18v94z" />
    <glyph glyph-name="Rcaron" unicode="&#x158;" horiz-adv-x="565" 
d="M273 329h-57v-323l-146 -12v750l178 6c86 0 153.333 -17.167 202 -51.5s73 -86.833 73 -157.5c0 -46.667 -9.16699 -85 -27.5 -115s-44.833 -55 -79.5 -75l67 -163l68 -162l-144 -39zM266 437c34.667 0 61.833 7.16699 81.5 21.5s29.5 41.5 29.5 81.5
c0 62 -30.667 93 -92 93h-69v-196h50zM235.999 796l-117 235h102l57 -142l47 142h122l-113 -235h-98z" />
    <glyph glyph-name="rcaron" unicode="&#x159;" horiz-adv-x="404" 
d="M61 551l140 11.999v-91c20 28.667 44.833 51.834 74.5 69.501s67.5 26.5 113.5 26.5v-137c-24 0 -55.5 -4.16699 -94.5 -12.5s-70.167 -22.833 -93.5 -43.5v-369l-140 -12v557zM155 608.999l-117 235h102l57 -142l47 142h122l-113 -235h-98z" />
    <glyph glyph-name="Sacute" unicode="&#x15a;" horiz-adv-x="533" 
d="M114.5 36.5c-41.667 33.667 -72.166 78.833 -91.499 135.5l124 58l12 -20c19.333 -33.333 37.833 -59.333 55.5 -78s39.834 -28 66.501 -28c17.333 0 32.833 8.33301 46.5 25s20.5 35 20.5 55c0 18.667 -4.66699 35.667 -14 51s-21.333 27.666 -36 36.999l-131 78
c-38 21.333 -68.333 48.333 -91 81s-34 69.334 -34 110.001c0 43.333 10.167 82 30.5 116s48 60.333 83 79s74.5 28 118.5 28c51.333 0 95 -12.667 131 -38s62.667 -63 80 -113l-124 -56c-2.66699 5.33301 -8.33398 17.333 -17.001 36s-19.167 32.167 -31.5 40.5
s-27.5 12.5 -45.5 12.5c-22 0 -38.833 -7 -50.5 -21s-17.5 -32 -17.5 -54c0 -16 4.5 -30.5 13.5 -43.5s19.833 -23.167 32.5 -30.5l121 -71c89.333 -50.667 136.333 -117.334 141 -200.001c0 -47.333 -10.5 -89.166 -31.5 -125.499s-49.667 -64.5 -86 -84.5
s-76.833 -30 -121.5 -30c-60.667 0 -111.834 16.833 -153.501 50.5zM283.001 791.999l-52 50l130 197l103 -95z" />
    <glyph glyph-name="sacute" unicode="&#x15b;" horiz-adv-x="451" 
d="M95 24.5c-34 25 -55.9971 59.835 -65.9971 104.502l109 36c2.66699 -12.667 7.66699 -24 15 -34c15.333 -22 37.666 -33 66.999 -33c16.667 0 32.667 3.66699 48 11s23 18.666 23 33.999c0 20.667 -14.333 36.667 -43 48l-118 48c-31.333 13.333 -55.333 33.333 -72 60
s-25 59.334 -25 98.001c0 36 8.83301 67 26.5 93s41 45.833 70 59.5s60.167 20.5 93.5 20.5c42 0 80.667 -12.167 116 -36.5s59 -57.5 71 -99.5l-116 -36c-2.66699 11.333 -7.33398 22.666 -14.001 33.999c-14.667 22.667 -33.334 34 -56.001 34
c-16.667 0 -31 -3.83301 -43 -11.5s-18 -18.834 -18 -33.501c0 -17.333 16.333 -33.333 49 -48l100 -41c35.333 -16.667 63 -37.667 83 -63s30 -59.333 30 -102c0 -38.667 -9.33301 -71.5 -28 -98.5s-43 -47.333 -73 -61s-61.667 -20.5 -95 -20.5
c-55.333 0 -100 12.5 -134 37.5zM242.003 605.002l-52 50l130 197l103 -95z" />
    <glyph glyph-name="Scircumflex" unicode="&#x15c;" horiz-adv-x="533" 
d="M114.5 36.5c-41.667 33.667 -72.166 78.833 -91.499 135.5l124 58l12 -20c19.333 -33.333 37.833 -59.333 55.5 -78s39.834 -28 66.501 -28c17.333 0 32.833 8.33301 46.5 25s20.5 35 20.5 55c0 18.667 -4.66699 35.667 -14 51s-21.333 27.666 -36 36.999l-131 78
c-38 21.333 -68.333 48.333 -91 81s-34 69.334 -34 110.001c0 43.333 10.167 82 30.5 116s48 60.333 83 79s74.5 28 118.5 28c51.333 0 95 -12.667 131 -38s62.667 -63 80 -113l-124 -56c-2.66699 5.33301 -8.33398 17.333 -17.001 36s-19.167 32.167 -31.5 40.5
s-27.5 12.5 -45.5 12.5c-22 0 -38.833 -7 -50.5 -21s-17.5 -32 -17.5 -54c0 -16 4.5 -30.5 13.5 -43.5s19.833 -23.167 32.5 -30.5l121 -71c89.333 -50.667 136.333 -117.334 141 -200.001c0 -47.333 -10.5 -89.166 -31.5 -125.499s-49.667 -64.5 -86 -84.5
s-76.833 -30 -121.5 -30c-60.667 0 -111.834 16.833 -153.501 50.5zM103.001 795.999l117 235h98l113 -235h-122l-47 142l-57 -142h-102z" />
    <glyph glyph-name="scircumflex" unicode="&#x15d;" horiz-adv-x="451" 
d="M95 24.5c-34 25 -55.9971 59.835 -65.9971 104.502l109 36c2.66699 -12.667 7.66699 -24 15 -34c15.333 -22 37.666 -33 66.999 -33c16.667 0 32.667 3.66699 48 11s23 18.666 23 33.999c0 20.667 -14.333 36.667 -43 48l-118 48c-31.333 13.333 -55.333 33.333 -72 60
s-25 59.334 -25 98.001c0 36 8.83301 67 26.5 93s41 45.833 70 59.5s60.167 20.5 93.5 20.5c42 0 80.667 -12.167 116 -36.5s59 -57.5 71 -99.5l-116 -36c-2.66699 11.333 -7.33398 22.666 -14.001 33.999c-14.667 22.667 -33.334 34 -56.001 34
c-16.667 0 -31 -3.83301 -43 -11.5s-18 -18.834 -18 -33.501c0 -17.333 16.333 -33.333 49 -48l100 -41c35.333 -16.667 63 -37.667 83 -63s30 -59.333 30 -102c0 -38.667 -9.33301 -71.5 -28 -98.5s-43 -47.333 -73 -61s-61.667 -20.5 -95 -20.5
c-55.333 0 -100 12.5 -134 37.5zM62.0029 609.002l117 235h98l113 -235h-122l-47 142l-57 -142h-102z" />
    <glyph glyph-name="Scedilla" unicode="&#x15e;" horiz-adv-x="533" 
d="M480 108c-18 -34.667 -43 -62.333 -75 -83s-68 -33.334 -108 -38.001l-6 -24c47.333 -13.333 78.333 -33.166 93 -59.499s22 -49.166 22 -68.499c0 -36.667 -10 -63.5 -30 -80.5s-45.333 -25.5 -76 -25.5c-20.667 0 -41.167 2.83301 -61.5 8.5
s-37.166 13.167 -50.499 22.5v80c25.333 -11.333 48.666 -17 69.999 -17c16 0 27.833 3.33301 35.5 10s11.5 15.334 11.5 26.001c0 14.667 -8 28 -24 40s-39 18 -69 18l13 72c-49.333 8 -91 28.167 -125 60.5s-59.667 73.166 -77 122.499l124 58l12 -20
c19.333 -33.333 37.833 -59.333 55.5 -78s39.834 -28 66.501 -28c17.333 0 32.833 8.33301 46.5 25s20.5 35 20.5 55c0 18.667 -4.66699 35.667 -14 51s-21.333 27.666 -36 36.999l-131 78c-38 21.333 -68.333 48.333 -91 81s-34 69.334 -34 110.001
c0 43.333 10.167 82 30.5 116s48 60.333 83 79s74.5 28 118.5 28c51.333 0 95 -12.667 131 -38s62.667 -63 80 -113l-124 -56c-2.66699 5.33301 -8.33398 17.333 -17.001 36s-19.167 32.167 -31.5 40.5s-27.5 12.5 -45.5 12.5c-22 0 -38.833 -7 -50.5 -21
s-17.5 -32 -17.5 -54c0 -16 4.5 -30.5 13.5 -43.5s19.833 -23.167 32.5 -30.5l121 -71c89.333 -50.667 136.333 -117.334 141 -200.001c0 -44 -9 -83.333 -27 -118z" />
    <glyph glyph-name="scedilla" unicode="&#x15f;" horiz-adv-x="451" 
d="M376 43c-32.667 -30.667 -72.6641 -48.6699 -119.997 -54.0029l-6 -26c47.333 -13.333 78.333 -33.166 93 -59.499s22 -49.166 22 -68.499c0 -36.667 -10 -63.5 -30 -80.5s-45.333 -25.5 -76 -25.5c-20.667 0 -41.167 2.83301 -61.5 8.5s-37.166 13.167 -50.499 22.5v80
c25.333 -11.333 48.666 -17 69.999 -17c16 0 27.833 3.33301 35.5 10s11.5 15.334 11.5 26.001c0 14.667 -8 28 -24 40s-39 18 -69 18l13 73c-42.667 6.66699 -77 21.834 -103 45.501s-43.333 54.834 -52 93.501l109 36c2.66699 -12.667 7.66699 -24 15 -34
c15.333 -22 37.666 -33 66.999 -33c16.667 0 32.667 3.66699 48 11s23 18.666 23 33.999c0 20.667 -14.333 36.667 -43 48l-118 48c-31.333 13.333 -55.333 33.333 -72 60s-25 59.334 -25 98.001c0 36 8.83301 67 26.5 93s41 45.833 70 59.5s60.167 20.5 93.5 20.5
c42 0 80.667 -12.167 116 -36.5s59 -57.5 71 -99.5l-116 -36c-2.66699 11.333 -7.33398 22.666 -14.001 33.999c-14.667 22.667 -33.334 34 -56.001 34c-16.667 0 -31 -3.83301 -43 -11.5s-18 -18.834 -18 -33.501c0 -17.333 16.333 -33.333 49 -48l100 -41
c35.333 -16.667 63 -37.667 83 -63s30 -59.333 30 -102c0 -52 -16.333 -93.333 -49 -124z" />
    <glyph glyph-name="Scaron" unicode="&#x160;" horiz-adv-x="533" 
d="M114.5 36.5c-41.667 33.667 -72.166 78.833 -91.499 135.5l124 58l12 -20c19.333 -33.333 37.833 -59.333 55.5 -78s39.834 -28 66.501 -28c17.333 0 32.833 8.33301 46.5 25s20.5 35 20.5 55c0 18.667 -4.66699 35.667 -14 51s-21.333 27.666 -36 36.999l-131 78
c-38 21.333 -68.333 48.333 -91 81s-34 69.334 -34 110.001c0 43.333 10.167 82 30.5 116s48 60.333 83 79s74.5 28 118.5 28c51.333 0 95 -12.667 131 -38s62.667 -63 80 -113l-124 -56c-2.66699 5.33301 -8.33398 17.333 -17.001 36s-19.167 32.167 -31.5 40.5
s-27.5 12.5 -45.5 12.5c-22 0 -38.833 -7 -50.5 -21s-17.5 -32 -17.5 -54c0 -16 4.5 -30.5 13.5 -43.5s19.833 -23.167 32.5 -30.5l121 -71c89.333 -50.667 136.333 -117.334 141 -200.001c0 -47.333 -10.5 -89.166 -31.5 -125.499s-49.667 -64.5 -86 -84.5
s-76.833 -30 -121.5 -30c-60.667 0 -111.834 16.833 -153.501 50.5zM220.001 795.999l-117 235h102l57 -142l47 142h122l-113 -235h-98z" />
    <glyph glyph-name="scaron" unicode="&#x161;" horiz-adv-x="451" 
d="M95 24.5c-34 25 -55.9971 59.835 -65.9971 104.502l109 36c2.66699 -12.667 7.66699 -24 15 -34c15.333 -22 37.666 -33 66.999 -33c16.667 0 32.667 3.66699 48 11s23 18.666 23 33.999c0 20.667 -14.333 36.667 -43 48l-118 48c-31.333 13.333 -55.333 33.333 -72 60
s-25 59.334 -25 98.001c0 36 8.83301 67 26.5 93s41 45.833 70 59.5s60.167 20.5 93.5 20.5c42 0 80.667 -12.167 116 -36.5s59 -57.5 71 -99.5l-116 -36c-2.66699 11.333 -7.33398 22.666 -14.001 33.999c-14.667 22.667 -33.334 34 -56.001 34
c-16.667 0 -31 -3.83301 -43 -11.5s-18 -18.834 -18 -33.501c0 -17.333 16.333 -33.333 49 -48l100 -41c35.333 -16.667 63 -37.667 83 -63s30 -59.333 30 -102c0 -38.667 -9.33301 -71.5 -28 -98.5s-43 -47.333 -73 -61s-61.667 -20.5 -95 -20.5
c-55.333 0 -100 12.5 -134 37.5zM179.003 609.002l-117 235h102l57 -142l47 142h122l-113 -235h-98z" />
    <glyph glyph-name="uni0162" unicode="&#x162;" horiz-adv-x="477" 
d="M272 3l-9 -40.0029c47.333 -13.333 78.333 -33.166 93 -59.499s22 -49.166 22 -68.499c0 -36.667 -10 -63.5 -30 -80.5s-45.333 -25.5 -76 -25.5c-20.667 0 -41.167 2.83301 -61.5 8.5s-37.166 13.167 -50.499 22.5v80c25.333 -11.333 48.666 -17 69.999 -17
c16 0 27.833 3.33301 35.5 10s11.5 15.334 11.5 26.001c0 14.667 -8 28 -24 40s-39 18 -69 18l14 80l-31 -3v639h-153l11 117h440l-12 -117h-140v-627z" />
    <glyph glyph-name="uni0163" unicode="&#x163;" horiz-adv-x="360" 
d="M356 -96.5c14.667 -26.333 22 -49.1689 22 -68.502c0 -36.667 -10 -63.5 -30 -80.5s-45.333 -25.5 -76 -25.5c-20.667 0 -41.167 2.83301 -61.5 8.5s-37.166 13.167 -50.499 22.5v80c25.333 -11.333 48.666 -17 69.999 -17c16 0 27.833 3.33301 35.5 10
s11.5 15.334 11.5 26.001c0 14.667 -8 28 -24 40s-39 18 -69 18l14 78c-32 7.33301 -57.833 23 -77.5 47s-29.5 58.667 -29.5 104v311h-78l6 106h76l14 122l122 17v-139h116l-6 -106h-109v-310c0 -20 5 -34.333 15 -43s24.667 -13 44 -13c10.667 0 28.667 2 54 6v-97
c-30.667 -6 -56 -9.66699 -76 -11l-6 -26c47.333 -13.333 78.333 -33.166 93 -59.499z" />
    <glyph glyph-name="Tcaron" unicode="&#x164;" horiz-adv-x="477" 
d="M167 -6v639h-153l11 117h440l-12 -117h-140v-627zM192 796l-117 235h102l57 -142l47 142h122l-113 -235h-98z" />
    <glyph glyph-name="tcaron" unicode="&#x165;" horiz-adv-x="360" 
d="M138 23.5c-31.333 23 -47.001 63.833 -47.001 122.5v311h-78l6 106h76l14 122l122 17v-139h116l-6 -106h-109v-310c0 -20 5 -34.333 15 -43s24.667 -13 44 -13c10.667 0 28.667 2 54 6v-97c-2.66699 -0.666992 -13.167 -2.66699 -31.5 -6s-38.5 -5 -60.5 -5
c-45.333 0 -83.666 11.5 -114.999 34.5zM174.999 -236c19.333 0 32.999 8 40.999 24c2.66699 6 4.66699 13.667 6 23h-71v141h141v-141c0 -32 -5.5 -58 -16.5 -78s-25.167 -35 -42.5 -45s-36.666 -16 -57.999 -18v94z" />
    <glyph glyph-name="Tbar" unicode="&#x166;" horiz-adv-x="477" 
d="M453 633h-140v-240h63v-94h-63v-293l-146 -12v305h-72v94h72v240h-153l11 117h440z" />
    <glyph glyph-name="tbar" unicode="&#x167;" horiz-adv-x="358" 
d="M247 104c10 -8.66699 24.666 -13 43.999 -13c10.667 0 28.667 2 54 6v-97c-2.66699 -0.666992 -13.167 -2.66699 -31.5 -6s-38.5 -5 -60.5 -5c-45.333 0 -83.666 11.5 -114.999 34.5s-47 63.833 -47 122.5v136h-63v93h63v82h-78l6 106h76l14 122l122 17v-139h116l-6 -106
h-109v-82h78v-93h-78v-135c0 -20 5 -34.333 15 -43z" />
    <glyph glyph-name="Utilde" unicode="&#x168;" horiz-adv-x="568" 
d="M120 58c-37.333 48 -56 111 -56 189v497l147 6v-515c0 -26 1.5 -48 4.5 -66s10.5 -33.333 22.5 -46s30.333 -19 55 -19c23.333 0 40.5 6.5 51.5 19.5s17.833 28.333 20.5 46s4 40.167 4 67.5v501l134 12v-486c0 -70.667 -13.833 -134.667 -41.5 -192
s-85.5 -86 -173.5 -86c-74.667 0 -130.667 24 -168 72zM319 826c-8.66699 4 -19.998 10 -33.998 18c-12.667 8.66699 -23.667 15 -33 19s-19.666 6 -30.999 6c-27.333 0 -55.666 -16.333 -84.999 -49l-7 90c16.667 18 32.667 32.333 48 43s32 16 50 16
c9.33301 0 18.166 -1.5 26.499 -4.5s19.5 -7.83301 33.5 -14.5c12.667 -6.66699 23.5 -11.667 32.5 -15s18.5 -5 28.5 -5c14.667 0 28.5 4 41.5 12s22.5 17 28.5 27l22 -79c0 -2 -4.33301 -9 -13 -21s-19.834 -23.167 -33.501 -33.5s-28.834 -15.5 -45.501 -15.5
c-10.667 0 -20.334 2 -29.001 6z" />
    <glyph glyph-name="utilde" unicode="&#x169;" horiz-adv-x="539" 
d="M92 25.5c-23.333 25.667 -35 60.168 -35 103.501v422l140 12v-377c0 -26.667 4.33301 -45.834 13 -57.501s22 -17.5 40 -17.5c14 0 29 3.5 45 10.5s30.333 18.167 43 33.5v396l141 12v-557l-141 -12v72c-23.333 -26.667 -48.833 -46.5 -76.5 -59.5
s-54.167 -19.5 -79.5 -19.5c-36.667 0 -66.667 12.833 -90 38.5zM305 607.001c-8.66699 4 -19.998 10 -33.998 18c-12.667 8.66699 -23.667 15 -33 19s-19.666 6 -30.999 6c-27.333 0 -55.666 -16.333 -84.999 -49l-7 90c16.667 18 32.667 32.333 48 43s32 16 50 16
c9.33301 0 18.166 -1.5 26.499 -4.5s19.5 -7.83301 33.5 -14.5c12.667 -6.66699 23.5 -11.667 32.5 -15s18.5 -5 28.5 -5c14.667 0 28.5 4 41.5 12s22.5 17 28.5 27l22 -79c0 -2 -4.33301 -9 -13 -21s-19.834 -23.167 -33.501 -33.5s-28.834 -15.5 -45.501 -15.5
c-10.667 0 -20.334 2 -29.001 6z" />
    <glyph glyph-name="Umacron" unicode="&#x16a;" horiz-adv-x="568" 
d="M120 58c-37.333 48 -56 111 -56 189v497l147 6v-515c0 -26 1.5 -48 4.5 -66s10.5 -33.333 22.5 -46s30.333 -19 55 -19c23.333 0 40.5 6.5 51.5 19.5s17.833 28.333 20.5 46s4 40.167 4 67.5v501l134 12v-486c0 -70.667 -13.833 -134.667 -41.5 -192
s-85.5 -86 -173.5 -86c-74.667 0 -130.667 24 -168 72zM143 796v94h281v-94h-281z" />
    <glyph glyph-name="umacron" unicode="&#x16b;" horiz-adv-x="539" 
d="M92 25.5c-23.333 25.667 -35 60.168 -35 103.501v422l140 12v-377c0 -26.667 4.33301 -45.834 13 -57.501s22 -17.5 40 -17.5c14 0 29 3.5 45 10.5s30.333 18.167 43 33.5v396l141 12v-557l-141 -12v72c-23.333 -26.667 -48.833 -46.5 -76.5 -59.5
s-54.167 -19.5 -79.5 -19.5c-36.667 0 -66.667 12.833 -90 38.5zM129 609.001v94h281v-94h-281z" />
    <glyph glyph-name="Ubreve" unicode="&#x16c;" horiz-adv-x="568" 
d="M120 58c-37.333 48 -56 111 -56 189v497l147 6v-515c0 -26 1.5 -48 4.5 -66s10.5 -33.333 22.5 -46s30.333 -19 55 -19c23.333 0 40.5 6.5 51.5 19.5s17.833 28.333 20.5 46s4 40.167 4 67.5v501l134 12v-486c0 -70.667 -13.833 -134.667 -41.5 -192
s-85.5 -86 -173.5 -86c-74.667 0 -130.667 24 -168 72zM178.5 852.5c-24.333 26.333 -38.834 61.832 -43.501 106.499h84c0.666992 -2 2.66699 -8.66699 6 -20s9.83301 -19.833 19.5 -25.5s22.834 -8.5 39.501 -8.5s29.167 2.5 37.5 7.5s13.666 10.333 15.999 16
s5.83301 15.834 10.5 30.501h84c-4.66699 -44 -19 -79.333 -43 -106s-58.333 -40 -103 -40c-47.333 0 -83.166 13.167 -107.499 39.5z" />
    <glyph glyph-name="ubreve" unicode="&#x16d;" horiz-adv-x="539" 
d="M92 25.5c-23.333 25.667 -35 60.168 -35 103.501v422l140 12v-377c0 -26.667 4.33301 -45.834 13 -57.501s22 -17.5 40 -17.5c14 0 29 3.5 45 10.5s30.333 18.167 43 33.5v396l141 12v-557l-141 -12v72c-23.333 -26.667 -48.833 -46.5 -76.5 -59.5
s-54.167 -19.5 -79.5 -19.5c-36.667 0 -66.667 12.833 -90 38.5zM164.5 665.501c-24.333 26.333 -38.834 61.832 -43.501 106.499h84c0.666992 -2 2.66699 -8.66699 6 -20s9.83301 -19.833 19.5 -25.5s22.834 -8.5 39.501 -8.5s29.167 2.5 37.5 7.5s13.666 10.333 15.999 16
s5.83301 15.834 10.5 30.501h84c-4.66699 -44 -19 -79.333 -43 -106s-58.333 -40 -103 -40c-47.333 0 -83.166 13.167 -107.499 39.5z" />
    <glyph glyph-name="Uring" unicode="&#x16e;" horiz-adv-x="568" 
d="M120 58c-37.333 48 -56 111 -56 189v497l147 6v-515c0 -26 1.5 -48 4.5 -66s10.5 -33.333 22.5 -46s30.333 -19 55 -19c23.333 0 40.5 6.5 51.5 19.5s17.833 28.333 20.5 46s4 40.167 4 67.5v501l134 12v-486c0 -70.667 -13.833 -134.667 -41.5 -192
s-85.5 -86 -173.5 -86c-74.667 0 -130.667 24 -168 72zM176.5 831c-30.333 23.333 -45.502 56 -45.502 98s15 74.667 45 98s66 35 108 35c41.333 0 77 -11.5 107 -34.5s45 -55.833 45 -98.5c0 -28 -7.16699 -52.167 -21.5 -72.5s-33.166 -35.5 -56.499 -45.5
s-48 -15 -74 -15c-41.333 0 -77.166 11.667 -107.499 35zM325.498 888.5c12.333 9.66699 18.5 23.167 18.5 40.5c0 16.667 -6.16699 29.834 -18.5 39.501s-26.5 14.5 -42.5 14.5s-30 -4.83301 -42 -14.5s-18 -22.834 -18 -39.501s6 -30 18 -40s26 -15 42 -15
s30.167 4.83301 42.5 14.5z" />
    <glyph glyph-name="uring" unicode="&#x16f;" horiz-adv-x="539" 
d="M92 25.5c-23.333 25.667 -35 60.168 -35 103.501v422l140 12v-377c0 -26.667 4.33301 -45.834 13 -57.501s22 -17.5 40 -17.5c14 0 29 3.5 45 10.5s30.333 18.167 43 33.5v396l141 12v-557l-141 -12v72c-23.333 -26.667 -48.833 -46.5 -76.5 -59.5
s-54.167 -19.5 -79.5 -19.5c-36.667 0 -66.667 12.833 -90 38.5zM162.5 644.001c-30.333 23.333 -45.502 56 -45.502 98s15 74.667 45 98s66 35 108 35c41.333 0 77 -11.5 107 -34.5s45 -55.833 45 -98.5c0 -28 -7.16699 -52.167 -21.5 -72.5s-33.166 -35.5 -56.499 -45.5
s-48 -15 -74 -15c-41.333 0 -77.166 11.667 -107.499 35zM311.498 701.501c12.333 9.66699 18.5 23.167 18.5 40.5c0 16.667 -6.16699 29.834 -18.5 39.501s-26.5 14.5 -42.5 14.5s-30 -4.83301 -42 -14.5s-18 -22.834 -18 -39.501s6 -30 18 -40s26 -15 42 -15
s30.167 4.83301 42.5 14.5z" />
    <glyph glyph-name="Uhungarumlaut" unicode="&#x170;" horiz-adv-x="568" 
d="M120 58c-37.333 48 -56 111 -56 189v497l147 6v-515c0 -26 1.5 -48 4.5 -66s10.5 -33.333 22.5 -46s30.333 -19 55 -19c23.333 0 40.5 6.5 51.5 19.5s17.833 28.333 20.5 46s4 40.167 4 67.5v501l134 12v-486c0 -70.667 -13.833 -134.667 -41.5 -192
s-85.5 -86 -173.5 -86c-74.667 0 -130.667 24 -168 72zM190 807l-58 47l131 235l114 -95zM435 807l-58 47l132 235l114 -95z" />
    <glyph glyph-name="uhungarumlaut" unicode="&#x171;" horiz-adv-x="539" 
d="M92 25.5c-23.333 25.667 -35 60.168 -35 103.501v422l140 12v-377c0 -26.667 4.33301 -45.834 13 -57.501s22 -17.5 40 -17.5c14 0 29 3.5 45 10.5s30.333 18.167 43 33.5v396l141 12v-557l-141 -12v72c-23.333 -26.667 -48.833 -46.5 -76.5 -59.5
s-54.167 -19.5 -79.5 -19.5c-36.667 0 -66.667 12.833 -90 38.5zM173 620.001l-58 47l131 235l114 -95zM418 620.001l-58 47l132 235l114 -95z" />
    <glyph glyph-name="Uogonek" unicode="&#x172;" horiz-adv-x="568" 
d="M323 -12c-10.667 -14 -15.998 -27.333 -15.998 -40s3.66699 -23 11 -31s16.666 -12 27.999 -12c24 0 43.667 14.333 59 43l54 -38c-12.667 -29.333 -31.667 -53 -57 -71s-52.333 -27 -81 -27c-18.667 0 -36.334 5 -53.001 15s-30.167 23 -40.5 39s-15.5 32.667 -15.5 50
c0 30 6.33301 55.333 19 76c-56 11.333 -97.833 39.833 -125.5 85.5s-41.5 102.167 -41.5 169.5v497l147 6v-515c0 -26 1.5 -48 4.5 -66s10.5 -33.333 22.5 -46s30.333 -19 55 -19c23.333 0 40.5 6.5 51.5 19.5s17.833 28.333 20.5 46s4 40.167 4 67.5v501l134 12v-486
c0 -169.333 -60 -261.333 -180 -276z" />
    <glyph glyph-name="uogonek" unicode="&#x173;" horiz-adv-x="539" 
d="M530 -90c-12.667 -29.333 -31.665 -52.998 -56.998 -70.998s-52.333 -27 -81 -27c-18.667 0 -36.334 5 -53.001 15s-30.167 23 -40.5 39s-15.5 32.667 -15.5 50c0 49.333 18.333 87.666 55 114.999v35c-23.333 -26.667 -48.833 -46.5 -76.5 -59.5
s-54.167 -19.5 -79.5 -19.5c-36.667 0 -66.667 12.833 -90 38.5s-35 60.167 -35 103.5v422l140 12v-377c0 -26.667 4.33301 -45.834 13 -57.501s22 -17.5 40 -17.5c14 0 29 3.5 45 10.5s30.333 18.167 43 33.5v396l141 12v-557l-74 -6c-18 -18 -27 -35.333 -27 -52
c0 -12.667 3.66699 -23 11 -31s16.666 -12 27.999 -12c24 0 43.667 14.333 59 43z" />
    <glyph glyph-name="Wcircumflex" unicode="&#x174;" horiz-adv-x="774" 
d="M166 0l-153 744l160 6l79 -449l85 443l120 6l79 -454l95 448l135 6l-161 -750h-145l-79 458l-81 -458h-134zM223 796l117 235h98l113 -235h-122l-47 142l-57 -142h-102z" />
    <glyph glyph-name="wcircumflex" unicode="&#x175;" horiz-adv-x="642" 
d="M133 0l-115 552l143 11l48 -319l71 307l117 12l61 -315l61 303l114 6l-129 -557h-113l-64 365l-79 -365h-115zM157 609l117 235h98l113 -235h-122l-47 142l-57 -142h-102z" />
    <glyph glyph-name="Ycircumflex" unicode="&#x176;" horiz-adv-x="501" 
d="M179 -6v303l-180 453h161l103 -312l111 312h126l-173 -436v-308zM87 796l117 235h98l113 -235h-122l-47 142l-57 -142h-102z" />
    <glyph glyph-name="ycircumflex" unicode="&#x177;" horiz-adv-x="440" 
d="M15 -172l-0.00195312 117c24.667 -1.33301 44.334 -2 59.001 -2c58.667 0 88 27.333 88 82v28l-161 503l152 7l79 -353l75 350l127 1l-144 -551c-20 -72 -49.167 -121.333 -87.5 -148s-81.166 -40 -128.499 -40c-16 0 -35.667 2 -59 6zM55.998 609l117 235h98l113 -235
h-122l-47 142l-57 -142h-102z" />
    <glyph glyph-name="Ydieresis" unicode="&#x178;" horiz-adv-x="501" 
d="M179 -6v303l-180 453h161l103 -312l111 312h126l-173 -436v-308zM63 816v141h141v-141h-141zM297 816v141h141v-141h-141z" />
    <glyph glyph-name="Zacute" unicode="&#x179;" horiz-adv-x="472" 
d="M30 0v93l241 540h-218l12 117h376v-97l-235 -536h242l-23 -117h-395zM273 792l-52 50l130 197l103 -95z" />
    <glyph glyph-name="zacute" unicode="&#x17a;" horiz-adv-x="425" 
d="M44 0v88l189 365h-181l12 110h325v-84l-186 -368h201l-12 -111h-348zM252 605l-52 50l130 197l103 -95z" />
    <glyph glyph-name="Zdotaccent" unicode="&#x17b;" horiz-adv-x="472" 
d="M30 0v93l241 540h-218l12 117h376v-97l-235 -536h242l-23 -117h-395zM186 796v141h141v-141h-141z" />
    <glyph glyph-name="zdotaccent" unicode="&#x17c;" horiz-adv-x="425" 
d="M44 0v88l189 365h-181l12 110h325v-84l-186 -368h201l-12 -111h-348zM165 609v141h141v-141h-141z" />
    <glyph glyph-name="Zcaron" unicode="&#x17d;" horiz-adv-x="472" 
d="M30 0v93l241 540h-218l12 117h376v-97l-235 -536h242l-23 -117h-395zM210 796l-117 235h102l57 -142l47 142h122l-113 -235h-98z" />
    <glyph glyph-name="zcaron" unicode="&#x17e;" horiz-adv-x="425" 
d="M44 0v88l189 365h-181l12 110h325v-84l-186 -368h201l-12 -111h-348zM189 609l-117 235h102l57 -142l47 142h122l-113 -235h-98z" />
    <glyph glyph-name="uni018F" unicode="&#x18f;" horiz-adv-x="542" 
d="M84 99c-33.333 76.667 -50.0029 176.334 -50.0029 299.001h319c0 69.333 -5.66699 128.5 -17 177.5s-34.666 73.5 -69.999 73.5c-24.667 0 -44.167 -12.833 -58.5 -38.5s-24.166 -59.167 -29.499 -100.5l-135 47c34 139.333 109 209 225 209
c154.667 0 232 -127.667 232 -383c0 -114.667 -17.333 -209.834 -52 -285.501s-95.667 -113.5 -183 -113.5s-147.666 38.333 -180.999 115zM328.497 154c12.333 30 19.834 75.667 22.501 137h-169c3.33301 -62 11 -107.833 23 -137.5s32.333 -44.5 61 -44.5
c29.333 0 50.166 15 62.499 45z" />
    <glyph glyph-name="florin" unicode="&#x192;" horiz-adv-x="344" 
d="M19 -185c-10.667 2.66699 -18.001 4.99902 -22.001 6.99902v84h30c26.667 0 44 7.5 52 22.5s12 35.5 12 61.5v317h-70v115h70v151c0 39.333 2.5 71.166 7.5 95.499s17.667 44.833 38 61.5s51.5 25 93.5 25c26 0 50.667 -2.33301 74 -7c12 -4 19.333 -6.66699 22 -8v-84
h-31c-26.667 0 -44 -7.33301 -52 -22s-12 -35 -12 -61v-151h94v-116h-94v-317c0 -39.333 -2.5 -71.166 -7.5 -95.499s-17.5 -44.666 -37.5 -60.999s-51.333 -24.5 -94 -24.5c-31.333 0 -55.666 2.33301 -72.999 7z" />
    <glyph glyph-name="uni019D" unicode="&#x19d;" horiz-adv-x="600" 
d="M70 744l153 6.00098l194 -446v434l124 12v-744l-121 -12l-219 469v-417c0 -64 -10.833 -113.5 -32.5 -148.5s-57.167 -52.5 -106.5 -52.5c-26 0 -57 5 -93 15v99c14 -4.66699 27 -7 39 -7c21.333 0 36.5 4.83301 45.5 14.5s14 20.167 15 31.5s1.5 31.666 1.5 60.999v685z
" />
    <glyph glyph-name="Ohorn" unicode="&#x1a0;" horiz-adv-x="643" 
d="M573.5 599.5c-21.667 -25.667 -48.499 -42.5 -80.499 -50.5c9.33301 -50 14 -105.333 14 -166c0 -114 -17.5 -208.667 -52.5 -284s-95.833 -113 -182.5 -113c-84.667 0 -144.167 36.5 -178.5 109.5s-51.5 167.5 -51.5 283.5c0 123.333 18.333 218.333 55 285
s95.667 100 177 100c91.333 0 156 -44 194 -132c9.33301 4 16.666 10 21.999 18s8 16.333 8 25c0 11.333 -2.66699 24 -8 38s-11.666 27.333 -18.999 40l99 37c9.33301 -12.667 17.666 -26.667 24.999 -42s11 -34.333 11 -57c0 -35.333 -10.833 -65.833 -32.5 -91.5z
M344.001 173.5c11.333 46.333 17.001 116.499 17.001 210.499c0 75.333 -5.5 137.833 -16.5 187.5s-34.5 74.5 -70.5 74.5s-59.333 -24.667 -70 -74s-16 -111.666 -16 -186.999c0 -94.667 5.5 -165.167 16.5 -211.5s34.167 -69.5 69.5 -69.5s58.666 23.167 69.999 69.5z" />
    <glyph glyph-name="ohorn" unicode="&#x1a1;" horiz-adv-x="566" 
d="M575.5 416c-13.667 -22 -31.501 -39.332 -53.501 -51.999s-45.333 -19.667 -70 -21c2.66699 -18 4 -39 4 -63c0 -88 -18.5 -158.833 -55.5 -212.5s-89.167 -80.5 -156.5 -80.5s-119.166 26.667 -155.499 80s-54.5 124.333 -54.5 213c0 88 18 158.333 54 211s88 79 156 79
c45.333 0 84 -12.333 116 -37s56.333 -59.667 73 -105c17.333 -0.666992 30.833 3.66602 40.5 12.999s14.5 20.333 14.5 33c0 11.333 -2.66699 24 -8 38s-11.666 27.333 -18.999 40l99 37c9.33301 -12.667 17.666 -26.667 24.999 -42s11 -34.333 11 -57
c0 -27.333 -6.83301 -52 -20.5 -74zM301.999 146.001c8.66699 36.667 13 81.666 13 134.999s-4.33301 98.333 -13 135s-28 55 -58 55s-49 -17.333 -57 -52s-12 -77 -12 -127c0 -61.333 4 -110.166 12 -146.499s27 -54.5 57 -54.5s49.333 18.333 58 55z" />
    <glyph glyph-name="Uhorn" unicode="&#x1af;" horiz-adv-x="641" 
d="M660 750c7.33301 -15.333 11.001 -34.332 11.001 -56.999c0 -28 -7.16699 -53.167 -21.5 -75.5s-33 -39.833 -56 -52.5s-47.167 -19 -72.5 -19c-8 0 -14 0.333008 -18 1v-283c0 -70.667 -13.833 -134.667 -41.5 -192s-85.5 -86 -173.5 -86c-74.667 0 -130.667 24 -168 72
s-56 111 -56 189v497l147 6v-515c0 -26 1.5 -48 4.5 -66s10.5 -33.333 22.5 -46s30.333 -19 55 -19c23.333 0 40.5 6.5 51.5 19.5s17.833 28.333 20.5 46s4 40.167 4 67.5v501l134 12v-118c19.333 -2 34.166 1.66699 44.499 11s15.5 20.666 15.5 33.999
c0 11.333 -2.66699 24 -8 38s-11.666 27.333 -18.999 40l99 37c9.33301 -12.667 17.666 -26.667 24.999 -42z" />
    <glyph glyph-name="uhorn" unicode="&#x1b0;" horiz-adv-x="615" 
d="M634 547c7.33301 -15.333 10.999 -34.334 10.999 -57.001c0 -28 -7.16699 -53.167 -21.5 -75.5s-33 -39.833 -56 -52.5s-47.167 -19 -72.5 -19c-7.33301 0 -12.666 0.333008 -15.999 1v-338l-141 -12v72c-23.333 -26.667 -48.833 -46.5 -76.5 -59.5
s-54.167 -19.5 -79.5 -19.5c-36.667 0 -66.667 12.833 -90 38.5s-35 60.167 -35 103.5v422l140 12v-377c0 -26.667 4.33301 -45.834 13 -57.501s22 -17.5 40 -17.5c14 0 29 3.5 45 10.5s30.333 18.167 43 33.5v396l141 12v-135c18.667 -1.33301 33 2.83398 43 12.501
s15 20.834 15 33.501c0 11.333 -2.66699 24 -8 38s-11.666 27.333 -18.999 40l99 37c9.33301 -12.667 17.666 -26.667 24.999 -42z" />
    <glyph glyph-name="uni01C4" unicode="&#x1c4;" horiz-adv-x="1026" 
d="M70 750l153.999 0.000976562c98.667 0 172.334 -31.333 221.001 -94s73 -157.334 73 -284.001c0 -67.333 -9.16699 -129 -27.5 -185s-47.5 -101.167 -87.5 -135.5s-91 -51.5 -153 -51.5h-180v750zM236.999 117.001c50.667 0 85.833 21.833 105.5 65.5
s29.5 97.5 29.5 161.5v34c0 46 -2.83301 86.833 -8.5 122.5s-18.667 66.667 -39 93s-50.833 39.5 -91.5 39.5h-17v-516h21zM583.998 0.000976562v93l241 540h-218l12 117h376v-97l-235 -536h242l-23 -117h-395zM763.998 796.001l-117 235h102l57 -142l47 142h122l-113 -235
h-98z" />
    <glyph glyph-name="uni01C5" unicode="&#x1c5;" horiz-adv-x="979" 
d="M70 750l153.999 0.000976562c98.667 0 172.334 -31.333 221.001 -94s73 -157.334 73 -284.001c0 -67.333 -9.16699 -129 -27.5 -185s-47.5 -101.167 -87.5 -135.5s-91 -51.5 -153 -51.5h-180v750zM236.999 117.001c50.667 0 85.833 21.833 105.5 65.5
s29.5 97.5 29.5 161.5v34c0 46 -2.83301 86.833 -8.5 122.5s-18.667 66.667 -39 93s-50.833 39.5 -91.5 39.5h-17v-516h21zM597.998 0.000976562v88l189 365h-181l12 110h325v-84l-186 -368h201l-12 -111h-348zM742.998 609.001l-117 235h102l57 -142l47 142h122l-113 -235
h-98z" />
    <glyph glyph-name="uni01C6" unicode="&#x1c6;" horiz-adv-x="943" 
d="M36 281c0 102 13.332 175.667 39.999 221s68.334 68 125.001 68c24 0 47 -7.83301 69 -23.5s38 -35.167 48 -58.5v244l141 18v-744l-106 -12l-35 76c-6.66699 -24.667 -19 -44.667 -37 -60s-45.667 -23 -83 -23c-108 0 -162 98 -162 294zM298.999 120.5
c12.667 22.333 19 60.1689 19 113.502v188c-19.333 30 -42 45 -68 45c-22 0 -38.167 -7.83301 -48.5 -23.5s-17 -36.167 -20 -61.5s-4.5 -59 -4.5 -101c0 -42.667 1.5 -77.334 4.5 -104.001s9.83301 -48.334 20.5 -65.001s26.667 -25 48 -25c20 0 36.333 11.167 49 33.5z
M561.999 0.00292969v88l189 365h-181l12 110h325v-84l-186 -368h201l-12 -111h-348zM706.999 609.003l-117 235h102l57 -142l47 142h122l-113 -235h-98z" />
    <glyph glyph-name="uni01C7" unicode="&#x1c7;" horiz-adv-x="802" 
d="M70 0v738l146 12v-633h246l-15 -117h-377zM496 1v99c14 -4.66699 27 -7 39 -7c24 0 39.167 9 45.5 27s9.5 44.667 9.5 80v538l146 12v-562c0 -64.667 -11.167 -114.5 -33.5 -149.5s-59.833 -52.5 -112.5 -52.5c-26.667 0 -58 5 -94 15z" />
    <glyph glyph-name="uni01C8" unicode="&#x1c8;" horiz-adv-x="734" 
d="M70 0v738l146 12v-633h246l-15 -117h-377zM535 635v145l141 10v-149zM457 -131l-0.000976562 83.998c24 0 41.5 2.33301 52.5 7s18 11.834 21 21.501s4.5 24.5 4.5 44.5v525l141 12v-537c0 -44 -2 -76.667 -6 -98s-14.833 -38.166 -32.5 -50.499s-46.5 -18.5 -86.5 -18.5
c-27.333 0 -58.666 3.33301 -93.999 10z" />
    <glyph glyph-name="uni01C9" unicode="&#x1c9;" horiz-adv-x="528" 
d="M62 -6v738l140 18v-744zM329 635v145l141 10v-149zM251 -131l-0.000976562 83.998c24 0 41.5 2.33301 52.5 7s18 11.834 21 21.501s4.5 24.5 4.5 44.5v525l141 12v-537c0 -44 -2 -76.667 -6 -98s-14.833 -38.166 -32.5 -50.499s-46.5 -18.5 -86.5 -18.5
c-27.333 0 -58.666 3.33301 -93.999 10z" />
    <glyph glyph-name="uni01CA" unicode="&#x1ca;" horiz-adv-x="944" 
d="M420 -6l-219 469v-457l-131 -6v744l153 6l194 -446v434l124 12v-744zM638 1v99c14 -4.66699 27 -7 39 -7c24 0 39.167 9 45.5 27s9.5 44.667 9.5 80v538l146 12v-562c0 -64.667 -11.167 -114.5 -33.5 -149.5s-59.833 -52.5 -112.5 -52.5c-26.667 0 -58 5 -94 15z" />
    <glyph glyph-name="uni01CB" unicode="&#x1cb;" horiz-adv-x="876" 
d="M420 -6l-219 469v-457l-131 -6v744l153 6l194 -446v434l124 12v-744zM677 635v145l141 10v-149zM599 -131l-0.000976562 83.998c24 0 41.5 2.33301 52.5 7s18 11.834 21 21.501s4.5 24.5 4.5 44.5v525l141 12v-537c0 -44 -2 -76.667 -6 -98
s-14.833 -38.166 -32.5 -50.499s-46.5 -18.5 -86.5 -18.5c-27.333 0 -58.666 3.33301 -93.999 10z" />
    <glyph glyph-name="uni01CC" unicode="&#x1cc;" horiz-adv-x="804" 
d="M61 551l140 12.001v-72c28.667 25.333 56.834 44.833 84.501 58.5s53.167 20.5 76.5 20.5c35.333 0 64.166 -12.833 86.499 -38.5s33.5 -60.167 33.5 -103.5v-422l-140 -12v381c0 50 -17 75 -51 75c-11.333 0 -23.833 -3.33301 -37.5 -10s-31.167 -16.334 -52.5 -29.001
v-405l-140 -12v557zM605 635.001v145l141 10v-149zM527 -130.999l-0.000976562 83.998c24 0 41.5 2.33301 52.5 7s18 11.834 21 21.501s4.5 24.5 4.5 44.5v525l141 12v-537c0 -44 -2 -76.667 -6 -98s-14.833 -38.166 -32.5 -50.499s-46.5 -18.5 -86.5 -18.5
c-27.333 0 -58.666 3.33301 -93.999 10z" />
    <glyph glyph-name="uni01D3" unicode="&#x1d3;" horiz-adv-x="568" 
d="M120 58c-37.333 48 -56 111 -56 189v497l147 6v-515c0 -26 1.5 -48 4.5 -66s10.5 -33.333 22.5 -46s30.333 -19 55 -19c23.333 0 40.5 6.5 51.5 19.5s17.833 28.333 20.5 46s4 40.167 4 67.5v501l134 12v-486c0 -70.667 -13.833 -134.667 -41.5 -192
s-85.5 -86 -173.5 -86c-74.667 0 -130.667 24 -168 72zM237 796l-117 235h102l57 -142l47 142h122l-113 -235h-98z" />
    <glyph glyph-name="uni01D4" unicode="&#x1d4;" horiz-adv-x="539" 
d="M92 25.5c-23.333 25.667 -35 60.168 -35 103.501v422l140 12v-377c0 -26.667 4.33301 -45.834 13 -57.501s22 -17.5 40 -17.5c14 0 29 3.5 45 10.5s30.333 18.167 43 33.5v396l141 12v-557l-141 -12v72c-23.333 -26.667 -48.833 -46.5 -76.5 -59.5
s-54.167 -19.5 -79.5 -19.5c-36.667 0 -66.667 12.833 -90 38.5zM223 609.001l-117 235h102l57 -142l47 142h122l-113 -235h-98z" />
    <glyph glyph-name="uni01E2" unicode="&#x1e2;" horiz-adv-x="771" 
d="M-3 0l322 741l100 9h320l-11 -117h-189v-179h124l-1 -126h-123v-211h208l-12 -117h-360l8 161h-163l-64 -161h-159zM268 281h116l11 359zM335 796v94h281v-94h-281z" />
    <glyph glyph-name="uni01E3" unicode="&#x1e3;" horiz-adv-x="711" 
d="M68.5 35c-28.333 32 -42.499 73.334 -42.499 124.001c0 71.333 25 121.833 75 151.5s107.667 46.5 173 50.5c0 38 -2.5 65.167 -7.5 81.5s-16.167 24.5 -33.5 24.5c-28 0 -44.667 -21.333 -50 -64l-137 24c6 50.667 26.667 87.167 62 109.5s75.333 33.5 120 33.5
c29.333 0 53.666 -5.33301 72.999 -16s36.666 -27.334 51.999 -50.001c19.333 22 39.666 38.5 60.999 49.5s46.333 16.5 75 16.5c62.667 0 110.667 -24.667 144 -74s50 -119 50 -209v-25h-268c0 -43.333 5.5 -82.833 16.5 -118.5s27.833 -53.5 50.5 -53.5
c26.667 0 46.334 14.833 59.001 44.5s19.334 45.5 20.001 47.5l106 -40c-12.667 -47.333 -34.667 -85 -66 -113s-70 -42 -116 -42c-30.667 0 -56.667 6.83301 -78 20.5s-41 34.5 -59 62.5c-14.667 -28.667 -37.5 -49.667 -68.5 -63s-62.167 -20 -93.5 -20
c-50 0 -89.167 16 -117.5 48zM549.001 343.001c0 38.667 -5.33301 70 -16 94s-26 36 -46 36c-20.667 0 -37.5 -12 -50.5 -36s-20.167 -55.333 -21.5 -94h134zM260.001 120.501c9.33301 22.333 14.001 44.5 14.001 66.5v90c-33.333 0 -60 -9 -80 -27s-30 -45.667 -30 -83
c0 -24.667 4.5 -44.167 13.5 -58.5s21.167 -21.5 36.5 -21.5c21.333 0 36.666 11.167 45.999 33.5zM219.002 629.001v94h281v-94h-281z" />
    <glyph glyph-name="Gcaron" unicode="&#x1e6;" horiz-adv-x="553" 
d="M91.5 97c-34.333 74 -51.499 167.668 -51.499 281.001c0 63.333 8.16699 124.333 24.5 183s42.666 107.167 78.999 145.5s82.833 57.5 139.5 57.5c48.667 0 89.167 -11.833 121.5 -35.5s56.333 -55 72 -94s23.5 -82.167 23.5 -129.5l-139 -9l-3 21
c-4 39.333 -11 70.666 -21 93.999s-28.667 35 -56 35c-34.667 0 -59.167 -27.833 -73.5 -83.5s-21.5 -119.834 -21.5 -192.501c0 -51.333 1.66699 -95 5 -131s12 -67.5 26 -94.5s35.667 -40.5 65 -40.5c24.667 0 44.167 15.333 58.5 46s21.5 68.334 21.5 113.001h-74l12 112
h203v-369l-56 -6l-34 139c-6 -26 -13.5 -49.333 -22.5 -70s-24.5 -39.667 -46.5 -57s-52 -26 -90 -26c-74 0 -128.167 37 -162.5 111zM229.001 796.001l-117 235h102l57 -142l47 142h122l-113 -235h-98z" />
    <glyph glyph-name="gcaron" unicode="&#x1e7;" horiz-adv-x="532" 
d="M78 -143.5c-41.333 21 -61.999 49.8359 -61.999 86.5029c0 25.333 9.33301 46.833 28 64.5s42.334 31.834 71.001 42.501c-25.333 7.33301 -44.333 16.666 -57 27.999s-19 27.666 -19 48.999c0 26 9 49.5 27 70.5s41.667 38.5 71 52.5c-60 34.667 -90 83 -90 145
c0 37.333 10.167 69.166 30.5 95.499s46.666 46.166 78.999 59.499s66.166 20 101.499 20c52.667 0 99.334 -14 140.001 -42c20 18 40.167 33 60.5 45s45.833 18 76.5 18v-93c-38.667 0 -68.334 -4.66699 -89.001 -14c8 -20.667 13.5 -37 16.5 -49s4.5 -25 4.5 -39
c0 -45.333 -15.333 -84.833 -46 -118.5s-80.667 -50.5 -150 -50.5l-37 1c-6 0.666992 -13.333 1 -22 1c-8.66699 -2.66699 -17 -8.5 -25 -17.5s-12 -18.5 -12 -28.5c0 -9.33301 3.33301 -17.333 10 -24s15 -10.667 25 -12l160 -18c92.667 -10.667 139 -55.667 139 -135
c0 -62 -23.833 -105.667 -71.5 -131s-109.5 -38 -185.5 -38c-74.667 0 -132.667 10.5 -174 31.5zM304.001 330.503c11.333 15.667 17 37.834 17 66.501c0 29.333 -6 51.333 -18 66s-27.333 22 -46 22c-20.667 0 -37 -8.33301 -49 -25s-18 -37.334 -18 -62.001
c0 -22.667 5 -43.5 15 -62.5s27 -28.5 51 -28.5c20.667 0 36.667 7.83301 48 23.5zM372.001 -10.9971c0 11.333 -3 19.668 -9 25.001s-15.5 9.16602 -28.5 11.499s-34.167 4.5 -63.5 6.5l-83 7c-12 -4 -22.333 -11.167 -31 -21.5s-13 -21.833 -13 -34.5
c0 -18 9.5 -31.833 28.5 -41.5s47.5 -14.5 85.5 -14.5c76 0 114 20.667 114 62zM219.001 609.005l-117 235h102l57 -142l47 142h122l-113 -235h-98z" />
    <glyph glyph-name="uni01EA" unicode="&#x1ea;" horiz-adv-x="549" 
d="M397 -52l54.002 -38.001c-12.667 -29.333 -31.667 -53 -57 -71s-52.333 -27 -81 -27c-18.667 0 -36.334 5 -53.001 15s-30.167 23 -40.5 39s-15.5 32.667 -15.5 50c0 29.333 6.33301 54.333 19 75c-120.667 26.667 -181 156 -181 388c0 123.333 18.333 218.333 55 285
s95.667 100 177 100c155.333 0 233 -127 233 -381c0 -103.333 -14.167 -191.166 -42.5 -263.499s-77.5 -115.5 -147.5 -129.5c-12 -13.333 -18 -27.333 -18 -42c0 -12.667 3.66699 -23 11 -31s16.666 -12 27.999 -12c24 0 43.667 14.333 59 43zM204.002 571.999
c-10.667 -49.333 -15.999 -111.667 -15.999 -187c0 -94.667 5.5 -165.167 16.5 -211.5s34.167 -69.5 69.5 -69.5s58.666 23.167 69.999 69.5s17 116.5 17 210.5c0 75.333 -5.5 137.833 -16.5 187.5s-34.5 74.5 -70.5 74.5s-59.333 -24.667 -70 -74z" />
    <glyph glyph-name="uni01EB" unicode="&#x1eb;" horiz-adv-x="490" 
d="M374 -52l54.001 -38c-12.667 -29.333 -31.667 -53 -57 -71s-52.333 -27 -81 -27c-18.667 0 -36.334 5 -53.001 15s-30.167 23 -40.5 39s-15.5 32.667 -15.5 50c0 30.667 6.33301 55.667 19 75c-54 12 -95.167 43.667 -123.5 95s-42.5 116 -42.5 194
c0 88 18 158.333 54 211s88 79 156 79c67.333 0 119.5 -26.333 156.5 -79s55.5 -123 55.5 -211c0 -76 -13.667 -139.333 -41 -190s-66.666 -82.667 -117.999 -96c-14 -16.667 -21 -32 -21 -46c0 -12.667 3.66699 -23 11 -31s16.666 -12 27.999 -12c24 0 43.667 14.333 59 43
zM187.001 419c-8 -34.667 -12 -77.001 -12 -127.001c0 -61.333 4 -110.166 12 -146.499s27 -54.5 57 -54.5s49.333 18.333 58 55s13 81.667 13 135s-4.33301 98.333 -13 135s-28 55 -58 55s-49 -17.333 -57 -52z" />
    <glyph glyph-name="uni01F1" unicode="&#x1f1;" horiz-adv-x="1019" 
d="M70 750l153.999 0.000976562c98.667 0 172.334 -31.333 221.001 -94s73 -157.334 73 -284.001c0 -67.333 -9.16699 -129 -27.5 -185s-47.5 -101.167 -87.5 -135.5s-91 -51.5 -153 -51.5h-180v750zM236.999 117.001c50.667 0 85.833 21.833 105.5 65.5
s29.5 97.5 29.5 161.5v34c0 46 -2.83301 86.833 -8.5 122.5s-18.667 66.667 -39 93s-50.833 39.5 -91.5 39.5h-17v-516h21zM576.998 0.000976562v93l241 540h-218l12 117h376v-97l-235 -536h242l-23 -117h-395z" />
    <glyph glyph-name="uni01F2" unicode="&#x1f2;" horiz-adv-x="979" 
d="M70 750l153.999 0.000976562c98.667 0 172.334 -31.333 221.001 -94s73 -157.334 73 -284.001c0 -67.333 -9.16699 -129 -27.5 -185s-47.5 -101.167 -87.5 -135.5s-91 -51.5 -153 -51.5h-180v750zM236.999 117.001c50.667 0 85.833 21.833 105.5 65.5
s29.5 97.5 29.5 161.5v34c0 46 -2.83301 86.833 -8.5 122.5s-18.667 66.667 -39 93s-50.833 39.5 -91.5 39.5h-17v-516h21zM597.998 0.000976562v88l189 365h-181l12 110h325v-84l-186 -368h201l-12 -111h-348z" />
    <glyph glyph-name="uni01F3" unicode="&#x1f3;" horiz-adv-x="943" 
d="M36 281c0 102 13.332 175.667 39.999 221s68.334 68 125.001 68c24 0 47 -7.83301 69 -23.5s38 -35.167 48 -58.5v244l141 18v-744l-106 -12l-35 76c-6.66699 -24.667 -19 -44.667 -37 -60s-45.667 -23 -83 -23c-108 0 -162 98 -162 294zM298.999 120.5
c12.667 22.333 19 60.1689 19 113.502v188c-19.333 30 -42 45 -68 45c-22 0 -38.167 -7.83301 -48.5 -23.5s-17 -36.167 -20 -61.5s-4.5 -59 -4.5 -101c0 -42.667 1.5 -77.334 4.5 -104.001s9.83301 -48.334 20.5 -65.001s26.667 -25 48 -25c20 0 36.333 11.167 49 33.5z
M561.999 0.00292969v88l189 365h-181l12 110h325v-84l-186 -368h201l-12 -111h-348z" />
    <glyph glyph-name="Aringacute" unicode="&#x1fa;" horiz-adv-x="552" 
d="M12 0l158 741l209 9l162 -744l-160 -6l-27 161h-179l-32 -161h-131zM202 281h125l-69 359zM168.5 831c-30.333 23.333 -45.502 56 -45.502 98s15 74.667 45 98s66 35 108 35c41.333 0 77 -11.5 107 -34.5s45 -55.833 45 -98.5c0 -28 -7.16699 -52.167 -21.5 -72.5
s-33.166 -35.5 -56.499 -45.5s-48 -15 -74 -15c-41.333 0 -77.166 11.667 -107.499 35zM317.498 888.5c12.333 9.66699 18.5 23.167 18.5 40.5c0 16.667 -6.16699 29.834 -18.5 39.501s-26.5 14.5 -42.5 14.5s-30 -4.83301 -42 -14.5s-18 -22.834 -18 -39.501s6 -30 18 -40
s26 -15 42 -15s30.167 4.83301 42.5 14.5zM291.998 1104l-52 50l130 197l103 -95z" />
    <glyph glyph-name="aringacute" unicode="&#x1fb;" horiz-adv-x="471" 
d="M431 6l-137.001 -12.002l-16 69c-12 -21.333 -29.667 -39.333 -53 -54s-47.333 -22 -72 -22c-24 0 -45.667 7.5 -65 22.5s-34.333 35.333 -45 61s-16 54.5 -16 86.5c0 72.667 24.833 123.834 74.5 153.501s107.5 46.5 173.5 50.5c0 36 -2.33301 62.667 -7 80
s-16 26 -34 26c-15.333 0 -27 -6 -35 -18s-13 -27.333 -15 -46l-137 24c6.66699 52.667 30.334 91 71.001 115c-18 22 -27 48.667 -27 80c0 42 15 74.667 45 98s66 35 108 35c41.333 0 77 -11.5 107 -34.5s45 -55.833 45 -98.5c0 -36.667 -12.333 -66.667 -37 -90
c38 -31.333 57 -76.333 57 -135v-291c0 -31.333 5 -64.666 15 -99.999zM194.499 588.498c7.66699 -9 17.5 -15.167 29.5 -18.5h10c11.333 0 19.666 -0.333008 24.999 -1c12.667 3.33301 23.334 9.5 32.001 18.5s13 20.5 13 34.5c0 16.667 -6.16699 29.834 -18.5 39.501
s-26.5 14.5 -42.5 14.5s-30 -4.83301 -42 -14.5s-18 -22.834 -18 -39.501c0 -13.333 3.83301 -24.5 11.5 -33.5zM274.999 276.998c-33.333 0 -60 -9 -80 -27s-30 -46 -30 -84c0 -25.333 4.5 -44.833 13.5 -58.5s22.167 -20.5 39.5 -20.5c11.333 0 20.833 2.66699 28.5 8
s17.167 14 28.5 26v156zM259.999 796.998l-52 50l130 197l103 -95z" />
    <glyph glyph-name="AEacute" unicode="&#x1fc;" horiz-adv-x="771" 
d="M-3 0l322 741l100 9h320l-11 -117h-189v-179h124l-1 -126h-123v-211h208l-12 -117h-360l8 161h-163l-64 -161h-159zM268 281h116l11 359zM492 792l-52 50l130 197l103 -95z" />
    <glyph glyph-name="aeacute" unicode="&#x1fd;" horiz-adv-x="711" 
d="M369 626l-52 50l130 197l103 -95zM68.5 35c-28.333 32 -42.499 73.334 -42.499 124.001c0 71.333 25 121.833 75 151.5s107.667 46.5 173 50.5c0 38 -2.5 65.167 -7.5 81.5s-16.167 24.5 -33.5 24.5c-28 0 -44.667 -21.333 -50 -64l-137 24
c6 50.667 26.667 87.167 62 109.5s75.333 33.5 120 33.5c29.333 0 53.666 -5.33301 72.999 -16s36.666 -27.334 51.999 -50.001c19.333 22 39.666 38.5 60.999 49.5s46.333 16.5 75 16.5c62.667 0 110.667 -24.667 144 -74s50 -119 50 -209v-25h-268
c0 -43.333 5.5 -82.833 16.5 -118.5s27.833 -53.5 50.5 -53.5c26.667 0 46.334 14.833 59.001 44.5s19.334 45.5 20.001 47.5l106 -40c-12.667 -47.333 -34.667 -85 -66 -113s-70 -42 -116 -42c-30.667 0 -56.667 6.83301 -78 20.5s-41 34.5 -59 62.5
c-14.667 -28.667 -37.5 -49.667 -68.5 -63s-62.167 -20 -93.5 -20c-50 0 -89.167 16 -117.5 48zM549.001 343.001c0 38.667 -5.33301 70 -16 94s-26 36 -46 36c-20.667 0 -37.5 -12 -50.5 -36s-20.167 -55.333 -21.5 -94h134zM260.001 120.501
c9.33301 22.333 14.001 44.5 14.001 66.5v90c-33.333 0 -60 -9 -80 -27s-30 -45.667 -30 -83c0 -24.667 4.5 -44.167 13.5 -58.5s21.167 -21.5 36.5 -21.5c21.333 0 36.666 11.167 45.999 33.5z" />
    <glyph glyph-name="Oslashacute" unicode="&#x1fe;" horiz-adv-x="551" 
d="M96 94l-35 -42.001l-47 45l55 66c-18 63.333 -27 142.333 -27 237c0 114.667 19 204.334 57 269.001s96.333 97 175 97c88 0 151.333 -41 190 -123l41 50l47 -45l-63 -76c12.667 -54 19 -111.333 19 -172c0 -124 -17 -224.333 -51 -301s-95 -115 -183 -115
c-80.667 0 -140 36.667 -178 110zM356 511.999c-10 91.333 -37.333 137.001 -82 137.001c-35.333 0 -58.5 -24.333 -69.5 -73s-16.5 -107.334 -16.5 -176.001c0 -42 0.333008 -72 1 -90zM330.5 143c12.333 22.667 20.501 54 24.501 94s6 94.333 6 163v17l-164 -200
c5.33301 -36 14 -63 26 -81s29 -27 51 -27c25.333 0 44.166 11.333 56.499 34zM292.001 822l-52 50l130 197l103 -95z" />
    <glyph glyph-name="oslashacute" unicode="&#x1ff;" horiz-adv-x="490" 
d="M434 426c14.667 -44 22 -92.667 22 -146c0 -88 -18.5 -158.833 -55.5 -212.5s-89.167 -80.5 -156.5 -80.5c-49.333 0 -91 15 -125 45l-45 -57l-87 83l66 84c-12.667 38.667 -19 84.667 -19 138c0 88 18 158.333 54 211s88 79 156 79c45.333 0 84.333 -12.333 117 -37
l41 52l88 -83zM187 419c-8 -34.667 -12 -77 -12 -127v-7l119 150c-12 24 -28.667 36 -50 36c-30 0 -49 -17.333 -57 -52zM302 146c8.66699 36.667 13.001 81.667 13.001 135v10l-123 -157c11.333 -28.667 28.666 -43 51.999 -43c30 0 49.333 18.333 58 55zM261.001 605
l-52 50l130 197l103 -95z" />
    <glyph glyph-name="uni0200" unicode="&#x200;" horiz-adv-x="552" 
d="M12 0l158 741l209 9l162 -744l-160 -6l-27 161h-179l-32 -161h-131zM202 281h125l-69 359zM378 797l-143 224l132 68l78 -257zM194 796l-188 188l114 95l132 -235z" />
    <glyph glyph-name="uni0201" unicode="&#x201;" horiz-adv-x="471" 
d="M88 9.5c-19.333 15 -34.332 35.3311 -44.999 60.998s-16 54.5 -16 86.5c0 72.667 24.833 123.834 74.5 153.501s107.5 46.5 173.5 50.5c0 36 -2.33301 62.667 -7 80s-16 26 -34 26c-15.333 0 -27 -6 -35 -18s-13 -27.333 -15 -46l-137 24
c6.66699 51.333 27.667 88 63 110s76.666 33 123.999 33c60.667 0 106.167 -16 136.5 -48s45.5 -73.667 45.5 -125v-291c0 -31.333 5 -64.666 15 -99.999l-137 -12l-16 69c-12 -21.333 -29.667 -39.333 -53 -54s-47.333 -22 -72 -22c-24 0 -45.667 7.5 -65 22.5z
M246.501 94.998c7.66699 5.33301 17.167 14 28.5 26v156c-33.333 0 -60 -9 -80 -27s-30 -46 -30 -84c0 -25.333 4.5 -44.833 13.5 -58.5s22.167 -20.5 39.5 -20.5c11.333 0 20.833 2.66699 28.5 8zM346.001 609.998l-143 224l132 68l78 -257zM162.001 608.998l-188 188
l114 95l132 -235z" />
    <glyph glyph-name="uni0202" unicode="&#x202;" horiz-adv-x="552" 
d="M12 0l158 741l209 9l162 -744l-160 -6l-27 161h-179l-32 -161h-131zM202 281h125l-69 359zM85 902c13.333 36 35.834 66.5 67.501 91.5s72.834 37.5 123.501 37.5s91.667 -12.5 123 -37.5s53.666 -55.5 66.999 -91.5s20 -71.333 20 -106h-117c0 22.667 -1.5 42 -4.5 58
s-11.333 30 -25 42s-34.834 18 -63.501 18s-50 -6 -64 -18s-22.5 -26 -25.5 -42s-4.5 -35.333 -4.5 -58h-117c0 34.667 6.66699 70 20 106z" />
    <glyph glyph-name="uni0203" unicode="&#x203;" horiz-adv-x="471" 
d="M88 9.5c-19.333 15 -34.332 35.3311 -44.999 60.998s-16 54.5 -16 86.5c0 72.667 24.833 123.834 74.5 153.501s107.5 46.5 173.5 50.5c0 36 -2.33301 62.667 -7 80s-16 26 -34 26c-15.333 0 -27 -6 -35 -18s-13 -27.333 -15 -46l-137 24
c6.66699 51.333 27.667 88 63 110s76.666 33 123.999 33c60.667 0 106.167 -16 136.5 -48s45.5 -73.667 45.5 -125v-291c0 -31.333 5 -64.666 15 -99.999l-137 -12l-16 69c-12 -21.333 -29.667 -39.333 -53 -54s-47.333 -22 -72 -22c-24 0 -45.667 7.5 -65 22.5z
M246.501 94.998c7.66699 5.33301 17.167 14 28.5 26v156c-33.333 0 -60 -9 -80 -27s-30 -46 -30 -84c0 -25.333 4.5 -44.833 13.5 -58.5s22.167 -20.5 39.5 -20.5c11.333 0 20.833 2.66699 28.5 8zM53.001 714.998c13.333 36 35.834 66.5 67.501 91.5
s72.834 37.5 123.501 37.5s91.667 -12.5 123 -37.5s53.666 -55.5 66.999 -91.5s20 -71.333 20 -106h-117c0 22.667 -1.5 42 -4.5 58s-11.333 30 -25 42s-34.834 18 -63.501 18s-50 -6 -64 -18s-22.5 -26 -25.5 -42s-4.5 -35.333 -4.5 -58h-117c0 34.667 6.66699 70 20 106z
" />
    <glyph glyph-name="uni0204" unicode="&#x204;" horiz-adv-x="483" 
d="M70 0v750h381l-12 -117h-222v-179h158l-1 -126h-157v-211h242l-12 -117h-377zM344 797l-143 224l132 68l78 -257zM160 796l-188 188l114 95l132 -235z" />
    <glyph glyph-name="uni0205" unicode="&#x205;" horiz-adv-x="471" 
d="M318 611l-143 224l132 68l78 -257zM134 610l-188 188l114 95l132 -235zM87 66.5c-35.333 53 -53 123.499 -53 211.499c0 89.333 18 160.333 54 213s88.333 79 157 79c65.333 0 115.333 -26.333 150 -79s52 -123.667 52 -213c0 -5.33301 -1 -9.16602 -3 -11.499
s-3 -3.83301 -3 -4.5h-267c0 -43.333 5.66699 -82.833 17 -118.5s28.666 -53.5 51.999 -53.5c26 0 45.333 15 58 45s19.334 45.667 20.001 47l106 -40c-14 -48 -36.333 -85.833 -67 -113.5s-70.667 -41.5 -120 -41.5c-66.667 0 -117.667 26.5 -153 79.5zM309 342.999
c0 40 -5.33105 71.667 -15.998 95s-27.334 35 -50.001 35c-11.333 0 -22.333 -5.66699 -33 -17s-19.334 -27 -26.001 -47s-10 -42 -10 -66h135z" />
    <glyph glyph-name="uni0206" unicode="&#x206;" horiz-adv-x="483" 
d="M70 0v750h381l-12 -117h-222v-179h158l-1 -126h-157v-211h242l-12 -117h-377zM51 902c13.333 36 35.834 66.5 67.501 91.5s72.834 37.5 123.501 37.5s91.667 -12.5 123 -37.5s53.666 -55.5 66.999 -91.5s20 -71.333 20 -106h-117c0 22.667 -1.5 42 -4.5 58
s-11.333 30 -25 42s-34.834 18 -63.501 18s-50 -6 -64 -18s-22.5 -26 -25.5 -42s-4.5 -35.333 -4.5 -58h-117c0 34.667 6.66699 70 20 106z" />
    <glyph glyph-name="uni0207" unicode="&#x207;" horiz-adv-x="471" 
d="M87 66.5c-35.333 53 -53 123.499 -53 211.499c0 89.333 18 160.333 54 213s88.333 79 157 79c65.333 0 115.333 -26.333 150 -79s52 -123.667 52 -213c0 -5.33301 -1 -9.16602 -3 -11.499s-3 -3.83301 -3 -4.5h-267c0 -43.333 5.66699 -82.833 17 -118.5
s28.666 -53.5 51.999 -53.5c26 0 45.333 15 58 45s19.334 45.667 20.001 47l106 -40c-14 -48 -36.333 -85.833 -67 -113.5s-70.667 -41.5 -120 -41.5c-66.667 0 -117.667 26.5 -153 79.5zM309 342.999c0 40 -5.33105 71.667 -15.998 95s-27.334 35 -50.001 35
c-11.333 0 -22.333 -5.66699 -33 -17s-19.334 -27 -26.001 -47s-10 -42 -10 -66h135zM45.002 714.999c13.333 36 35.834 66.5 67.501 91.5s72.834 37.5 123.501 37.5s91.667 -12.5 123 -37.5s53.666 -55.5 66.999 -91.5s20 -71.333 20 -106h-117c0 22.667 -1.5 42 -4.5 58
s-11.333 30 -25 42s-34.834 18 -63.501 18s-50 -6 -64 -18s-22.5 -26 -25.5 -42s-4.5 -35.333 -4.5 -58h-117c0 34.667 6.66699 70 20 106z" />
    <glyph glyph-name="uni0208" unicode="&#x208;" horiz-adv-x="287" 
d="M70 -6v744l147 12v-744zM246 797l-143 224l132 68l78 -257zM62 796l-188 188l114 95l132 -235z" />
    <glyph glyph-name="uni0209" unicode="&#x209;" horiz-adv-x="262" 
d="M61 -6v557l140 12v-557zM233 610l-143 224l132 68l78 -257zM49 609l-188 188l114 95l132 -235z" />
    <glyph glyph-name="uni020A" unicode="&#x20a;" horiz-adv-x="287" 
d="M70 -6v744l147 12v-744zM-47 902c13.333 36 35.834 66.5 67.501 91.5s72.834 37.5 123.501 37.5s91.667 -12.5 123 -37.5s53.666 -55.5 66.999 -91.5s20 -71.333 20 -106h-117c0 22.667 -1.5 42 -4.5 58s-11.333 30 -25 42s-34.834 18 -63.501 18s-50 -6 -64 -18
s-22.5 -26 -25.5 -42s-4.5 -35.333 -4.5 -58h-117c0 34.667 6.66699 70 20 106z" />
    <glyph glyph-name="uni020B" unicode="&#x20b;" horiz-adv-x="262" 
d="M61 -6v557l140 12v-557zM-60 715c13.333 36 35.834 66.5 67.501 91.5s72.834 37.5 123.501 37.5s91.667 -12.5 123 -37.5s53.666 -55.5 66.999 -91.5s20 -71.333 20 -106h-117c0 22.667 -1.5 42 -4.5 58s-11.333 30 -25 42s-34.834 18 -63.501 18s-50 -6 -64 -18
s-22.5 -26 -25.5 -42s-4.5 -35.333 -4.5 -58h-117c0 34.667 6.66699 70 20 106z" />
    <glyph glyph-name="uni020C" unicode="&#x20c;" horiz-adv-x="549" 
d="M93.5 95.5c-34.333 73 -51.5 167.5 -51.5 283.5c0 123.333 18.333 218.333 55 285s95.667 100 177 100c155.333 0 233 -127 233 -381c0 -114 -17.5 -208.667 -52.5 -284s-95.833 -113 -182.5 -113c-84.667 0 -144.167 36.5 -178.5 109.5zM344 173.5
c11.333 46.333 17.001 116.499 17.001 210.499c0 75.333 -5.5 137.833 -16.5 187.5s-34.5 74.5 -70.5 74.5s-59.333 -24.667 -70 -74s-16 -111.666 -16 -186.999c0 -94.667 5.5 -165.167 16.5 -211.5s34.167 -69.5 69.5 -69.5s58.666 23.167 69.999 69.5zM377.001 796.999
l-143 224l132 68l78 -257zM193.001 795.999l-188 188l114 95l132 -235z" />
    <glyph glyph-name="uni020D" unicode="&#x20d;" horiz-adv-x="490" 
d="M88.5 67c-36.333 53.333 -54.501 124.333 -54.501 213c0 88 18 158.333 54 211s88 79 156 79c67.333 0 119.5 -26.333 156.5 -79s55.5 -123 55.5 -211s-18.5 -158.833 -55.5 -212.5s-89.167 -80.5 -156.5 -80.5s-119.166 26.667 -155.499 80zM301.999 146
c8.66699 36.667 13 81.666 13 134.999s-4.33301 98.333 -13 135s-28 55 -58 55s-49 -17.333 -57 -52s-12 -77 -12 -127c0 -61.333 4 -110.166 12 -146.499s27 -54.5 57 -54.5s49.333 18.333 58 55zM346.999 609.999l-143 224l132 68l78 -257zM162.999 608.999l-188 188
l114 95l132 -235z" />
    <glyph glyph-name="uni020E" unicode="&#x20e;" horiz-adv-x="549" 
d="M93.5 95.5c-34.333 73 -51.5 167.5 -51.5 283.5c0 123.333 18.333 218.333 55 285s95.667 100 177 100c155.333 0 233 -127 233 -381c0 -114 -17.5 -208.667 -52.5 -284s-95.833 -113 -182.5 -113c-84.667 0 -144.167 36.5 -178.5 109.5zM344 173.5
c11.333 46.333 17.001 116.499 17.001 210.499c0 75.333 -5.5 137.833 -16.5 187.5s-34.5 74.5 -70.5 74.5s-59.333 -24.667 -70 -74s-16 -111.666 -16 -186.999c0 -94.667 5.5 -165.167 16.5 -211.5s34.167 -69.5 69.5 -69.5s58.666 23.167 69.999 69.5zM84.001 901.999
c13.333 36 35.834 66.5 67.501 91.5s72.834 37.5 123.501 37.5s91.667 -12.5 123 -37.5s53.666 -55.5 66.999 -91.5s20 -71.333 20 -106h-117c0 22.667 -1.5 42 -4.5 58s-11.333 30 -25 42s-34.834 18 -63.501 18s-50 -6 -64 -18s-22.5 -26 -25.5 -42s-4.5 -35.333 -4.5 -58
h-117c0 34.667 6.66699 70 20 106z" />
    <glyph glyph-name="uni020F" unicode="&#x20f;" horiz-adv-x="490" 
d="M88.5 67c-36.333 53.333 -54.501 124.333 -54.501 213c0 88 18 158.333 54 211s88 79 156 79c67.333 0 119.5 -26.333 156.5 -79s55.5 -123 55.5 -211s-18.5 -158.833 -55.5 -212.5s-89.167 -80.5 -156.5 -80.5s-119.166 26.667 -155.499 80zM301.999 146
c8.66699 36.667 13 81.666 13 134.999s-4.33301 98.333 -13 135s-28 55 -58 55s-49 -17.333 -57 -52s-12 -77 -12 -127c0 -61.333 4 -110.166 12 -146.499s27 -54.5 57 -54.5s49.333 18.333 58 55zM53.999 714.999c13.333 36 35.834 66.5 67.501 91.5
s72.834 37.5 123.501 37.5s91.667 -12.5 123 -37.5s53.666 -55.5 66.999 -91.5s20 -71.333 20 -106h-117c0 22.667 -1.5 42 -4.5 58s-11.333 30 -25 42s-34.834 18 -63.501 18s-50 -6 -64 -18s-22.5 -26 -25.5 -42s-4.5 -35.333 -4.5 -58h-117c0 34.667 6.66699 70 20 106z
" />
    <glyph glyph-name="uni0210" unicode="&#x210;" horiz-adv-x="565" 
d="M273 329h-57v-323l-146 -12v750l178 6c86 0 153.333 -17.167 202 -51.5s73 -86.833 73 -157.5c0 -46.667 -9.16699 -85 -27.5 -115s-44.833 -55 -79.5 -75l67 -163l68 -162l-144 -39zM266 437c34.667 0 61.833 7.16699 81.5 21.5s29.5 41.5 29.5 81.5
c0 62 -30.667 93 -92 93h-69v-196h50zM384.999 797l-143 224l132 68l78 -257zM200.999 796l-188 188l114 95l132 -235z" />
    <glyph glyph-name="uni0211" unicode="&#x211;" horiz-adv-x="404" 
d="M61 551l140 11.999v-91c20 28.667 44.833 51.834 74.5 69.501s67.5 26.5 113.5 26.5v-137c-24 0 -55.5 -4.16699 -94.5 -12.5s-70.167 -22.833 -93.5 -43.5v-369l-140 -12v557zM304 609.999l-143 224l132 68l78 -257zM120 608.999l-188 188l114 95l132 -235z" />
    <glyph glyph-name="uni0212" unicode="&#x212;" horiz-adv-x="565" 
d="M273 329h-57v-323l-146 -12v750l178 6c86 0 153.333 -17.167 202 -51.5s73 -86.833 73 -157.5c0 -46.667 -9.16699 -85 -27.5 -115s-44.833 -55 -79.5 -75l67 -163l68 -162l-144 -39zM266 437c34.667 0 61.833 7.16699 81.5 21.5s29.5 41.5 29.5 81.5
c0 62 -30.667 93 -92 93h-69v-196h50zM91.999 902c13.333 36 35.834 66.5 67.501 91.5s72.834 37.5 123.501 37.5s91.667 -12.5 123 -37.5s53.666 -55.5 66.999 -91.5s20 -71.333 20 -106h-117c0 22.667 -1.5 42 -4.5 58s-11.333 30 -25 42s-34.834 18 -63.501 18
s-50 -6 -64 -18s-22.5 -26 -25.5 -42s-4.5 -35.333 -4.5 -58h-117c0 34.667 6.66699 70 20 106z" />
    <glyph glyph-name="uni0213" unicode="&#x213;" horiz-adv-x="404" 
d="M61 551l140 11.999v-91c20 28.667 44.833 51.834 74.5 69.501s67.5 26.5 113.5 26.5v-137c-24 0 -55.5 -4.16699 -94.5 -12.5s-70.167 -22.833 -93.5 -43.5v-369l-140 -12v557zM11 714.999c13.333 36 35.834 66.5 67.501 91.5s72.834 37.5 123.501 37.5
s91.667 -12.5 123 -37.5s53.666 -55.5 66.999 -91.5s20 -71.333 20 -106h-117c0 22.667 -1.5 42 -4.5 58s-11.333 30 -25 42s-34.834 18 -63.501 18s-50 -6 -64 -18s-22.5 -26 -25.5 -42s-4.5 -35.333 -4.5 -58h-117c0 34.667 6.66699 70 20 106z" />
    <glyph glyph-name="uni0214" unicode="&#x214;" horiz-adv-x="568" 
d="M120 58c-37.333 48 -56 111 -56 189v497l147 6v-515c0 -26 1.5 -48 4.5 -66s10.5 -33.333 22.5 -46s30.333 -19 55 -19c23.333 0 40.5 6.5 51.5 19.5s17.833 28.333 20.5 46s4 40.167 4 67.5v501l134 12v-486c0 -70.667 -13.833 -134.667 -41.5 -192
s-85.5 -86 -173.5 -86c-74.667 0 -130.667 24 -168 72zM386 797l-143 224l132 68l78 -257zM202 796l-188 188l114 95l132 -235z" />
    <glyph glyph-name="uni0215" unicode="&#x215;" horiz-adv-x="539" 
d="M92 25.5c-23.333 25.667 -35 60.168 -35 103.501v422l140 12v-377c0 -26.667 4.33301 -45.834 13 -57.501s22 -17.5 40 -17.5c14 0 29 3.5 45 10.5s30.333 18.167 43 33.5v396l141 12v-557l-141 -12v72c-23.333 -26.667 -48.833 -46.5 -76.5 -59.5
s-54.167 -19.5 -79.5 -19.5c-36.667 0 -66.667 12.833 -90 38.5zM372 610.001l-143 224l132 68l78 -257zM188 609.001l-188 188l114 95l132 -235z" />
    <glyph glyph-name="uni0216" unicode="&#x216;" horiz-adv-x="568" 
d="M120 58c-37.333 48 -56 111 -56 189v497l147 6v-515c0 -26 1.5 -48 4.5 -66s10.5 -33.333 22.5 -46s30.333 -19 55 -19c23.333 0 40.5 6.5 51.5 19.5s17.833 28.333 20.5 46s4 40.167 4 67.5v501l134 12v-486c0 -70.667 -13.833 -134.667 -41.5 -192
s-85.5 -86 -173.5 -86c-74.667 0 -130.667 24 -168 72zM93 902c13.333 36 35.834 66.5 67.501 91.5s72.834 37.5 123.501 37.5s91.667 -12.5 123 -37.5s53.666 -55.5 66.999 -91.5s20 -71.333 20 -106h-117c0 22.667 -1.5 42 -4.5 58s-11.333 30 -25 42
s-34.834 18 -63.501 18s-50 -6 -64 -18s-22.5 -26 -25.5 -42s-4.5 -35.333 -4.5 -58h-117c0 34.667 6.66699 70 20 106z" />
    <glyph glyph-name="uni0217" unicode="&#x217;" horiz-adv-x="539" 
d="M92 25.5c-23.333 25.667 -35 60.168 -35 103.501v422l140 12v-377c0 -26.667 4.33301 -45.834 13 -57.501s22 -17.5 40 -17.5c14 0 29 3.5 45 10.5s30.333 18.167 43 33.5v396l141 12v-557l-141 -12v72c-23.333 -26.667 -48.833 -46.5 -76.5 -59.5
s-54.167 -19.5 -79.5 -19.5c-36.667 0 -66.667 12.833 -90 38.5zM79 715.001c13.333 36 35.834 66.5 67.501 91.5s72.834 37.5 123.501 37.5s91.667 -12.5 123 -37.5s53.666 -55.5 66.999 -91.5s20 -71.333 20 -106h-117c0 22.667 -1.5 42 -4.5 58s-11.333 30 -25 42
s-34.834 18 -63.501 18s-50 -6 -64 -18s-22.5 -26 -25.5 -42s-4.5 -35.333 -4.5 -58h-117c0 34.667 6.66699 70 20 106z" />
    <glyph glyph-name="Scommaaccent" unicode="&#x218;" horiz-adv-x="533" 
d="M114.5 36.5c-41.667 33.667 -72.166 78.833 -91.499 135.5l124 58l12 -20c19.333 -33.333 37.833 -59.333 55.5 -78s39.834 -28 66.501 -28c17.333 0 32.833 8.33301 46.5 25s20.5 35 20.5 55c0 18.667 -4.66699 35.667 -14 51s-21.333 27.666 -36 36.999l-131 78
c-38 21.333 -68.333 48.333 -91 81s-34 69.334 -34 110.001c0 43.333 10.167 82 30.5 116s48 60.333 83 79s74.5 28 118.5 28c51.333 0 95 -12.667 131 -38s62.667 -63 80 -113l-124 -56c-2.66699 5.33301 -8.33398 17.333 -17.001 36s-19.167 32.167 -31.5 40.5
s-27.5 12.5 -45.5 12.5c-22 0 -38.833 -7 -50.5 -21s-17.5 -32 -17.5 -54c0 -16 4.5 -30.5 13.5 -43.5s19.833 -23.167 32.5 -30.5l121 -71c89.333 -50.667 136.333 -117.334 141 -200.001c0 -47.333 -10.5 -89.166 -31.5 -125.499s-49.667 -64.5 -86 -84.5
s-76.833 -30 -121.5 -30c-60.667 0 -111.834 16.833 -153.501 50.5zM226.001 -237.001c19.333 0 32.999 8 40.999 24c2.66699 6 4.66699 13.667 6 23h-71v141h141v-141c0 -32 -5.5 -58 -16.5 -78s-25.167 -35 -42.5 -45s-36.666 -16 -57.999 -18v94z" />
    <glyph glyph-name="scommaaccent" unicode="&#x219;" horiz-adv-x="451" 
d="M95 24.5c-34 25 -55.9971 59.835 -65.9971 104.502l109 36c2.66699 -12.667 7.66699 -24 15 -34c15.333 -22 37.666 -33 66.999 -33c16.667 0 32.667 3.66699 48 11s23 18.666 23 33.999c0 20.667 -14.333 36.667 -43 48l-118 48c-31.333 13.333 -55.333 33.333 -72 60
s-25 59.334 -25 98.001c0 36 8.83301 67 26.5 93s41 45.833 70 59.5s60.167 20.5 93.5 20.5c42 0 80.667 -12.167 116 -36.5s59 -57.5 71 -99.5l-116 -36c-2.66699 11.333 -7.33398 22.666 -14.001 33.999c-14.667 22.667 -33.334 34 -56.001 34
c-16.667 0 -31 -3.83301 -43 -11.5s-18 -18.834 -18 -33.501c0 -17.333 16.333 -33.333 49 -48l100 -41c35.333 -16.667 63 -37.667 83 -63s30 -59.333 30 -102c0 -38.667 -9.33301 -71.5 -28 -98.5s-43 -47.333 -73 -61s-61.667 -20.5 -95 -20.5
c-55.333 0 -100 12.5 -134 37.5zM181.003 -235.998c19.333 0 32.999 8 40.999 24c2.66699 6 4.66699 13.667 6 23h-71v141h141v-141c0 -32 -5.5 -58 -16.5 -78s-25.167 -35 -42.5 -45s-36.666 -16 -57.999 -18v94z" />
    <glyph glyph-name="uni021A" unicode="&#x21a;" horiz-adv-x="477" 
d="M167 -6v639h-153l11 117h440l-12 -117h-140v-627zM200 -236c19.333 0 32.999 8 40.999 24c2.66699 6 4.66699 13.667 6 23h-71v141h141v-141c0 -32 -5.5 -58 -16.5 -78s-25.167 -35 -42.5 -45s-36.666 -16 -57.999 -18v94z" />
    <glyph glyph-name="uni021B" unicode="&#x21b;" horiz-adv-x="360" 
d="M138 23.5c-31.333 23 -47.001 63.833 -47.001 122.5v311h-78l6 106h76l14 122l122 17v-139h116l-6 -106h-109v-310c0 -20 5 -34.333 15 -43s24.667 -13 44 -13c10.667 0 28.667 2 54 6v-97c-2.66699 -0.666992 -13.167 -2.66699 -31.5 -6s-38.5 -5 -60.5 -5
c-45.333 0 -83.666 11.5 -114.999 34.5zM174.999 -236c19.333 0 32.999 8 40.999 24c2.66699 6 4.66699 13.667 6 23h-71v141h141v-141c0 -32 -5.5 -58 -16.5 -78s-25.167 -35 -42.5 -45s-36.666 -16 -57.999 -18v94z" />
    <glyph glyph-name="uni022A" unicode="&#x22a;" horiz-adv-x="549" 
d="M93.5 95.5c-34.333 73 -51.5 167.5 -51.5 283.5c0 123.333 18.333 218.333 55 285s95.667 100 177 100c155.333 0 233 -127 233 -381c0 -114 -17.5 -208.667 -52.5 -284s-95.833 -113 -182.5 -113c-84.667 0 -144.167 36.5 -178.5 109.5zM344 173.5
c11.333 46.333 17.001 116.499 17.001 210.499c0 75.333 -5.5 137.833 -16.5 187.5s-34.5 74.5 -70.5 74.5s-59.333 -24.667 -70 -74s-16 -111.666 -16 -186.999c0 -94.667 5.5 -165.167 16.5 -211.5s34.167 -69.5 69.5 -69.5s58.666 23.167 69.999 69.5zM87.001 815.999
v141h141v-141h-141zM321.001 815.999v141h141v-141h-141zM134.001 1003v94h281v-94h-281z" />
    <glyph glyph-name="uni022B" unicode="&#x22b;" horiz-adv-x="490" 
d="M88.5 67c-36.333 53.333 -54.501 124.333 -54.501 213c0 88 18 158.333 54 211s88 79 156 79c67.333 0 119.5 -26.333 156.5 -79s55.5 -123 55.5 -211s-18.5 -158.833 -55.5 -212.5s-89.167 -80.5 -156.5 -80.5s-119.166 26.667 -155.499 80zM301.999 146
c8.66699 36.667 13 81.666 13 134.999s-4.33301 98.333 -13 135s-28 55 -58 55s-49 -17.333 -57 -52s-12 -77 -12 -127c0 -61.333 4 -110.166 12 -146.499s27 -54.5 57 -54.5s49.333 18.333 58 55zM56.999 628.999v141h141v-141h-141zM290.999 628.999v141h141v-141h-141z
M103.999 815.999v94h281v-94h-281z" />
    <glyph glyph-name="uni022C" unicode="&#x22c;" horiz-adv-x="549" 
d="M93.5 95.5c-34.333 73 -51.5 167.5 -51.5 283.5c0 123.333 18.333 218.333 55 285s95.667 100 177 100c155.333 0 233 -127 233 -381c0 -114 -17.5 -208.667 -52.5 -284s-95.833 -113 -182.5 -113c-84.667 0 -144.167 36.5 -178.5 109.5zM344 173.5
c11.333 46.333 17.001 116.499 17.001 210.499c0 75.333 -5.5 137.833 -16.5 187.5s-34.5 74.5 -70.5 74.5s-59.333 -24.667 -70 -74s-16 -111.666 -16 -186.999c0 -94.667 5.5 -165.167 16.5 -211.5s34.167 -69.5 69.5 -69.5s58.666 23.167 69.999 69.5zM310.001 793.999
c-8.66699 4 -19.998 10 -33.998 18c-12.667 8.66699 -23.667 15 -33 19s-19.666 6 -30.999 6c-27.333 0 -55.666 -16.333 -84.999 -49l-7 90c16.667 18 32.667 32.333 48 43s32 16 50 16c9.33301 0 18.166 -1.5 26.499 -4.5s19.5 -7.83301 33.5 -14.5
c12.667 -6.66699 23.5 -11.667 32.5 -15s18.5 -5 28.5 -5c14.667 0 28.5 4 41.5 12s22.5 17 28.5 27l22 -79c0 -2 -4.33301 -9 -13 -21s-19.834 -23.167 -33.501 -33.5s-28.834 -15.5 -45.501 -15.5c-10.667 0 -20.334 2 -29.001 6zM134.003 982.999v94h281v-94h-281z" />
    <glyph glyph-name="uni022D" unicode="&#x22d;" horiz-adv-x="490" 
d="M88.5 67c-36.333 53.333 -54.501 124.333 -54.501 213c0 88 18 158.333 54 211s88 79 156 79c67.333 0 119.5 -26.333 156.5 -79s55.5 -123 55.5 -211s-18.5 -158.833 -55.5 -212.5s-89.167 -80.5 -156.5 -80.5s-119.166 26.667 -155.499 80zM301.999 146
c8.66699 36.667 13 81.666 13 134.999s-4.33301 98.333 -13 135s-28 55 -58 55s-49 -17.333 -57 -52s-12 -77 -12 -127c0 -61.333 4 -110.166 12 -146.499s27 -54.5 57 -54.5s49.333 18.333 58 55zM279.999 606.999c-8.66699 4 -19.998 10 -33.998 18
c-12.667 8.66699 -23.667 15 -33 19s-19.666 6 -30.999 6c-27.333 0 -55.666 -16.333 -84.999 -49l-7 90c16.667 18 32.667 32.333 48 43s32 16 50 16c9.33301 0 18.166 -1.5 26.499 -4.5s19.5 -7.83301 33.5 -14.5c12.667 -6.66699 23.5 -11.667 32.5 -15s18.5 -5 28.5 -5
c14.667 0 28.5 4 41.5 12s22.5 17 28.5 27l22 -79c0 -2 -4.33301 -9 -13 -21s-19.834 -23.167 -33.501 -33.5s-28.834 -15.5 -45.501 -15.5c-10.667 0 -20.334 2 -29.001 6zM104.001 795.999v94h281v-94h-281z" />
    <glyph glyph-name="uni0230" unicode="&#x230;" horiz-adv-x="549" 
d="M93.5 95.5c-34.333 73 -51.5 167.5 -51.5 283.5c0 123.333 18.333 218.333 55 285s95.667 100 177 100c155.333 0 233 -127 233 -381c0 -114 -17.5 -208.667 -52.5 -284s-95.833 -113 -182.5 -113c-84.667 0 -144.167 36.5 -178.5 109.5zM344 173.5
c11.333 46.333 17.001 116.499 17.001 210.499c0 75.333 -5.5 137.833 -16.5 187.5s-34.5 74.5 -70.5 74.5s-59.333 -24.667 -70 -74s-16 -111.666 -16 -186.999c0 -94.667 5.5 -165.167 16.5 -211.5s34.167 -69.5 69.5 -69.5s58.666 23.167 69.999 69.5zM204.001 795.999
v141h141v-141h-141zM134.001 982.999v94h281v-94h-281z" />
    <glyph glyph-name="uni0231" unicode="&#x231;" horiz-adv-x="490" 
d="M88.5 67c-36.333 53.333 -54.501 124.333 -54.501 213c0 88 18 158.333 54 211s88 79 156 79c67.333 0 119.5 -26.333 156.5 -79s55.5 -123 55.5 -211s-18.5 -158.833 -55.5 -212.5s-89.167 -80.5 -156.5 -80.5s-119.166 26.667 -155.499 80zM301.999 146
c8.66699 36.667 13 81.666 13 134.999s-4.33301 98.333 -13 135s-28 55 -58 55s-49 -17.333 -57 -52s-12 -77 -12 -127c0 -61.333 4 -110.166 12 -146.499s27 -54.5 57 -54.5s49.333 18.333 58 55zM173.999 608.999v141h141v-141h-141zM103.999 795.999v94h281v-94h-281z
" />
    <glyph glyph-name="uni0232" unicode="&#x232;" horiz-adv-x="501" 
d="M179 -6v303l-180 453h161l103 -312l111 312h126l-173 -436v-308zM110 796v94h281v-94h-281z" />
    <glyph glyph-name="uni0233" unicode="&#x233;" horiz-adv-x="440" 
d="M15 -172l-0.00195312 117c24.667 -1.33301 44.334 -2 59.001 -2c58.667 0 88 27.333 88 82v28l-161 503l152 7l79 -353l75 350l127 1l-144 -551c-20 -72 -49.167 -121.333 -87.5 -148s-81.166 -40 -128.499 -40c-16 0 -35.667 2 -59 6zM78.998 609v94h281v-94h-281z" />
    <glyph glyph-name="uni0237" unicode="&#x237;" horiz-adv-x="262" 
d="M-17 -131l-0.000976562 83.998c24 0 41.5 2.33301 52.5 7s18 11.834 21 21.501s4.5 24.5 4.5 44.5v525l140 12v-537c0 -44 -2 -76.667 -6 -98s-14.833 -38.166 -32.5 -50.499s-46.167 -18.5 -85.5 -18.5c-27.333 0 -58.666 3.33301 -93.999 10z" />
    <glyph glyph-name="uni0259" unicode="&#x259;" horiz-adv-x="471" 
d="M67.5 66c-27.667 54.667 -41.501 114.998 -41.501 180.998c0 20 0.666992 36 2 48h269c0 42.667 -5.66699 81.834 -17 117.501s-28.333 53.5 -51 53.5c-16.667 0 -31 -8.5 -43 -25.5s-20.667 -31.667 -26 -44s-8.66602 -19.5 -9.99902 -21.5l-106 40
c14 48 36.333 85.833 67 113.5s70.334 41.5 119.001 41.5c67.333 0 118.666 -26.5 153.999 -79.5s53 -123.833 53 -212.5c0 -89.333 -18.167 -160.666 -54.5 -213.999s-89.5 -80 -159.5 -80c-76 0 -127.833 27.333 -155.5 82zM275.999 120.498c14 26.333 21 57.5 21 93.5
h-134c0 -39.333 5.16699 -71.333 15.5 -96s25.5 -37 45.5 -37c20.667 0 38 13.167 52 39.5z" />
    <glyph glyph-name="uni0272" unicode="&#x272;" horiz-adv-x="600" 
d="M61 551l139.999 11.999v-72c28.667 25.333 56.834 44.833 84.501 58.5s53.167 20.5 76.5 20.5c35.333 0 64.166 -12.833 86.499 -38.5s33.5 -60.167 33.5 -103.5v-422l-140 -12v381c0 50 -17 75 -51 75c-11.333 0 -23.833 -3.33301 -37.5 -10
s-31.167 -16.334 -52.5 -29.001v-385c0 -44 -2 -76.667 -6 -98s-14.833 -38.166 -32.5 -50.499s-46.167 -18.5 -85.5 -18.5c-27.333 0 -58.666 3.33301 -93.999 10v84c24 0 41.5 2.33301 52.5 7s18 11.834 21 21.501s4.5 24.5 4.5 44.5v525z" />
    <glyph glyph-name="circumflex" unicode="&#x2c6;" horiz-adv-x="361" 
d="M16 609l117 235h98l113 -235h-122l-47 142l-57 -142h-102z" />
    <glyph glyph-name="caron" unicode="&#x2c7;" horiz-adv-x="375" 
d="M133 609l-117 235h102l57 -142l47 142h122l-113 -235h-98z" />
    <glyph glyph-name="uni02C9" unicode="&#x2c9;" horiz-adv-x="393" 
d="M56 591v117h281v-117h-281z" />
    <glyph glyph-name="breve" unicode="&#x2d8;" horiz-adv-x="497" 
d="M143.5 665.5c-24.333 26.333 -38.834 61.832 -43.501 106.499h84c0.666992 -2 2.66699 -8.66699 6 -20s9.83301 -19.833 19.5 -25.5s22.834 -8.5 39.501 -8.5s29.167 2.5 37.5 7.5s13.666 10.333 15.999 16s5.83301 15.834 10.5 30.501h84
c-4.66699 -44 -19 -79.333 -43 -106s-58.333 -40 -103 -40c-47.333 0 -83.166 13.167 -107.499 39.5z" />
    <glyph glyph-name="dotaccent" unicode="&#x2d9;" horiz-adv-x="186" 
d="M22 609v141h141v-141h-141z" />
    <glyph glyph-name="ring" unicode="&#x2da;" horiz-adv-x="385" 
d="M85.5 644c-30.333 23.333 -45.502 56 -45.502 98s15 74.667 45 98s66 35 108 35c41.333 0 77 -11.5 107 -34.5s45 -55.833 45 -98.5c0 -28 -7.16699 -52.167 -21.5 -72.5s-33.166 -35.5 -56.499 -45.5s-48 -15 -74 -15c-41.333 0 -77.166 11.667 -107.499 35z
M234.498 701.5c12.333 9.66699 18.5 23.167 18.5 40.5c0 16.667 -6.16699 29.834 -18.5 39.501s-26.5 14.5 -42.5 14.5s-30 -4.83301 -42 -14.5s-18 -22.834 -18 -39.501s6 -30 18 -40s26 -15 42 -15s30.167 4.83301 42.5 14.5z" />
    <glyph glyph-name="ogonek" unicode="&#x2db;" horiz-adv-x="266" 
d="M131.5 -18c-7.66699 -10 -11.4971 -21.332 -11.4971 -33.999s3.66699 -23 11 -31s16.666 -12 27.999 -12c24 0 43.667 14.333 59 43l54 -38c-12.667 -29.333 -31.667 -53 -57 -71s-52.333 -27 -81 -27c-18.667 0 -36.334 5 -53.001 15s-30.167 23 -40.5 39
s-15.5 32.667 -15.5 50c0 49.333 18.333 87.666 55 114.999l85 -14c-14.667 -13.333 -25.834 -25 -33.501 -35z" />
    <glyph glyph-name="tilde" unicode="&#x2dc;" horiz-adv-x="420" 
d="M248 607c-8.66699 4 -19.998 10 -33.998 18c-12.667 8.66699 -23.667 15 -33 19s-19.666 6 -30.999 6c-27.333 0 -55.666 -16.333 -84.999 -49l-7 90c16.667 18 32.667 32.333 48 43s32 16 50 16c9.33301 0 18.166 -1.5 26.499 -4.5s19.5 -7.83301 33.5 -14.5
c12.667 -6.66699 23.5 -11.667 32.5 -15s18.5 -5 28.5 -5c14.667 0 28.5 4 41.5 12s22.5 17 28.5 27l22 -79c0 -2 -4.33301 -9 -13 -21s-19.834 -23.167 -33.501 -33.5s-28.834 -15.5 -45.501 -15.5c-10.667 0 -20.334 2 -29.001 6z" />
    <glyph glyph-name="hungarumlaut" unicode="&#x2dd;" horiz-adv-x="538" 
d="M88 562l-58 47l131 235l114 -95zM333 562l-58 47l132 235l114 -95z" />
    <glyph glyph-name="gravecomb" unicode="&#x300;" 
d="M-89 605l-181 152l103 95l130 -197z" />
    <glyph glyph-name="acutecomb" unicode="&#x301;" 
d="M-208 605l-52 50l130 197l103 -95z" />
    <glyph glyph-name="uni0302" unicode="&#x302;" 
d="M-345 609l117 235h98l113 -235h-122l-47 142l-57 -142h-102z" />
    <glyph glyph-name="tildecomb" unicode="&#x303;" 
d="M-172 607c-8.66699 4 -19.998 10 -33.998 18c-12.667 8.66699 -23.667 15 -33 19s-19.666 6 -30.999 6c-27.333 0 -55.666 -16.333 -84.999 -49l-7 90c16.667 18 32.667 32.333 48 43s32 16 50 16c9.33301 0 18.166 -1.5 26.499 -4.5s19.5 -7.83301 33.5 -14.5
c12.667 -6.66699 23.5 -11.667 32.5 -15s18.5 -5 28.5 -5c14.667 0 28.5 4 41.5 12s22.5 17 28.5 27l22 -79c0 -2 -4.33301 -9 -13 -21s-19.834 -23.167 -33.501 -33.5s-28.834 -15.5 -45.501 -15.5c-10.667 0 -20.334 2 -29.001 6z" />
    <glyph glyph-name="uni0304" unicode="&#x304;" 
d="M-359 609v94h281v-94h-281z" />
    <glyph glyph-name="uni0306" unicode="&#x306;" 
d="M-353.5 665.5c-24.333 26.333 -38.834 61.832 -43.501 106.499h84c0.666992 -2 2.66699 -8.66699 6 -20s9.83301 -19.833 19.5 -25.5s22.834 -8.5 39.501 -8.5s29.167 2.5 37.5 7.5s13.666 10.333 15.999 16s5.83301 15.834 10.5 30.501h84
c-4.66699 -44 -19 -79.333 -43 -106s-58.333 -40 -103 -40c-47.333 0 -83.166 13.167 -107.499 39.5z" />
    <glyph glyph-name="uni0307" unicode="&#x307;" 
d="M-164 609v141h141v-141h-141z" />
    <glyph glyph-name="uni0308" unicode="&#x308;" 
d="M-454 609v141h141v-141h-141zM-220 609v141h141v-141h-141z" />
    <glyph glyph-name="hookabovecomb" unicode="&#x309;" 
d="M-219 594c0 17.333 4.66504 31.999 13.998 43.999s22 24.667 38 38c9.33301 7.33301 16.333 13.666 21 18.999s7 10.333 7 15c0 15.333 -8 23 -24 23c-20 0 -31.667 -12.667 -35 -38l-90 2c0.666992 18.667 6.5 36.667 17.5 54s26.167 31.5 45.5 42.5s41 16.5 65 16.5
c36.667 0 65.834 -9.16699 87.501 -27.5s32.5 -42.5 32.5 -72.5c0 -17.333 -4.33301 -31.166 -13 -41.499s-21.667 -21.833 -39 -34.5c-13.333 -9.33301 -23.166 -17.5 -29.499 -24.5s-9.5 -15.5 -9.5 -25.5v-1h-87c-0.666992 2.66699 -1 6.33398 -1 11.001z" />
    <glyph glyph-name="uni030A" unicode="&#x30a;" 
d="M-299.5 644c-30.333 23.333 -45.502 56 -45.502 98s15 74.667 45 98s66 35 108 35c41.333 0 77 -11.5 107 -34.5s45 -55.833 45 -98.5c0 -28 -7.16699 -52.167 -21.5 -72.5s-33.166 -35.5 -56.499 -45.5s-48 -15 -74 -15c-41.333 0 -77.166 11.667 -107.499 35z
M-150.502 701.5c12.333 9.66699 18.5 23.167 18.5 40.5c0 16.667 -6.16699 29.834 -18.5 39.501s-26.5 14.5 -42.5 14.5s-30 -4.83301 -42 -14.5s-18 -22.834 -18 -39.501s6 -30 18 -40s26 -15 42 -15s30.167 4.83301 42.5 14.5z" />
    <glyph glyph-name="uni030B" unicode="&#x30b;" 
d="M-450 562l-58 47l131 235l114 -95zM-205 562l-58 47l132 235l114 -95z" />
    <glyph glyph-name="uni030C" unicode="&#x30c;" 
d="M-242 609l-117 235h102l57 -142l47 142h122l-113 -235h-98z" />
    <glyph glyph-name="uni030F" unicode="&#x30f;" 
d="M-166 610l-143 224l132 68l78 -257zM-350 609l-188 188l114 95l132 -235z" />
    <glyph glyph-name="uni0311" unicode="&#x311;" 
d="M-439 715c13.333 36 35.834 66.5 67.501 91.5s72.834 37.5 123.501 37.5s91.667 -12.5 123 -37.5s53.666 -55.5 66.999 -91.5s20 -71.333 20 -106h-117c0 22.667 -1.5 42 -4.5 58s-11.333 30 -25 42s-34.834 18 -63.501 18s-50 -6 -64 -18s-22.5 -26 -25.5 -42
s-4.5 -35.333 -4.5 -58h-117c0 34.667 6.66699 70 20 106z" />
    </font>
</defs>
</svg>
